<?xml version="1.0" encoding="UTF-8" standalone="no"?>
<!-- Created with Inkscape (http://www.inkscape.org/) -->

<svg
   xmlns:dc="http://purl.org/dc/elements/1.1/"
   xmlns:cc="http://creativecommons.org/ns#"
   xmlns:rdf="http://www.w3.org/1999/02/22-rdf-syntax-ns#"
   xmlns:svg="http://www.w3.org/2000/svg"
   xmlns="http://www.w3.org/2000/svg"
   xmlns:sodipodi="http://sodipodi.sourceforge.net/DTD/sodipodi-0.dtd"
   xmlns:inkscape="http://www.inkscape.org/namespaces/inkscape"
   width="2.4924173mm"
   height="4.2703619mm"
   viewBox="0 0 8.8314 15.131204"
   id="svg2"
   version="1.1"
   inkscape:version="0.91 r13725"
   sodipodi:docname="icon-wine.svg">
  <defs
     id="defs4" />
  <sodipodi:namedview
     id="base"
     pagecolor="#ffffff"
     bordercolor="#666666"
     borderopacity="1.0"
     inkscape:pageopacity="0.0"
     inkscape:pageshadow="2"
     inkscape:zoom="22.4"
     inkscape:cx="11.126229"
     inkscape:cy="13.06668"
     inkscape:document-units="px"
     inkscape:current-layer="layer1"
     showgrid="false"
     fit-margin-top="0"
     fit-margin-left="0"
     fit-margin-right="0"
     fit-margin-bottom="0"
     inkscape:window-width="1871"
     inkscape:window-height="1056"
     inkscape:window-x="49"
     inkscape:window-y="24"
     inkscape:window-maximized="1" />
  <metadata
     id="metadata7">
    <rdf:RDF>
      <cc:Work
         rdf:about="">
        <dc:format>image/svg+xml</dc:format>
        <dc:type
           rdf:resource="http://purl.org/dc/dcmitype/StillImage" />
        <dc:title></dc:title>
      </cc:Work>
    </rdf:RDF>
  </metadata>
  <g
     inkscape:label="Calque 1"
     inkscape:groupmode="layer"
     id="layer1"
     transform="translate(-95.584299,-139.08232)">
    <g
       transform="matrix(0.42192752,0,0,-0.42192749,100.64196,153.28018)"
       id="g16274"
       style="display:inline;fill:#b4b4b4;fill-opacity:1"
       inkscape:export-xdpi="815.28003"
       inkscape:export-ydpi="815.28003">
      <path
         inkscape:connector-curvature="0"
         id="path16276"
         style="fill:#b4b4b4;fill-opacity:1;fill-rule:nonzero;stroke:none"
         d="M 0,0 0.032,14.37 C 5.057,15.255 8.93,20.298 8.944,26.395 8.95,28.8 8.359,31.131 7.221,33.137 l -0.267,0.475 -16.922,0.038 -0.274,-0.474 c -1.137,-1.997 -1.74,-4.327 -1.745,-6.734 -0.014,-6.14 3.885,-11.224 8.95,-12.082 L -3.069,0.007 c -2.923,-0.11 -5.106,-0.549 -5.107,-1.078 -0.002,-0.622 2.972,-1.133 6.639,-1.141 3.666,-0.008 6.64,0.489 6.641,1.111 C 5.105,-0.572 2.928,-0.123 0,0" />
    </g>
  </g>
</svg>
