<svg height='100px' width='100px'  fill="#000000" xmlns="http://www.w3.org/2000/svg" xmlns:xlink="http://www.w3.org/1999/xlink" version="1.1" x="0px" y="0px" viewBox="0 0 100 100" enable-background="new 0 0 100 100" xml:space="preserve"><path d="M98.5,47.5C96.5,45.5,81,35,62,35c-2.123,0-4.188,0.126-6.212,0.326L39,26c0,4.506,1.269,9.012,2.377,12.088  C31.669,40.694,23.278,44,16,44c0,0-16-10-16-10c0,8,4,16,4,16s-4,8-4,16l16-10c7.278,0,15.669,3.307,25.377,5.912  C40.269,64.988,39,69.494,39,74l16.787-9.326C57.812,64.873,59.877,65,62,65c19,0,34.5-10.5,36.5-12.5S100.492,49.492,98.5,47.5z   M85.5,50c-1.381,0-2.5-1.119-2.5-2.5c0-1.381,1.119-2.5,2.5-2.5s2.5,1.119,2.5,2.5C88,48.88,86.881,50,85.5,50z"></path></svg>