<?xml version="1.0" encoding="UTF-8" standalone="no"?>
<!-- Created with Inkscape (http://www.inkscape.org/) -->

<svg
   xmlns:dc="http://purl.org/dc/elements/1.1/"
   xmlns:cc="http://creativecommons.org/ns#"
   xmlns:rdf="http://www.w3.org/1999/02/22-rdf-syntax-ns#"
   xmlns:svg="http://www.w3.org/2000/svg"
   xmlns="http://www.w3.org/2000/svg"
   xmlns:sodipodi="http://sodipodi.sourceforge.net/DTD/sodipodi-0.dtd"
   xmlns:inkscape="http://www.inkscape.org/namespaces/inkscape"
   width="3.9242187mm"
   height="4.7836018mm"
   viewBox="0 0 13.904712 16.949771"
   id="svg2"
   version="1.1"
   inkscape:version="0.91 r13725"
   sodipodi:docname="icon-flour.svg">
  <defs
     id="defs4" />
  <sodipodi:namedview
     id="base"
     pagecolor="#ffffff"
     bordercolor="#666666"
     borderopacity="1.0"
     inkscape:pageopacity="0.0"
     inkscape:pageshadow="2"
     inkscape:zoom="22.4"
     inkscape:cx="19.305671"
     inkscape:cy="1.9304766"
     inkscape:document-units="px"
     inkscape:current-layer="layer1"
     showgrid="false"
     fit-margin-top="0"
     fit-margin-left="0"
     fit-margin-right="0"
     fit-margin-bottom="0"
     inkscape:window-width="1871"
     inkscape:window-height="1056"
     inkscape:window-x="49"
     inkscape:window-y="24"
     inkscape:window-maximized="1" />
  <metadata
     id="metadata7">
    <rdf:RDF>
      <cc:Work
         rdf:about="">
        <dc:format>image/svg+xml</dc:format>
        <dc:type
           rdf:resource="http://purl.org/dc/dcmitype/StillImage" />
        <dc:title></dc:title>
      </cc:Work>
    </rdf:RDF>
  </metadata>
  <g
     inkscape:label="Calque 1"
     inkscape:groupmode="layer"
     id="layer1"
     transform="translate(-87.404856,-126.12755)">
    <g
       inkscape:export-ydpi="517.81"
       inkscape:export-xdpi="517.81"
       id="g14525"
       transform="matrix(0.49160878,0,0,-0.49160875,-157.25573,321.78721)"
       style="display:inline;fill:#b4b4b4;fill-opacity:1">
      <g
         id="g14527"
         transform="translate(517.8214,389.5327)"
         style="fill:#b4b4b4;fill-opacity:1">
        <path
           d="M 0,0 C 0.005,-0.322 0.153,-0.624 0.403,-0.826 0.651,-1.027 0.979,-1.11 1.294,-1.048 2.711,-0.781 5.056,-0.079 6.513,1.721 7.966,3.517 8.165,5.956 8.133,7.4 8.126,7.719 7.98,8.02 7.728,8.224 7.479,8.426 7.155,8.505 6.838,8.448 5.42,8.179 3.077,7.474 1.624,5.678 0.167,3.879 -0.034,1.441 0,0"
           style="fill:#b4b4b4;fill-opacity:1;fill-rule:nonzero;stroke:none"
           id="path14529"
           inkscape:connector-curvature="0" />
      </g>
      <g
         id="g14531"
         transform="translate(513.7095,383.1145)"
         style="fill:#b4b4b4;fill-opacity:1">
        <path
           d="m 0,0 c 0.126,-0.113 3.204,-2.817 6.602,-2.459 2.303,0.243 4.169,1.828 5.165,2.869 0.223,0.232 0.332,0.549 0.296,0.868 C 12.033,1.596 11.859,1.884 11.59,2.066 10.398,2.879 8.242,4.04 5.943,3.794 3.404,3.53 1.394,1.621 0.497,0.622 1.291,1.705 2.739,4.069 2.469,6.606 2.227,8.91 0.641,10.776 -0.4,11.772 -0.632,11.995 -0.952,12.101 -1.268,12.068 -1.59,12.034 -1.877,11.861 -2.057,11.594 -2.868,10.403 -4.03,8.248 -3.788,5.951 -3.427,2.551 -0.141,0.103 0,0"
           style="fill:#b4b4b4;fill-opacity:1;fill-rule:nonzero;stroke:none"
           id="path14533"
           inkscape:connector-curvature="0" />
      </g>
      <g
         id="g14535"
         transform="translate(514.2015,380.1744)"
         style="fill:#b4b4b4;fill-opacity:1">
        <path
           d="m 0,0 c -2.541,-0.268 -4.553,-2.177 -5.445,-3.179 0.789,1.085 2.238,3.45 1.971,5.991 C -3.716,5.109 -5.302,6.975 -6.346,7.974 -6.579,8.197 -6.895,8.307 -7.214,8.27 -7.532,8.24 -7.821,8.066 -8,7.8 -8.812,6.609 -9.973,4.454 -9.73,2.15 c 0.357,-3.397 3.643,-5.845 3.781,-5.945 0.128,-0.116 3.207,-2.82 6.605,-2.463 2.303,0.244 4.169,1.828 5.166,2.87 0.222,0.232 0.328,0.553 0.295,0.867 -0.034,0.322 -0.208,0.61 -0.473,0.79 C 4.452,-0.92 2.297,0.243 0,0"
           style="fill:#b4b4b4;fill-opacity:1;fill-rule:nonzero;stroke:none"
           id="path14537"
           inkscape:connector-curvature="0" />
      </g>
      <g
         id="g14539"
         transform="translate(508.7476,373.4366)"
         style="fill:#b4b4b4;fill-opacity:1">
        <path
           d="m 0,0 c -2.541,-0.267 -4.553,-2.177 -5.446,-3.18 0.79,1.086 2.239,3.451 1.972,5.992 C -3.716,5.108 -5.302,6.975 -6.343,7.97 -6.575,8.194 -6.892,8.303 -7.214,8.27 -7.529,8.237 -7.82,8.066 -8,7.8 -8.812,6.609 -9.974,4.453 -9.727,2.153 -9.486,-0.173 -7.87,-2.052 -6.83,-3.042 l -3.931,-4.857 c -0.446,-0.55 -0.426,-1.304 0.126,-1.75 0.55,-0.446 1.295,-0.311 1.741,0.239 l 3.934,4.861 c 1.195,-0.808 3.334,-1.945 5.616,-1.708 2.299,0.245 4.169,1.827 5.166,2.869 0.222,0.232 0.328,0.553 0.295,0.867 C 6.083,-2.2 5.909,-1.911 5.643,-1.732 4.452,-0.92 2.296,0.242 0,0"
           style="fill:#b4b4b4;fill-opacity:1;fill-rule:nonzero;stroke:none"
           id="path14541"
           inkscape:connector-curvature="0" />
      </g>
    </g>
  </g>
</svg>
