<?xml version="1.0" encoding="UTF-8" standalone="no"?>
<!-- Created with Inkscape (http://www.inkscape.org/) -->

<svg
   xmlns:dc="http://purl.org/dc/elements/1.1/"
   xmlns:cc="http://creativecommons.org/ns#"
   xmlns:rdf="http://www.w3.org/1999/02/22-rdf-syntax-ns#"
   xmlns:svg="http://www.w3.org/2000/svg"
   xmlns="http://www.w3.org/2000/svg"
   xmlns:sodipodi="http://sodipodi.sourceforge.net/DTD/sodipodi-0.dtd"
   xmlns:inkscape="http://www.inkscape.org/namespaces/inkscape"
   width="4.1304584mm"
   height="4.1667571mm"
   viewBox="0 0 14.635482 14.764101"
   id="svg2"
   version="1.1"
   inkscape:version="0.91 r13725"
   sodipodi:docname="icon-finefood.svg">
  <defs
     id="defs4" />
  <sodipodi:namedview
     id="base"
     pagecolor="#ffffff"
     bordercolor="#666666"
     borderopacity="1.0"
     inkscape:pageopacity="0.0"
     inkscape:pageshadow="2"
     inkscape:zoom="22.4"
     inkscape:cx="21.077836"
     inkscape:cy="3.9082581"
     inkscape:document-units="px"
     inkscape:current-layer="layer1"
     showgrid="false"
     fit-margin-top="0"
     fit-margin-left="0"
     fit-margin-right="0"
     fit-margin-bottom="0"
     inkscape:window-width="1871"
     inkscape:window-height="1056"
     inkscape:window-x="49"
     inkscape:window-y="24"
     inkscape:window-maximized="1" />
  <metadata
     id="metadata7">
    <rdf:RDF>
      <cc:Work
         rdf:about="">
        <dc:format>image/svg+xml</dc:format>
        <dc:type
           rdf:resource="http://purl.org/dc/dcmitype/StillImage" />
        <dc:title></dc:title>
      </cc:Work>
    </rdf:RDF>
  </metadata>
  <g
     inkscape:label="Calque 1"
     inkscape:groupmode="layer"
     id="layer1"
     transform="translate(-85.632686,-130.291)">
    <g
       style="display:inline;fill:#b4b4b4;fill-opacity:1"
       id="g19646"
       transform="matrix(0.80545216,0,0,0.80545216,566.8974,232.92725)"
       inkscape:export-xdpi="491.95001"
       inkscape:export-ydpi="491.95001">
      <g
         id="g14869"
         transform="matrix(0.57739643,0,0,-0.57739643,-591.58115,-119.74)"
         style="fill:#b4b4b4;fill-opacity:1">
        <path
           d="m 0,0 c 0.73,0 1.325,0.594 1.325,1.324 l 0,5.158 c 0,2.309 1.876,4.186 4.181,4.186 2.306,0 4.183,-1.877 4.183,-4.186 l 0,-5.158 C 9.689,0.594 10.283,0 11.013,0 c 0.73,0 1.324,0.594 1.324,1.324 l 0,5.158 c 0,3.766 -3.065,6.831 -6.831,6.831 -3.766,0 -6.827,-3.065 -6.827,-6.831 l 0,-5.158 C -1.321,0.594 -0.73,0 0,0"
           style="fill:#b4b4b4;fill-opacity:1;fill-rule:nonzero;stroke:none"
           id="path14871"
           inkscape:connector-curvature="0" />
      </g>
      <g
         id="g14873"
         transform="matrix(0.57739643,0,0,-0.57739643,-579.63909,-121.45758)"
         style="fill:#b4b4b4;fill-opacity:1">
        <path
           d="m 0,0 -7.024,0 0,-1.65 c 0,-1.46 -1.186,-2.645 -2.646,-2.645 -1.459,0 -2.645,1.185 -2.645,2.645 l 0,1.65 -5.719,0 0,-1.65 c 0,-1.46 -1.189,-2.645 -2.645,-2.645 -1.46,0 -2.648,1.185 -2.648,2.645 l 0,1.65 -7.099,0 c -0.366,0 -0.591,-0.288 -0.504,-0.642 l 4.628,-18.848 c 0.278,-1.059 1.396,-1.918 2.49,-1.918 l 17.198,0 c 1.094,0 2.208,0.859 2.489,1.918 L 0.503,-0.642 C 0.588,-0.288 0.365,0 0,0"
           style="fill:#b4b4b4;fill-opacity:1;fill-rule:nonzero;stroke:none"
           id="path14875"
           inkscape:connector-curvature="0" />
      </g>
    </g>
  </g>
</svg>
