<?xml version="1.0" encoding="UTF-8" standalone="no"?>
<!-- Created with Inkscape (http://www.inkscape.org/) -->

<svg
   xmlns:dc="http://purl.org/dc/elements/1.1/"
   xmlns:cc="http://creativecommons.org/ns#"
   xmlns:rdf="http://www.w3.org/1999/02/22-rdf-syntax-ns#"
   xmlns:svg="http://www.w3.org/2000/svg"
   xmlns="http://www.w3.org/2000/svg"
   xmlns:sodipodi="http://sodipodi.sourceforge.net/DTD/sodipodi-0.dtd"
   xmlns:inkscape="http://www.inkscape.org/namespaces/inkscape"
   width="5.3618684mm"
   height="4.1828814mm"
   viewBox="0 0 18.998745 14.821234"
   id="svg2"
   version="1.1"
   inkscape:version="0.91 r13725"
   sodipodi:docname="icon-pasta.svg">
  <defs
     id="defs4" />
  <sodipodi:namedview
     id="base"
     pagecolor="#ffffff"
     bordercolor="#666666"
     borderopacity="1.0"
     inkscape:pageopacity="0.0"
     inkscape:pageshadow="2"
     inkscape:zoom="63.356767"
     inkscape:cx="7.1395978"
     inkscape:cy="7.5738182"
     inkscape:document-units="px"
     inkscape:current-layer="g6380"
     showgrid="false"
     fit-margin-top="0"
     fit-margin-left="0"
     fit-margin-right="0"
     fit-margin-bottom="0"
     inkscape:window-width="1871"
     inkscape:window-height="1056"
     inkscape:window-x="49"
     inkscape:window-y="24"
     inkscape:window-maximized="1" />
  <metadata
     id="metadata7">
    <rdf:RDF>
      <cc:Work
         rdf:about="">
        <dc:format>image/svg+xml</dc:format>
        <dc:type
           rdf:resource="http://purl.org/dc/dcmitype/StillImage" />
        <dc:title></dc:title>
      </cc:Work>
    </rdf:RDF>
  </metadata>
  <g
     inkscape:label="Calque 1"
     inkscape:groupmode="layer"
     id="layer1"
     transform="translate(-110.15412,-132.22801)">
    <g
       id="g6380"
       transform="matrix(0.45976524,-0.34721082,0.31396389,0.41574073,98.958239,134.68575)"
       style="fill:#b4b4b4;fill-opacity:1;fill-rule:evenodd;stroke:none;stroke-opacity:1">
      <path
         style="fill:#b4b4b4;fill-opacity:1;fill-rule:nonzero;stroke:none;stroke-opacity:1"
         inkscape:connector-curvature="0"
         d="m 25.59,17.742 -0.025,0.083 0.026,-0.082 c 0.945,3.196 0.256,6.393 -2.073,9.65 -1.91,2.608 -4.054,4.118 -6.414,4.483 -0.362,0.1 -0.64,0.124 -1.165,0.124 -1.87,0 -3.4,-0.603 -4.838,-1.542 -1.48,-1.14 -2.75,-2.95 -3.028,-4.685 -0.192,-1.06 0.003,-1.997 0.568,-2.733 0.123,-0.243 0.312,-0.493 0.5,-0.672 0.03,-0.06 0.064,-0.1 0.14,-0.172 0.064,-0.064 0.09,-0.093 0.124,-0.153 L 9.53,21.921 9.59,21.863 c 0.7,-0.75 1.788,-1.01 2.826,-0.694 0.775,0.232 1.372,0.125 1.67,-0.28 0.213,-0.25 0.275,-0.465 0.33,-1.01 0.012,-0.14 0.012,-0.14 0.027,-0.288 0.108,-1.763 0.43,-2.812 1.765,-4.617 1.367,-1.884 2.635,-2.835 3.928,-2.96 0.6,-0.06 1.174,0.096 1.727,0.433 0.25,0.12 0.505,0.305 0.706,0.5 1.173,1.042 2.405,2.788 3.02,4.796 z m -8.194,-2.006 c -0.69,0.953 -1.096,1.745 -1.298,2.457 0,0.297 0.01,0.467 0.057,0.667 0.046,0.2 0.123,0.37 0.238,0.505 0.237,0.288 0.592,0.46 1.074,0.52 0.983,0.107 2.53,-0.88 3.24,-1.92 1.722,-2.355 1.565,-3.504 0.46,-4.344 -0.277,-0.16 -0.568,-0.23 -0.892,-0.232 -0.79,0.06 -1.776,0.853 -2.88,2.348 z m -7.18,7.496 -0.004,0.01 c -0.18,0.258 -0.05,0.883 0.49,1.364 0.888,0.808 2.913,1.425 3.663,1.086 l 0.012,-0.006 c 0.08,-0.04 0.13,-0.078 0.132,-0.046 0,-0.06 -0.293,-0.325 -0.57,-0.414 -1.01,-0.274 -1.98,-1.07 -2.61,-1.992 -0.108,-0.212 -0.267,-0.325 -0.456,-0.33 -0.15,-0.048 -0.31,-0.006 -0.423,0.105 -0.022,0.022 -0.123,0.098 -0.13,0.104 -0.048,0.04 -0.08,0.076 -0.103,0.118 z M 36.24,42.137 c -1.864,0.66 -3.99,0.5 -5.893,-1.01 -1.13,-0.888 -1.91,-1.222 -2.258,-1.074 -0.322,0.146 -0.617,0.986 -0.754,2.43 -0.208,2.478 -1.502,4.125 -3.33,5.175 C 23.535,47.884 23.111,48 22.67,48 c -0.232,0 -0.44,-0.033 -0.652,-0.098 -0.248,-0.044 -0.456,-0.134 -0.563,-0.25 -0.287,-0.222 -0.423,-0.515 -0.517,-0.953 -0.022,-0.11 -0.065,-0.234 -0.057,-0.225 0.035,0.035 -0.03,0.014 -0.105,0 L 20.654,46.45 C 20.224,46.4 19.926,46.294 19.717,46.04 19.52,45.836 19.429,45.59 19.38,45.258 19.37,45.196 19.364,45.142 19.353,45.041 19.345,44.998 19.345,44.991 19.338,44.943 l -0.01,-0.068 c 0.04,-0.03 -0.03,-0.062 -0.146,-0.108 l -0.097,-0.04 c -0.094,-0.034 -0.157,-0.058 -0.214,-0.08 -0.292,-0.122 -0.494,-0.26 -0.617,-0.467 -0.155,-0.214 -0.21,-0.447 -0.218,-0.75 -0.002,-0.056 -0.002,-0.102 0,-0.195 l 0,-0.1 0,-0.138 c 0,-0.082 -0.01,-0.17 0.028,-0.1 -0.01,-0.013 -0.084,-0.068 -0.23,-0.16 -0.376,-0.196 -0.612,-0.397 -0.754,-0.73 -0.14,-0.323 -0.125,-0.6 -0.02,-1.09 l 0.028,-0.112 c 0.025,-0.1 0.028,-0.13 0.04,-0.094 0.007,0.023 -0.04,-0.028 -0.135,-0.122 l -0.067,-0.067 -0.15,-0.15 c -0.25,-0.244 -0.378,-0.42 -0.425,-0.65 -0.11,-0.347 -0.036,-0.675 0.162,-1.09 0.063,-0.165 0.09,-0.25 0.09,-0.26 0,0.018 -0.053,-0.063 -0.176,-0.197 L 16.354,38.07 c -0.22,-0.31 -0.316,-0.497 -0.347,-0.78 -0.03,-0.348 0.06,-0.58 0.293,-0.96 l 0.07,-0.116 c 0.053,-0.073 0.113,-0.183 0.113,-0.13 0,0.006 -0.028,-0.057 -0.113,-0.22 -0.03,-0.057 -0.03,-0.057 -0.04,-0.08 -0.194,-0.303 -0.295,-0.547 -0.295,-0.846 0,-0.312 0.118,-0.6 0.36,-0.974 0.247,-0.368 0.628,-0.685 1.045,-0.868 1.946,-0.818 4.192,-0.8 6.24,0.85 1.13,0.886 1.91,1.22 2.258,1.072 0.322,-0.146 0.617,-0.986 0.754,-2.435 0.254,-2.682 1.767,-4.405 3.65,-5.32 0.4,-0.206 0.872,-0.29 1.344,-0.25 0.37,0.034 0.678,0.17 0.954,0.41 0.18,0.186 0.294,0.44 0.38,0.755 0.02,0.058 0.02,0.058 0.036,0.114 0.05,0.153 0.083,0.235 0.006,0.18 -0.01,-0.006 0.026,0.004 0.076,0.015 l 0.066,0.015 0.137,0.032 0.1,0.022 0.1,0.02 c 0.343,0.078 0.563,0.18 0.76,0.412 0.14,0.17 0.22,0.37 0.268,0.616 0.02,0.098 0.024,0.134 0.05,0.336 0.03,0.202 0.053,0.302 0.024,0.268 0,0 0.083,0.04 0.224,0.1 0.4,0.138 0.673,0.3 0.895,0.61 0.154,0.253 0.18,0.455 0.173,0.876 l 0,0.086 c -0.002,0.11 -0.002,0.11 -0.005,0.18 -0.004,0.104 0,0.15 -0.003,0.153 -0.017,-0.034 0.11,0.058 0.207,0.11 0.06,0.038 0.06,0.038 0.122,0.08 0.332,0.214 0.516,0.383 0.635,0.663 0.138,0.324 0.122,0.628 0.01,1.087 -0.04,0.13 -0.057,0.248 -0.04,0.354 0,-0.094 0.07,-0.02 0.148,0.042 l 0.09,0.08 c 0.312,0.274 0.467,0.475 0.528,0.79 0.062,0.29 0.015,0.522 -0.124,0.9 l -0.04,0.112 c -0.056,0.143 -0.096,0.28 -0.114,0.19 0,-0.005 0.027,0.034 0.11,0.138 l 0.064,0.083 c 0.265,0.277 0.434,0.58 0.47,0.937 0.036,0.37 -0.078,0.648 -0.334,1.02 -0.057,0.077 -0.112,0.198 -0.112,0.19 0,-0.037 0.063,0.094 0.128,0.186 0.262,0.435 0.353,0.664 0.32,0.99 0,0.19 -0.072,0.394 -0.193,0.605 -0.307,0.625 -0.873,1.116 -1.56,1.37 z"
         id="path6362"
         sodipodi:nodetypes="cccccsccccccccccccccccccccccccccccccccscccccccccccccsccccccccccccccccccsccccsccccccccccccsccscccccccccccccccccccccccccccccccccccccccccsccccc" />
      <path
         style="fill:#ffffff;fill-opacity:1;fill-rule:nonzero;stroke:none;stroke-opacity:1"
         inkscape:connector-curvature="0"
         d="m 29.375,36.807 0.062,0.015 c 0.393,0.09 0.83,0.043 1.255,-0.09 0.095,-0.03 0.3,-0.11 0.325,-0.122 0.335,-0.16 0.725,-0.023 0.894,0.31 0.186,0.295 0.073,0.66 -0.257,0.85 -0.174,0.08 -0.283,0.126 -0.505,0.196 -0.69,0.218 -1.415,0.278 -2.124,0.073 -0.633,-0.205 -1.17,-0.205 -1.656,-0.018 l -0.177,0.085 c -0.48,0.23 -0.858,0.615 -1.142,1.186 C 25.57,40.213 24.29,41 23.84,41 c -0.29,0 -0.545,-0.176 -0.6,-0.4 -0.13,-0.31 0.046,-0.664 0.38,-0.792 0.62,-0.2 1.038,-0.537 1.276,-1.028 0.095,-0.183 0.187,-0.343 0.28,-0.487 -0.194,-0.035 -0.385,-0.08 -0.58,-0.138 -0.08,-0.024 -0.163,-0.042 -0.25,-0.054 -0.354,-0.047 -0.744,0.005 -1.15,0.126 -0.1,0.03 -0.482,0.17 -0.56,0.17 -0.226,0 -0.418,-0.108 -0.547,-0.297 -0.186,-0.297 -0.073,-0.662 0.257,-0.852 0.28,-0.13 0.277,-0.128 0.496,-0.2 0.696,-0.23 1.426,-0.29 2.133,-0.07 0.633,0.204 1.17,0.204 1.656,0.018 l 0.17,-0.082 c 0.498,-0.252 0.857,-0.628 1.147,-1.212 0.2,-0.41 0.497,-0.755 0.864,-1.044 0.235,-0.185 0.485,-0.337 0.74,-0.46 0.15,-0.073 0.38,-0.167 0.365,-0.158 0.32,-0.122 0.687,0.046 0.813,0.35 0.127,0.31 -0.048,0.664 -0.38,0.792 -0.623,0.2 -1.04,0.537 -1.278,1.028 -0.09,0.174 -0.177,0.327 -0.266,0.465 0.182,0.03 0.37,0.075 0.565,0.132 z"
         id="path6364" />
    </g>
  </g>
</svg>
