<?xml version="1.0" encoding="UTF-8" standalone="no"?>
<!-- Created with Inkscape (http://www.inkscape.org/) -->

<svg
   xmlns:dc="http://purl.org/dc/elements/1.1/"
   xmlns:cc="http://creativecommons.org/ns#"
   xmlns:rdf="http://www.w3.org/1999/02/22-rdf-syntax-ns#"
   xmlns:svg="http://www.w3.org/2000/svg"
   xmlns="http://www.w3.org/2000/svg"
   xmlns:sodipodi="http://sodipodi.sourceforge.net/DTD/sodipodi-0.dtd"
   xmlns:inkscape="http://www.inkscape.org/namespaces/inkscape"
   width="2.4696801mm"
   height="4.1792302mm"
   viewBox="0 0 8.7508347 14.808297"
   id="svg2"
   version="1.1"
   inkscape:version="0.92.5 (0.92.5+68)"
   sodipodi:docname="icon-wine.svg">
  <defs
     id="defs4" />
  <sodipodi:namedview
     id="base"
     pagecolor="#ffffff"
     bordercolor="#666666"
     borderopacity="1.0"
     inkscape:pageopacity="0.0"
     inkscape:pageshadow="2"
     inkscape:zoom="22.4"
     inkscape:cx="-1.6498816"
     inkscape:cy="4.7407543"
     inkscape:document-units="px"
     inkscape:current-layer="g16274"
     showgrid="false"
     fit-margin-top="0"
     fit-margin-left="0"
     fit-margin-right="0"
     fit-margin-bottom="0"
     inkscape:window-width="1871"
     inkscape:window-height="1056"
     inkscape:window-x="49"
     inkscape:window-y="24"
     inkscape:window-maximized="1" />
  <metadata
     id="metadata7">
    <rdf:RDF>
      <cc:Work
         rdf:about="">
        <dc:format>image/svg+xml</dc:format>
        <dc:type
           rdf:resource="http://purl.org/dc/dcmitype/StillImage" />
        <dc:title></dc:title>
      </cc:Work>
    </rdf:RDF>
  </metadata>
  <g
     inkscape:label="Calque 1"
     inkscape:groupmode="layer"
     id="layer1"
     transform="translate(-97.556833,-131.0793)">
    <g
       transform="matrix(0.34994384,0,0,-0.34994381,101.47934,143.9302)"
       id="g16274"
       style="display:inline;fill:#000000;fill-opacity:1"
       inkscape:export-xdpi="815.28003"
       inkscape:export-ydpi="815.28003">
      <path
         inkscape:connector-curvature="0"
         id="path16276"
         style="fill:#b3b3b3;fill-opacity:1;fill-rule:nonzero;stroke:none"
         d="m 3.1095552,-0.11959829 0.032,14.37000029 c 5.025,0.885 8.8979998,5.928 8.9119998,12.025 0.006,2.405 -0.585,4.736 -1.723,6.742 l -0.267,0.475 -16.9219998,0.038 -0.274,-0.474 c -1.137,-1.997 -1.74,-4.327 -1.745,-6.734 -0.014,-6.14 3.885,-11.224 8.95000003,-12.082 l -0.032,-14.35300029 c -2.92300003,-0.11 -5.10600003,-0.549 -5.10700003,-1.07800001 -0.002,-0.622 2.972,-1.133 6.639,-1.141 3.666,-0.008 6.64,0.489 6.641,1.111 10e-4,0.52900001 -2.176,0.97800001 -5.104,1.10100001" />
    </g>
  </g>
</svg>
