<?xml version="1.0" encoding="UTF-8" standalone="no"?>
<!-- Created with Inkscape (http://www.inkscape.org/) -->

<svg
   xmlns:dc="http://purl.org/dc/elements/1.1/"
   xmlns:cc="http://creativecommons.org/ns#"
   xmlns:rdf="http://www.w3.org/1999/02/22-rdf-syntax-ns#"
   xmlns:svg="http://www.w3.org/2000/svg"
   xmlns="http://www.w3.org/2000/svg"
   xmlns:sodipodi="http://sodipodi.sourceforge.net/DTD/sodipodi-0.dtd"
   xmlns:inkscape="http://www.inkscape.org/namespaces/inkscape"
   width="1.8696814mm"
   height="2.8437095mm"
   viewBox="0 0 6.6248548 10.076136"
   id="svg2"
   version="1.1"
   inkscape:version="0.91 r13725"
   sodipodi:docname="icon-beer.svg">
  <defs
     id="defs4" />
  <sodipodi:namedview
     id="base"
     pagecolor="#ffffff"
     bordercolor="#666666"
     borderopacity="1.0"
     inkscape:pageopacity="0.0"
     inkscape:pageshadow="2"
     inkscape:zoom="31.678384"
     inkscape:cx="1.7394596"
     inkscape:cy="5.5723859"
     inkscape:document-units="px"
     inkscape:current-layer="g6380"
     showgrid="false"
     fit-margin-top="0"
     fit-margin-left="0"
     fit-margin-right="0"
     fit-margin-bottom="0"
     inkscape:window-width="1871"
     inkscape:window-height="1056"
     inkscape:window-x="49"
     inkscape:window-y="24"
     inkscape:window-maximized="1" />
  <metadata
     id="metadata7">
    <rdf:RDF>
      <cc:Work
         rdf:about="">
        <dc:format>image/svg+xml</dc:format>
        <dc:type
           rdf:resource="http://purl.org/dc/dcmitype/StillImage" />
        <dc:title></dc:title>
      </cc:Work>
    </rdf:RDF>
  </metadata>
  <g
     inkscape:label="Calque 1"
     inkscape:groupmode="layer"
     id="layer1"
     transform="translate(-115.55426,-134.97167)">
    <g
       id="g6380"
       transform="matrix(0.45976524,-0.34721082,0.31396389,0.41574073,98.958239,134.68575)"
       style="fill:#b4b4b4;fill-opacity:1;fill-rule:evenodd;stroke:none;stroke-opacity:1">
      <path
         style="fill:#ffffff;fill-opacity:1;fill-rule:nonzero;stroke:none;stroke-opacity:1"
         inkscape:connector-curvature="0"
         d="m 29.375,36.807 0.062,0.015 c 0.393,0.09 0.83,0.043 1.255,-0.09 0.095,-0.03 0.3,-0.11 0.325,-0.122 0.335,-0.16 0.725,-0.023 0.894,0.31 0.186,0.295 0.073,0.66 -0.257,0.85 -0.174,0.08 -0.283,0.126 -0.505,0.196 -0.69,0.218 -1.415,0.278 -2.124,0.073 -0.633,-0.205 -1.17,-0.205 -1.656,-0.018 l -0.177,0.085 c -0.48,0.23 -0.858,0.615 -1.142,1.186 C 25.57,40.213 24.29,41 23.84,41 c -0.29,0 -0.545,-0.176 -0.6,-0.4 -0.13,-0.31 0.046,-0.664 0.38,-0.792 0.62,-0.2 1.038,-0.537 1.276,-1.028 0.095,-0.183 0.187,-0.343 0.28,-0.487 -0.194,-0.035 -0.385,-0.08 -0.58,-0.138 -0.08,-0.024 -0.163,-0.042 -0.25,-0.054 -0.354,-0.047 -0.744,0.005 -1.15,0.126 -0.1,0.03 -0.482,0.17 -0.56,0.17 -0.226,0 -0.418,-0.108 -0.547,-0.297 -0.186,-0.297 -0.073,-0.662 0.257,-0.852 0.28,-0.13 0.277,-0.128 0.496,-0.2 0.696,-0.23 1.426,-0.29 2.133,-0.07 0.633,0.204 1.17,0.204 1.656,0.018 l 0.17,-0.082 c 0.498,-0.252 0.857,-0.628 1.147,-1.212 0.2,-0.41 0.497,-0.755 0.864,-1.044 0.235,-0.185 0.485,-0.337 0.74,-0.46 0.15,-0.073 0.38,-0.167 0.365,-0.158 0.32,-0.122 0.687,0.046 0.813,0.35 0.127,0.31 -0.048,0.664 -0.38,0.792 -0.623,0.2 -1.04,0.537 -1.278,1.028 -0.09,0.174 -0.177,0.327 -0.266,0.465 0.182,0.03 0.37,0.075 0.565,0.132 z"
         id="path6364" />
      <path
         d="m 26.76379,28.136087 2.21619,-3.245364 -3.408231,-2.846424 -2.216189,3.245363 c -0.764686,1.119798 -4.819375,0.425794 -5.475784,1.387032 l -5.181953,7.588394 c -0.321456,0.470738 -0.04787,1.224008 0.477119,1.662457 l 7.122435,5.948387 c 0.524343,0.437911 1.254995,0.523344 1.576451,0.05261 l 5.181953,-7.588394 C 27.71219,33.378909 25.999104,29.255889 26.76379,28.136091"
         style="display:inline;fill:#b4b4b4;fill-opacity:1;fill-rule:nonzero;stroke:none"
         id="path6414"
         inkscape:connector-curvature="0"
         sodipodi:nodetypes="cccsssssssc" />
    </g>
  </g>
</svg>
