<?xml version="1.0" encoding="UTF-8" standalone="no"?>
<!-- Created with Inkscape (http://www.inkscape.org/) -->

<svg
   xmlns:dc="http://purl.org/dc/elements/1.1/"
   xmlns:cc="http://creativecommons.org/ns#"
   xmlns:rdf="http://www.w3.org/1999/02/22-rdf-syntax-ns#"
   xmlns:svg="http://www.w3.org/2000/svg"
   xmlns="http://www.w3.org/2000/svg"
   xmlns:sodipodi="http://sodipodi.sourceforge.net/DTD/sodipodi-0.dtd"
   xmlns:inkscape="http://www.inkscape.org/namespaces/inkscape"
   width="4.4242339mm"
   height="4.3651843mm"
   viewBox="0 0 15.67642 15.467189"
   id="svg2"
   version="1.1"
   inkscape:version="0.91 r13725"
   sodipodi:docname="icon-cheese.svg">
  <defs
     id="defs4" />
  <sodipodi:namedview
     id="base"
     pagecolor="#ffffff"
     bordercolor="#666666"
     borderopacity="1.0"
     inkscape:pageopacity="0.0"
     inkscape:pageshadow="2"
     inkscape:zoom="22.4"
     inkscape:cx="16.295667"
     inkscape:cy="1.3158586"
     inkscape:document-units="px"
     inkscape:current-layer="layer1"
     showgrid="false"
     fit-margin-top="0"
     fit-margin-left="0"
     fit-margin-right="0"
     fit-margin-bottom="0"
     inkscape:window-width="1871"
     inkscape:window-height="1056"
     inkscape:window-x="49"
     inkscape:window-y="24"
     inkscape:window-maximized="1" />
  <metadata
     id="metadata7">
    <rdf:RDF>
      <cc:Work
         rdf:about="">
        <dc:format>image/svg+xml</dc:format>
        <dc:type
           rdf:resource="http://purl.org/dc/dcmitype/StillImage" />
        <dc:title></dc:title>
      </cc:Work>
    </rdf:RDF>
  </metadata>
  <g
     inkscape:label="Calque 1"
     inkscape:groupmode="layer"
     id="layer1"
     transform="translate(-90.41486,-126.99551)">
    <g
       inkscape:export-ydpi="459.29001"
       inkscape:export-xdpi="459.29001"
       id="g14543"
       transform="matrix(0.49160878,0,0,-0.49160878,-10.638963,174.34432)"
       style="display:inline;fill:#b4b4b4;fill-opacity:1">
      <g
         id="g14545"
         transform="translate(235.6792,89.933)"
         style="fill:#b4b4b4;fill-opacity:1">
        <path
           d="M 0,0 C 0.139,0.023 0.278,0.035 0.417,0.035 0.559,0.035 0.702,0.023 0.837,0 L -13.686,6.27 C -14.134,6.463 -14.65,6.402 -15.04,6.105 L -29.455,-4.863 C -29.366,-4.836 0,0 0,0"
           style="fill:#b4b4b4;fill-opacity:1;fill-rule:nonzero;stroke:none"
           id="path14547"
           inkscape:connector-curvature="0" />
      </g>
      <g
         id="g14549"
         transform="translate(234.8424,74.9896)"
         style="fill:#b4b4b4;fill-opacity:1">
        <path
           d="m 0,0 c 0.979,0 1.882,-0.355 2.603,-0.956 l 0,13.385 c 0,0.644 -0.443,1.168 -1.026,1.311 -0.104,0.027 -0.212,0.039 -0.32,0.039 -0.073,0 -0.146,-0.008 -0.223,-0.019 l -28.7,-4.717 -0.489,-0.081 c -0.652,-0.108 -1.13,-0.671 -1.13,-1.33 l 0,-8.326 c 0.543,0.439 1.222,0.698 1.955,0.698 1.805,0 3.266,-1.57 3.266,-3.509 0,-1.94 -1.461,-3.51 -3.266,-3.51 -0.733,0 -1.408,0.259 -1.955,0.698 l 0,-2.472 c 0,-0.755 0.617,-1.349 1.346,-1.349 0.073,0 0.146,0.007 0.223,0.019 l 23.755,3.906 C -4.146,-5.7 -4.246,-5.144 -4.246,-4.562 -4.25,-2.044 -2.349,0 0,0 m -13.505,-1.874 c -1.454,0 -2.63,1.265 -2.63,2.827 0,1.561 1.176,2.826 2.63,2.826 1.454,0 2.63,-1.265 2.63,-2.826 0,-1.562 -1.176,-2.827 -2.63,-2.827 m 8.438,6.494 c -0.455,0 -0.883,0.123 -1.257,0.343 -0.818,0.478 -1.373,1.411 -1.373,2.484 0,1.561 1.176,2.826 2.63,2.826 0.987,0 1.843,-0.582 2.294,-1.446 0.212,-0.408 0.336,-0.879 0.336,-1.38 0,-1.562 -1.176,-2.827 -2.63,-2.827"
           style="fill:#b4b4b4;fill-opacity:1;fill-rule:nonzero;stroke:none"
           id="path14551"
           inkscape:connector-curvature="0" />
      </g>
    </g>
  </g>
</svg>
