<?xml version="1.0" encoding="UTF-8" standalone="no"?>
<svg
   xmlns:dc="http://purl.org/dc/elements/1.1/"
   xmlns:cc="http://creativecommons.org/ns#"
   xmlns:rdf="http://www.w3.org/1999/02/22-rdf-syntax-ns#"
   xmlns:svg="http://www.w3.org/2000/svg"
   xmlns="http://www.w3.org/2000/svg"
   xmlns:sodipodi="http://sodipodi.sourceforge.net/DTD/sodipodi-0.dtd"
   xmlns:inkscape="http://www.inkscape.org/namespaces/inkscape"
   height="100px"
   width="100px"
   fill="#000000"
   version="1.1"
   x="0px"
   y="0px"
   viewBox="0 0 100 120"
   enable-background="new 0 0 100 120"
   xml:space="preserve"
   id="svg4"
   sodipodi:docname="icon-digestive.svg"
   inkscape:version="0.92.5 (0.92.5+68)"><metadata
     id="metadata10"><rdf:RDF><cc:Work
         rdf:about=""><dc:format>image/svg+xml</dc:format><dc:type
           rdf:resource="http://purl.org/dc/dcmitype/StillImage" /></cc:Work></rdf:RDF></metadata><defs
     id="defs8" /><sodipodi:namedview
     pagecolor="#ffffff"
     bordercolor="#666666"
     borderopacity="1"
     objecttolerance="10"
     gridtolerance="10"
     guidetolerance="10"
     inkscape:pageopacity="0"
     inkscape:pageshadow="2"
     inkscape:window-width="891"
     inkscape:window-height="480"
     id="namedview6"
     showgrid="false"
     inkscape:zoom="2.36"
     inkscape:cx="0.63559322"
     inkscape:cy="50"
     inkscape:window-x="49"
     inkscape:window-y="24"
     inkscape:window-maximized="0"
     inkscape:current-layer="svg4" /><path
     d="M83.949,111.729H53.836V94.396c22.348-1.993,39.928-20.773,39.928-43.585c0-19.644-11.745-46.113-12.245-47.23  c-0.563-1.26-1.814-2.07-3.194-2.07H21.796c-1.385,0-2.639,0.816-3.2,2.083C18.083,4.749,6.042,32.152,6.042,50.81  c0,23.106,18.037,42.074,40.795,43.651v17.268H15.723c-1.933,0-3.5,1.567-3.5,3.5s1.567,3.5,3.5,3.5h68.226  c1.933,0,3.5-1.567,3.5-3.5S85.882,111.729,83.949,111.729z M24.113,8.509h51.899c2.716,6.527,10.751,27.128,10.751,42.301  c0,4.669-0.887,9.133-2.484,13.247H15.526c-1.599-4.113-2.485-8.577-2.485-13.247C13.042,36.425,21.347,15.184,24.113,8.509z"
     id="path2"
     style="fill:#b3b3b3" /></svg>