<?xml version="1.0" encoding="UTF-8" standalone="no"?>
<!-- Created with Inkscape (http://www.inkscape.org/) -->

<svg
   xmlns:dc="http://purl.org/dc/elements/1.1/"
   xmlns:cc="http://creativecommons.org/ns#"
   xmlns:rdf="http://www.w3.org/1999/02/22-rdf-syntax-ns#"
   xmlns:svg="http://www.w3.org/2000/svg"
   xmlns="http://www.w3.org/2000/svg"
   xmlns:sodipodi="http://sodipodi.sourceforge.net/DTD/sodipodi-0.dtd"
   xmlns:inkscape="http://www.inkscape.org/namespaces/inkscape"
   width="4.5772367mm"
   height="4.6233706mm"
   viewBox="0 0 16.218555 16.382023"
   id="svg2"
   version="1.1"
   inkscape:version="0.91 r13725"
   sodipodi:docname="icon-meat.svg">
  <defs
     id="defs4" />
  <sodipodi:namedview
     id="base"
     pagecolor="#ffffff"
     bordercolor="#666666"
     borderopacity="1.0"
     inkscape:pageopacity="0.0"
     inkscape:pageshadow="2"
     inkscape:zoom="22.4"
     inkscape:cx="4.6948251"
     inkscape:cy="1.3831757"
     inkscape:document-units="px"
     inkscape:current-layer="layer1"
     showgrid="false"
     fit-margin-top="0"
     fit-margin-left="0"
     fit-margin-right="0"
     fit-margin-bottom="0"
     inkscape:window-width="1871"
     inkscape:window-height="1056"
     inkscape:window-x="49"
     inkscape:window-y="24"
     inkscape:window-maximized="1" />
  <metadata
     id="metadata7">
    <rdf:RDF>
      <cc:Work
         rdf:about="">
        <dc:format>image/svg+xml</dc:format>
        <dc:type
           rdf:resource="http://purl.org/dc/dcmitype/StillImage" />
        <dc:title></dc:title>
      </cc:Work>
    </rdf:RDF>
  </metadata>
  <g
     inkscape:label="Calque 1"
     inkscape:groupmode="layer"
     id="layer1"
     transform="translate(-102.0157,-126.14799)">
    <g
       inkscape:export-ydpi="443.94"
       inkscape:export-xdpi="443.94"
       transform="matrix(0.49160877,0,0,-0.49160877,118.10547,130.23228)"
       id="g14567"
       style="display:inline;fill:#b4b4b4;fill-opacity:1">
      <path
         inkscape:connector-curvature="0"
         id="path14569"
         style="fill:#b4b4b4;fill-opacity:1;fill-rule:nonzero;stroke:none"
         d="m 0,0 c -0.761,2.151 -3.053,0.771 -4.716,0.397 -0.711,-0.159 -1.44,-0.236 -2.592,-0.419 1.929,2.692 4,4.975 2.28,8.33 -4.045,-8.116 -18.056,-8.214 -22.549,-0.048 -1.441,-3.305 0.339,-5.645 2.716,-8.456 -1.653,0.379 -2.511,0.571 -3.366,0.772 -1.446,0.34 -3.279,1.22 -4.184,-0.23 -0.91,-1.457 0.239,-4.587 2.116,-4.963 5.528,-1.105 3.981,-2.132 4.161,-6.345 0.076,-1.762 2.192,-7.503 4.073,-8.34 0.166,-1.732 -0.364,-3.985 1.494,-4.727 3.207,-1.282 4.574,-1.149 7.88,-0.533 2.965,0.553 2.297,3.915 2.397,5.147 2.802,2.022 4.252,5.463 4.089,8.756 -0.122,2.46 -0.496,4.426 3.159,4.895 C -0.437,-5.429 0.854,-2.413 0,0 m -21.409,-10.126 c -1.97,1.608 -1.814,2.856 -0.674,4.558 1.399,-1.465 1.116,-2.719 0.674,-4.558 m 11.179,0.142 c -0.953,1.517 -0.645,2.675 -0.032,4.273 1.848,-1.695 1.366,-2.846 0.032,-4.273" />
    </g>
  </g>
</svg>
