<?xml version="1.0" encoding="UTF-8" standalone="no"?>
<svg
   xmlns:dc="http://purl.org/dc/elements/1.1/"
   xmlns:cc="http://creativecommons.org/ns#"
   xmlns:rdf="http://www.w3.org/1999/02/22-rdf-syntax-ns#"
   xmlns:svg="http://www.w3.org/2000/svg"
   xmlns="http://www.w3.org/2000/svg"
   xmlns:sodipodi="http://sodipodi.sourceforge.net/DTD/sodipodi-0.dtd"
   xmlns:inkscape="http://www.inkscape.org/namespaces/inkscape"
   height="100px"
   width="100px"
   fill="#000000"
   version="1.1"
   x="0px"
   y="0px"
   viewBox="0 0 1000 1000"
   enable-background="new 0 0 1000 1000"
   xml:space="preserve"
   id="svg4"
   sodipodi:docname="icon-champagne.svg"
   inkscape:version="0.92.5 (0.92.5+68)"><metadata
     id="metadata10"><rdf:RDF><cc:Work
         rdf:about=""><dc:format>image/svg+xml</dc:format><dc:type
           rdf:resource="http://purl.org/dc/dcmitype/StillImage" /></cc:Work></rdf:RDF></metadata><defs
     id="defs8" /><sodipodi:namedview
     pagecolor="#ffffff"
     bordercolor="#666666"
     borderopacity="1"
     objecttolerance="10"
     gridtolerance="10"
     guidetolerance="10"
     inkscape:pageopacity="0"
     inkscape:pageshadow="2"
     inkscape:window-width="1477"
     inkscape:window-height="589"
     id="namedview6"
     showgrid="false"
     inkscape:zoom="2.36"
     inkscape:cx="0.63559322"
     inkscape:cy="50"
     inkscape:window-x="49"
     inkscape:window-y="24"
     inkscape:window-maximized="0"
     inkscape:current-layer="svg4" /><path
     fill="#000000"
     d="M509.2,831.1c0-20,0.1-121.6,0.1-200.1c0-75.4,38.7-207.8,69.4-321.4c24-86.5,48-182.8,58.1-213.9  c1.4-4.3-1.8-8.7-6.3-8.7H367.6c-4.5,0-7.7,4.4-6.3,8.7c10.1,31.1,34.2,127.3,58.2,213.8c30.8,113.6,69.7,246.1,69.7,321.5  c0,78.6-0.1,180.2-0.1,200.2c-76.7,2.6-144.6,19.6-144.6,40.2c0,22.4,69.6,40.5,155.3,40.5s155.4-18.2,155.4-40.5  C655.3,850.7,587,833.6,509.2,831.1z"
     id="path2"
     style="fill:#cccccc" /></svg>