<svg height='100px' width='100px'  fill="#000000" xmlns="http://www.w3.org/2000/svg" xmlns:xlink="http://www.w3.org/1999/xlink" version="1.1" x="0px" y="0px" viewBox="0 0 1000 1000" enable-background="new 0 0 1000 1000" xml:space="preserve"><path fill="#000000" d="M509.2,831.1c0-20,0.1-121.6,0.1-200.1c0-75.4,38.7-207.8,69.4-321.4c24-86.5,48-182.8,58.1-213.9  c1.4-4.3-1.8-8.7-6.3-8.7H367.6c-4.5,0-7.7,4.4-6.3,8.7c10.1,31.1,34.2,127.3,58.2,213.8c30.8,113.6,69.7,246.1,69.7,321.5  c0,78.6-0.1,180.2-0.1,200.2c-76.7,2.6-144.6,19.6-144.6,40.2c0,22.4,69.6,40.5,155.3,40.5s155.4-18.2,155.4-40.5  C655.3,850.7,587,833.6,509.2,831.1z"></path></svg>