<?xml version="1.0" encoding="UTF-8" standalone="no"?>
<svg
   id="svg2117"
   version="1.1"
   viewBox="0 0 159.44495 56.870289"
   height="56.870289mm"
   width="159.44495mm"
   sodipodi:docname="k-puce.svg"
   inkscape:version="1.2.2 (732a01da63, 2022-12-09, custom)"
   xmlns:inkscape="http://www.inkscape.org/namespaces/inkscape"
   xmlns:sodipodi="http://sodipodi.sourceforge.net/DTD/sodipodi-0.dtd"
   xmlns="http://www.w3.org/2000/svg"
   xmlns:svg="http://www.w3.org/2000/svg"
   xmlns:rdf="http://www.w3.org/1999/02/22-rdf-syntax-ns#"
   xmlns:cc="http://creativecommons.org/ns#"
   xmlns:dc="http://purl.org/dc/elements/1.1/">
  <sodipodi:namedview
     id="namedview167"
     pagecolor="#ffffff"
     bordercolor="#000000"
     borderopacity="0.25"
     inkscape:showpageshadow="2"
     inkscape:pageopacity="0.0"
     inkscape:pagecheckerboard="0"
     inkscape:deskcolor="#d1d1d1"
     inkscape:document-units="mm"
     showgrid="false"
     inkscape:zoom="1.2293391"
     inkscape:cx="237.11928"
     inkscape:cy="-30.504196"
     inkscape:window-width="1854"
     inkscape:window-height="1016"
     inkscape:window-x="0"
     inkscape:window-y="0"
     inkscape:window-maximized="1"
     inkscape:current-layer="g4334" />
  <defs
     id="defs2111" />
  <metadata
     id="metadata2114">
    <rdf:RDF>
      <cc:Work
         rdf:about="">
        <dc:format>image/svg+xml</dc:format>
        <dc:type
           rdf:resource="http://purl.org/dc/dcmitype/StillImage" />
      </cc:Work>
    </rdf:RDF>
  </metadata>
  <g
     transform="translate(-102.46205,89.000621)"
     id="layer1">
    <g
       id="g4642"
       inkscape:export-filename="../3b5d780e/k-dev-md.png"
       inkscape:export-xdpi="41.310001"
       inkscape:export-ydpi="41.310001">
      <g
         id="g4334"
         style="fill:#6600ad;fill-opacity:0.81568629"
         transform="matrix(0.69507375,0,0,0.69507375,218.50617,54.512995)">
        <rect
           style="fill:#6600ad;fill-opacity:0.81568629;fill-rule:evenodd;stroke:none"
           id="rect4336"
           width="9.2037649"
           height="9.3097134"
           x="-139.69701"
           y="-286.01212"
           ry="0" />
        <rect
           style="fill:#6600ad;fill-opacity:0.81568629;fill-rule:evenodd;stroke:none"
           id="rect4338"
           width="9.2037649"
           height="9.3097134"
           x="-121.44362"
           y="-267.26703"
           ry="0" />
        <rect
           style="fill:#6600ad;fill-opacity:0.81568629;fill-rule:evenodd;stroke:none"
           id="rect4340"
           width="9.2037649"
           height="9.3097134"
           x="-130.6409"
           y="-295.42407"
           ry="0" />
        <rect
           style="fill:#6600ad;fill-opacity:0.81568629;fill-rule:evenodd;stroke:none"
           id="rect4342"
           width="9.2037649"
           height="9.3097134"
           x="-121.64099"
           y="-304.64587"
           ry="0" />
        <rect
           style="fill:#6600ad;fill-opacity:0.81568629;fill-rule:evenodd;stroke:none"
           id="rect4344"
           width="9.2037649"
           height="9.3097134"
           x="-130.6409"
           y="-276.55258"
           ry="0" />
        <rect
           style="fill:#6600ad;fill-opacity:0.81568629;fill-rule:evenodd;stroke:none"
           id="rect4346"
           width="9.2037649"
           height="9.3097134"
           x="-148.91203"
           y="-267.25317"
           ry="0" />
        <rect
           style="fill:#6600ad;fill-opacity:0.81568629;fill-rule:evenodd;stroke:none"
           id="rect4348"
           width="9.2037649"
           height="9.3097134"
           x="-148.91203"
           y="-276.60965"
           ry="0" />
        <rect
           style="fill:#6600ad;fill-opacity:0.81568629;fill-rule:evenodd;stroke:none"
           id="rect4350"
           width="9.2037649"
           height="9.3097134"
           x="-148.91203"
           y="-295.42407"
           ry="0" />
        <rect
           style="fill:#6600ad;fill-opacity:0.81568629;fill-rule:evenodd;stroke:none"
           id="rect4352"
           width="9.2037649"
           height="9.3097134"
           x="-148.91203"
           y="-304.74619"
           ry="0" />
        <rect
           ry="0"
           y="-286.01212"
           x="-148.91203"
           height="9.3097134"
           width="9.2037649"
           id="rect4354"
           style="fill:#6600ad;fill-opacity:0.81568629;fill-rule:evenodd;stroke:none" />
        <rect
           style="fill:#6600ad;fill-opacity:0.815686;fill-rule:evenodd;stroke:none"
           id="rect4708"
           width="9.2037649"
           height="9.3097134"
           x="-148.91243"
           y="-314.16898"
           ry="0" />
      </g>
      <rect
         style="display:inline;fill:#f7941e;fill-opacity:1;stroke:none;stroke-width:1.49778"
         id="rect4364"
         width="7.380003"
         height="7.380003"
         x="-173.00813"
         y="-107.19993"
         transform="rotate(90)" />
      <rect
         style="font-style:normal;font-variant:normal;font-weight:normal;font-stretch:condensed;font-size:13px;line-height:125%;font-family:Impact;-inkscape-font-specification:'Impact Condensed';text-align:start;writing-mode:lr-tb;text-anchor:start;display:inline;fill:#00a79d;fill-opacity:1;stroke:none;stroke-width:1.49778"
         id="rect4370"
         width="7.380003"
         height="7.380003"
         x="-284.26001"
         y="165.62814"
         transform="scale(-1)" />
      <rect
         style="display:inline;fill:#e5e7ea;fill-opacity:1;stroke:none;stroke-width:1.49778"
         id="rect4372"
         width="7.380003"
         height="7.380003"
         x="-116.45667"
         y="-115.27872"
         transform="rotate(90)" />
      <rect
         style="display:inline;fill:#e5e7ea;fill-opacity:1;stroke:none;stroke-width:1.49778"
         id="rect4374"
         width="7.380003"
         height="7.380003"
         x="-116.45667"
         y="-147.45924"
         transform="rotate(90)" />
      <rect
         style="display:inline;fill:#e5e7ea;fill-opacity:1;stroke:none;stroke-width:1.49778"
         id="rect4376"
         width="7.380003"
         height="7.380003"
         x="-116.45667"
         y="-131.36897"
         transform="rotate(90)" />
      <rect
         style="display:inline;fill:#e5e7ea;fill-opacity:1;stroke:none;stroke-width:1.49778"
         id="rect4378"
         width="7.380003"
         height="7.380003"
         x="-116.45667"
         y="-107.19993"
         transform="rotate(90)" />
      <rect
         style="display:inline;fill:#e5e7ea;fill-opacity:1;stroke:none;stroke-width:1.49778"
         id="rect4380"
         width="7.380003"
         height="7.380003"
         x="-116.45667"
         y="-139.41411"
         transform="rotate(90)" />
      <rect
         style="display:inline;fill:#e5e7ea;fill-opacity:1;stroke:none;stroke-width:1.49778"
         id="rect4382"
         width="7.380003"
         height="7.380003"
         x="-116.45667"
         y="-123.32384"
         transform="rotate(90)" />
      <rect
         style="font-style:normal;font-variant:normal;font-weight:normal;font-stretch:condensed;font-size:13px;line-height:125%;font-family:Impact;-inkscape-font-specification:'Impact Condensed';text-align:start;writing-mode:lr-tb;text-anchor:start;display:inline;fill:#da1c5c;fill-opacity:1;stroke:none;stroke-width:1.49778"
         id="rect4384"
         width="7.380003"
         height="7.380003"
         x="-284.26001"
         y="109.07668"
         transform="scale(-1)" />
      <rect
         style="display:inline;fill:#e5e7ea;fill-opacity:1;stroke:none;stroke-width:1.49778"
         id="rect4386"
         width="7.380003"
         height="7.380003"
         x="276.88007"
         y="-124.53545" />
      <rect
         style="display:inline;fill:#e5e7ea;fill-opacity:1;stroke:none;stroke-width:1.49778"
         id="rect4388"
         width="7.380003"
         height="7.380003"
         x="276.88007"
         y="-148.7718" />
      <rect
         style="display:inline;fill:#e5e7ea;fill-opacity:1;stroke:none;stroke-width:1.49778"
         id="rect4390"
         width="7.380003"
         height="7.380003"
         x="-156.85059"
         y="-284.26001"
         transform="rotate(90)" />
      <rect
         style="display:inline;fill:#e5e7ea;fill-opacity:1;stroke:none;stroke-width:1.49778"
         id="rect4392"
         width="7.380003"
         height="7.380003"
         x="-132.61426"
         y="-284.26001"
         transform="rotate(90)" />
      <rect
         style="display:inline;fill:#e5e7ea;fill-opacity:1;stroke:none;stroke-width:1.49778"
         id="rect4394"
         width="7.380003"
         height="7.380003"
         x="-140.69302"
         y="-284.26001"
         transform="rotate(90)" />
      <rect
         style="display:inline;fill:#e5e7ea;fill-opacity:1;stroke:none;stroke-width:1.49778"
         id="rect4396"
         width="7.380003"
         height="7.380003"
         x="-164.92937"
         y="-284.26001"
         transform="rotate(90)" />
      <rect
         style="display:inline;fill:#e5e7ea;fill-opacity:1;stroke:none;stroke-width:1.49778"
         id="rect4398"
         width="7.380003"
         height="7.380003"
         x="99.819893"
         y="-132.61424" />
      <rect
         style="display:inline;fill:#e5e7ea;fill-opacity:1;stroke:none;stroke-width:1.49778"
         id="rect4400"
         width="7.380003"
         height="7.380003"
         x="-107.19993"
         y="141.39178"
         transform="scale(-1)" />
      <rect
         style="display:inline;fill:#e5e7ea;fill-opacity:1;stroke:none;stroke-width:1.49778"
         id="rect4402"
         width="7.380003"
         height="7.380003"
         x="99.819893"
         y="-124.53545" />
      <rect
         style="display:inline;fill:#e5e7ea;fill-opacity:1;stroke:none;stroke-width:1.49778"
         id="rect4404"
         width="7.380003"
         height="7.380003"
         x="-156.85057"
         y="-107.19993"
         transform="rotate(90)" />
      <rect
         style="display:inline;fill:#e5e7ea;fill-opacity:1;stroke:none;stroke-width:1.49778"
         id="rect4406"
         width="7.380003"
         height="7.380003"
         x="-107.19993"
         y="157.54936"
         transform="scale(-1)" />
      <rect
         style="display:inline;fill:#e5e7ea;fill-opacity:1;stroke:none;stroke-width:1.49778"
         id="rect4408"
         width="7.380003"
         height="7.380003"
         x="-107.19993"
         y="133.313"
         transform="scale(-1)" />
      <path
         style="display:inline;fill:#6600ad;fill-opacity:0.81568629;stroke:none;stroke-width:1.49778"
         d="m 99.987956,-112.76705 v -3.59169 h 3.591684 3.59168 v 3.59169 3.59168 h -3.59168 -3.591684 z"
         id="path4410"
         inkscape:connector-curvature="0" />
      <path
         style="display:inline;fill:#4d4d4d;fill-opacity:1;stroke-width:0.536608"
         id="path1197-9"
         d="m 246.24231,-125.84868 c -0.37564,0 -0.69761,-0.10733 -0.9659,-0.37562 -0.2683,-0.26831 -0.37562,-0.59026 -0.37562,-0.9659 0,-0.37562 0.16098,-0.75125 0.42929,-1.07322 0.2683,-0.32196 0.64392,-0.48294 1.01953,-0.48294 0.37565,0 0.69762,0.16098 0.96591,0.42928 0.2683,0.26831 0.37563,0.59028 0.37563,0.9659 0,0.42929 -0.16098,0.75125 -0.4293,1.07322 -0.21462,0.2683 -0.59027,0.42928 -1.01954,0.42928"
         class="st0" />
      <path
         style="display:inline;fill:#4d4d4d;fill-opacity:1;stroke-width:0.536608"
         id="path1199-1"
         d="m 259.33553,-134.86369 -1.18055,1.07322 c -0.32195,-0.32196 -0.69758,-0.59027 -1.12685,-0.6976 -0.4293,-0.16098 -0.91224,-0.21464 -1.39521,-0.21464 -1.01953,0 -1.87811,0.32197 -2.52204,1.01955 -0.64393,0.6976 -1.01954,1.55617 -1.01954,2.57573 0,1.28785 0.5366,2.25375 1.66347,2.95134 0.64391,0.42929 1.28785,0.59027 1.98546,0.59027 0.42927,0 0.91224,-0.10732 1.34152,-0.26831 0.42928,-0.21464 0.75124,-0.42929 1.01954,-0.80491 l 1.12689,1.18053 c -0.4293,0.48295 -0.96591,0.85858 -1.60983,1.12688 -0.69758,0.26831 -1.34153,0.42929 -1.98547,0.42929 -1.44882,0 -2.68301,-0.5366 -3.6489,-1.55617 -0.96591,-1.01955 -1.44885,-2.30741 -1.44885,-3.80991 0,-1.44884 0.48294,-2.7367 1.39517,-3.75625 0.91223,-1.01955 2.09277,-1.5025 3.54162,-1.5025 0.75125,0 1.39518,0.10732 2.03911,0.37562 0.64391,0.37562 1.2342,0.75126 1.82446,1.28786"
         class="st0" />
      <path
         style="display:inline;fill:#4d4d4d;fill-opacity:1;stroke-width:0.536608"
         id="path1201-2"
         d="m 264.54063,-126.11699 h -1.77081 v -16.31287 h 1.77081 v 6.06367 0.32197 c 0.0537,0.16098 0.10732,0.21464 0.21464,0.21464 0.0537,0 0.21464,-0.0537 0.42929,-0.10733 0.21465,-0.0537 0.32198,-0.10731 0.32198,-0.10731 0.2683,-0.10733 0.64392,-0.21464 1.01953,-0.26831 0.37562,-0.0537 0.80491,-0.10733 1.18055,-0.10733 1.07321,0 1.98544,0.37564 2.7367,1.07322 0.75124,0.69759 1.12685,1.60983 1.12685,2.68304 v 6.60028 h -1.77078 v -5.79537 c 0,-0.80491 -0.16098,-1.5025 -0.53661,-2.0391 -0.42927,-0.64393 -1.01957,-0.9659 -1.7708,-0.9659 -0.75127,0 -1.39519,0.26831 -1.98544,0.85857 -0.59029,0.53662 -0.85859,1.18054 -0.85859,1.93179 v 5.95634 z"
         class="st0" />
      <path
         id="path1210-9"
         class="st0"
         d="m 163.06809,-132.66359 c -0.10732,-0.75126 -0.21464,-1.55617 -0.37562,-2.36108 -0.10732,-0.85857 -0.21464,-1.44884 -0.32197,-1.77081 -0.32196,-1.93178 -1.34152,-3.5416 -3.00499,-4.72215 -1.6635,-1.23419 -3.48797,-1.82446 -5.52706,-1.82446 -2.57573,0 -4.72217,0.91223 -6.49296,2.7367 -1.77082,1.82446 -2.62938,4.02455 -2.62938,6.54661 0,2.52206 0.85856,4.72215 2.62938,6.60027 1.77079,1.87814 3.91723,2.79036 6.38563,2.79036 1.23419,0 2.36107,-0.21464 3.32697,-0.64391 0.85857,-0.37564 1.66348,-0.85858 2.52206,-1.55617 l 0.2683,1.82446 h 4.40017 z m -12.77125,-4.99046 c 0.96588,-1.01955 2.14641,-1.5025 3.59526,-1.5025 1.44885,0 2.57571,0.48295 3.59527,1.55616 0.9659,1.01955 1.44884,2.30741 1.44884,3.7026 0,1.39518 -0.48294,2.62937 -1.44884,3.59527 -0.96589,1.01955 -2.09277,1.5025 -3.54162,1.5025 -1.44883,0 -2.62936,-0.48295 -3.64891,-1.5025 -0.96591,-1.01956 -1.44885,-2.25376 -1.44885,-3.7026 0,-1.39517 0.48294,-2.62938 1.44885,-3.64893 z"
         style="display:inline;fill:#4d4d4d;fill-opacity:1;stroke-width:0.536608" />
      <path
         id="path1212-3"
         class="st0"
         d="m 175.35641,-143.23477 c -0.75124,0 -1.44883,0.10733 -2.0391,0.26831 -0.48294,0.16097 -1.2342,0.5366 -2.14643,1.18053 0,-0.10732 0,-0.21465 0,-0.32196 v -0.85857 l -4.13188,0.0536 v 17.9227 h 4.13188 v -9.76626 c 0,-0.85857 0.10732,-1.5025 0.32196,-2.03911 0.21465,-0.48295 0.59027,-1.01955 1.18054,-1.44884 0.59026,-0.42929 1.18053,-0.69759 1.71714,-0.69759 l 1.2342,0.16098 v -4.45385 z"
         style="display:inline;fill:#4d4d4d;fill-opacity:1;stroke-width:0.536608" />
      <path
         style="display:inline;fill:#4d4d4d;fill-opacity:1;stroke-width:0.536608"
         d="m 180.50784,-144.36165 c 0.69759,0 1.23421,-0.2683 1.6635,-0.80491 0.42927,-0.5366 0.64391,-1.12688 0.64391,-1.77081 0,-0.69758 -0.21464,-1.28786 -0.64391,-1.82446 -0.42929,-0.53661 -1.01956,-0.80491 -1.6635,-0.80491 -0.69759,0 -1.28785,0.2683 -1.71714,0.80491 -0.37562,0.5366 -0.59027,1.12688 -0.59027,1.82446 0,0.69759 0.21465,1.34152 0.64394,1.82447 0.42927,0.48295 0.96588,0.75125 1.66347,0.75125 z"
         class="st0"
         id="path1214-6" />
      <rect
         style="display:inline;fill:#4d4d4d;fill-opacity:1;stroke-width:0.536608"
         height="18.191004"
         width="3.8099148"
         class="st0"
         y="-143.12744"
         x="178.62964"
         id="rect1216-0" />
      <path
         id="path1218-6"
         class="st0"
         d="m 202.02582,-140.71272 c -1.77081,-1.87812 -3.91723,-2.84401 -6.54661,-2.84401 -0.85858,0 -1.87814,0.16098 -2.8977,0.48294 -0.80491,0.2683 -1.44883,0.53661 -1.93177,0.91223 v -11.42975 h -4.29287 v 19.37155 c 0,2.62938 0.91223,4.88313 2.68305,6.7076 1.7708,1.82446 4.02455,2.79036 6.60027,2.79036 2.52205,0 4.66849,-0.91223 6.38563,-2.79036 1.71715,-1.82447 2.62938,-4.02456 2.62938,-6.54662 -0.0537,-2.52206 -0.91223,-4.77581 -2.62938,-6.65394 z m -1.39517,6.65394 c 0,1.39519 -0.48297,2.62938 -1.44885,3.64893 -0.96589,1.01957 -2.14644,1.55617 -3.48795,1.55617 -1.44884,0 -2.62938,-0.48295 -3.59528,-1.55617 -0.96589,-1.01955 -1.44883,-2.25374 -1.44883,-3.75625 0,-1.44883 0.48294,-2.68304 1.44883,-3.70259 0.9659,-1.01956 2.14644,-1.55617 3.59528,-1.55617 1.39518,0 2.57571,0.53661 3.54162,1.60983 0.91221,1.07322 1.39518,2.36108 1.39518,3.75625 z"
         style="display:inline;fill:#4d4d4d;fill-opacity:1;stroke-width:0.536608" />
      <path
         id="path1220-2"
         class="st0"
         d="m 237.87121,-142.9128 v 10.46385 c 0,1.01955 -0.37562,1.87812 -1.07321,2.62937 -0.75124,0.69759 -1.55614,1.07322 -2.57571,1.07322 -0.9659,0 -1.82446,-0.32196 -2.57573,-0.96589 -0.75123,-0.64393 -1.12688,-1.39518 -1.12688,-2.36108 v -10.83947 h -4.29285 v 11.80537 c 0,2.03911 0.91224,3.70259 2.62938,4.93679 1.55616,1.07321 3.38062,1.66349 5.41973,1.66349 2.03912,0 3.80992,-0.59028 5.31242,-1.66349 1.71714,-1.28787 2.57573,-2.89768 2.57573,-4.88314 v -11.80537 h -4.29288 z"
         style="display:inline;fill:#4d4d4d;fill-opacity:1;stroke-width:0.536608" />
      <path
         style="display:inline;fill:#4d4d4d;fill-opacity:1;stroke-width:0.539082"
         d="m 224.33552,-134.18442 c -0.0147,-2.51308 -1.08195,-4.81672 -2.59459,-6.62762 -1.51266,-1.8109 -4.48886,-2.75283 -6.52798,-2.75283 -2.5757,0 -4.72215,0.92067 -6.49296,2.76199 -1.77079,1.84134 -2.62936,4.06177 -2.62936,6.60714 0,2.54537 0.85857,4.7658 2.62936,6.66129 1.77081,1.89549 3.91726,2.81615 6.38565,2.81615 3.15783,-0.0533 4.89053,-0.8921 6.67904,-2.81387 1.78851,-1.92176 2.5656,-4.13917 2.55084,-6.65225 z m -12.66417,-3.63983 c 0.9659,-1.02897 2.14643,-1.51639 3.59528,-1.51639 1.44882,0 2.57571,0.48742 3.59527,1.57055 0.96587,1.02898 1.44884,2.32875 1.44884,3.73681 0,1.40808 -0.48297,2.6537 -1.44884,3.62851 -0.96589,1.02898 -2.09277,1.5164 -3.54162,1.5164 -1.44885,0 -2.62938,-0.48742 -3.64893,-1.5164 -0.96589,-1.02897 -1.44884,-2.27459 -1.44884,-3.73681 0,-1.40808 0.48295,-2.65368 1.44884,-3.68267 z"
         class="st0"
         id="path1222-6" />
      <rect
         style="display:inline;fill:#e5e7ea;fill-opacity:1;stroke:none;stroke-width:1.49778"
         id="rect2901"
         width="7.380003"
         height="7.380003"
         x="-116.45667"
         y="-155.50436"
         transform="rotate(90)" />
      <rect
         style="display:inline;fill:#e5e7ea;fill-opacity:1;stroke:none;stroke-width:1.49778"
         id="rect2903"
         width="7.380003"
         height="7.380003"
         x="-116.45667"
         y="-187.68489"
         transform="rotate(90)" />
      <rect
         style="display:inline;fill:#e5e7ea;fill-opacity:1;stroke:none;stroke-width:1.49778"
         id="rect2905"
         width="7.380003"
         height="7.380003"
         x="-116.45667"
         y="-171.59464"
         transform="rotate(90)" />
      <rect
         style="display:inline;fill:#e5e7ea;fill-opacity:1;stroke:none;stroke-width:1.49778"
         id="rect2907"
         width="7.380003"
         height="7.380003"
         x="-116.45667"
         y="-179.63977"
         transform="rotate(90)" />
      <rect
         style="display:inline;fill:#e5e7ea;fill-opacity:1;stroke:none;stroke-width:1.49778"
         id="rect2909"
         width="7.380003"
         height="7.380003"
         x="-116.45667"
         y="-163.5495"
         transform="rotate(90)" />
      <rect
         style="display:inline;fill:#e5e7ea;fill-opacity:1;stroke:none;stroke-width:1.49778"
         id="rect2911"
         width="7.380003"
         height="7.380003"
         x="-116.45667"
         y="-195.73003"
         transform="rotate(90)" />
      <rect
         style="display:inline;fill:#e5e7ea;fill-opacity:1;stroke:none;stroke-width:1.49778"
         id="rect2913"
         width="7.380003"
         height="7.380003"
         x="-116.45667"
         y="-227.91055"
         transform="rotate(90)" />
      <rect
         style="display:inline;fill:#e5e7ea;fill-opacity:1;stroke:none;stroke-width:1.49778"
         id="rect2915"
         width="7.380003"
         height="7.380003"
         x="-116.45667"
         y="-211.82028"
         transform="rotate(90)" />
      <rect
         style="display:inline;fill:#e5e7ea;fill-opacity:1;stroke:none;stroke-width:1.49778"
         id="rect2917"
         width="7.380003"
         height="7.380003"
         x="-116.45667"
         y="-219.86542"
         transform="rotate(90)" />
      <rect
         style="display:inline;fill:#e5e7ea;fill-opacity:1;stroke:none;stroke-width:1.49778"
         id="rect2919"
         width="7.380003"
         height="7.380003"
         x="-116.45667"
         y="-203.77516"
         transform="rotate(90)" />
      <rect
         style="display:inline;fill:#e5e7ea;fill-opacity:1;stroke:none;stroke-width:1.49778"
         id="rect2921"
         width="7.380003"
         height="7.380003"
         x="-116.45667"
         y="-235.95569"
         transform="rotate(90)" />
      <rect
         style="display:inline;fill:#e5e7ea;fill-opacity:1;stroke:none;stroke-width:1.49778"
         id="rect2923"
         width="7.380003"
         height="7.380003"
         x="-116.45667"
         y="-268.1362"
         transform="rotate(90)" />
      <rect
         style="display:inline;fill:#e5e7ea;fill-opacity:1;stroke:none;stroke-width:1.49778"
         id="rect2925"
         width="7.380003"
         height="7.380003"
         x="-116.45667"
         y="-252.04594"
         transform="rotate(90)" />
      <rect
         style="display:inline;fill:#e5e7ea;fill-opacity:1;stroke:none;stroke-width:1.49778"
         id="rect2927"
         width="7.380003"
         height="7.380003"
         x="-116.45667"
         y="-260.09106"
         transform="rotate(90)" />
      <rect
         style="display:inline;fill:#e5e7ea;fill-opacity:1;stroke:none;stroke-width:1.49778"
         id="rect2929"
         width="7.380003"
         height="7.380003"
         x="-116.45667"
         y="-244.00081"
         transform="rotate(90)" />
      <rect
         style="display:inline;fill:#e5e7ea;fill-opacity:1;stroke:none;stroke-width:1.49778"
         id="rect2931"
         width="7.380003"
         height="7.380003"
         x="-116.45667"
         y="-276.18134"
         transform="rotate(90)" />
      <rect
         style="display:inline;fill:#e5e7ea;fill-opacity:1;stroke:none;stroke-width:1.49778"
         id="rect3830"
         width="7.380003"
         height="7.380003"
         x="-173.07748"
         y="-115.27872"
         transform="rotate(90)" />
      <rect
         style="display:inline;fill:#e5e7ea;fill-opacity:1;stroke:none;stroke-width:1.49778"
         id="rect3832"
         width="7.380003"
         height="7.380003"
         x="-173.07748"
         y="-147.45924"
         transform="rotate(90)" />
      <rect
         style="display:inline;fill:#e5e7ea;fill-opacity:1;stroke:none;stroke-width:1.49778"
         id="rect3834"
         width="7.380003"
         height="7.380003"
         x="-173.07748"
         y="-131.36897"
         transform="rotate(90)" />
      <rect
         style="display:inline;fill:#e5e7ea;fill-opacity:1;stroke:none;stroke-width:1.49778"
         id="rect3836"
         width="7.380003"
         height="7.380003"
         x="-173.07748"
         y="-139.41411"
         transform="rotate(90)" />
      <rect
         style="display:inline;fill:#e5e7ea;fill-opacity:1;stroke:none;stroke-width:1.49778"
         id="rect3838"
         width="7.380003"
         height="7.380003"
         x="-173.07748"
         y="-123.32384"
         transform="rotate(90)" />
      <rect
         style="display:inline;fill:#e5e7ea;fill-opacity:1;stroke:none;stroke-width:1.49778"
         id="rect3840"
         width="7.380003"
         height="7.380003"
         x="-173.07748"
         y="-155.50436"
         transform="rotate(90)" />
      <rect
         style="display:inline;fill:#e5e7ea;fill-opacity:1;stroke:none;stroke-width:1.49778"
         id="rect3842"
         width="7.380003"
         height="7.380003"
         x="-173.07748"
         y="-187.68489"
         transform="rotate(90)" />
      <rect
         style="display:inline;fill:#e5e7ea;fill-opacity:1;stroke:none;stroke-width:1.49778"
         id="rect3844"
         width="7.380003"
         height="7.380003"
         x="-173.07748"
         y="-171.59464"
         transform="rotate(90)" />
      <rect
         style="display:inline;fill:#e5e7ea;fill-opacity:1;stroke:none;stroke-width:1.49778"
         id="rect3846"
         width="7.380003"
         height="7.380003"
         x="-173.07748"
         y="-179.63977"
         transform="rotate(90)" />
      <rect
         style="display:inline;fill:#e5e7ea;fill-opacity:1;stroke:none;stroke-width:1.49778"
         id="rect3848"
         width="7.380003"
         height="7.380003"
         x="-173.07748"
         y="-163.5495"
         transform="rotate(90)" />
      <rect
         style="display:inline;fill:#e5e7ea;fill-opacity:1;stroke:none;stroke-width:1.49778"
         id="rect3850"
         width="7.380003"
         height="7.380003"
         x="-173.07748"
         y="-195.73003"
         transform="rotate(90)" />
      <rect
         style="display:inline;fill:#e5e7ea;fill-opacity:1;stroke:none;stroke-width:1.49778"
         id="rect3852"
         width="7.380003"
         height="7.380003"
         x="-173.07748"
         y="-227.91055"
         transform="rotate(90)" />
      <rect
         style="display:inline;fill:#e5e7ea;fill-opacity:1;stroke:none;stroke-width:1.49778"
         id="rect3854"
         width="7.380003"
         height="7.380003"
         x="-173.07748"
         y="-211.82028"
         transform="rotate(90)" />
      <rect
         style="display:inline;fill:#e5e7ea;fill-opacity:1;stroke:none;stroke-width:1.49778"
         id="rect3856"
         width="7.380003"
         height="7.380003"
         x="-173.07748"
         y="-219.86542"
         transform="rotate(90)" />
      <rect
         style="display:inline;fill:#e5e7ea;fill-opacity:1;stroke:none;stroke-width:1.49778"
         id="rect3858"
         width="7.380003"
         height="7.380003"
         x="-173.07748"
         y="-203.77516"
         transform="rotate(90)" />
      <rect
         style="display:inline;fill:#e5e7ea;fill-opacity:1;stroke:none;stroke-width:1.49778"
         id="rect3860"
         width="7.380003"
         height="7.380003"
         x="-173.07748"
         y="-235.95569"
         transform="rotate(90)" />
      <rect
         style="display:inline;fill:#e5e7ea;fill-opacity:1;stroke:none;stroke-width:1.49778"
         id="rect3862"
         width="7.380003"
         height="7.380003"
         x="-173.07748"
         y="-268.1362"
         transform="rotate(90)" />
      <rect
         style="display:inline;fill:#e5e7ea;fill-opacity:1;stroke:none;stroke-width:1.49778"
         id="rect3864"
         width="7.380003"
         height="7.380003"
         x="-173.07748"
         y="-252.04594"
         transform="rotate(90)" />
      <rect
         style="display:inline;fill:#e5e7ea;fill-opacity:1;stroke:none;stroke-width:1.49778"
         id="rect3866"
         width="7.380003"
         height="7.380003"
         x="-173.07748"
         y="-260.09106"
         transform="rotate(90)" />
      <rect
         style="display:inline;fill:#e5e7ea;fill-opacity:1;stroke:none;stroke-width:1.49778"
         id="rect3868"
         width="7.380003"
         height="7.380003"
         x="-173.07748"
         y="-244.00081"
         transform="rotate(90)" />
      <rect
         style="display:inline;fill:#e5e7ea;fill-opacity:1;stroke:none;stroke-width:1.49778"
         id="rect3870"
         width="7.380003"
         height="7.380003"
         x="-173.07748"
         y="-276.18134"
         transform="rotate(90)" />
    </g>
    <g
       id="g1211"
       transform="matrix(0.48878633,0,0,-0.48878633,109.20632,-48.943604)"
       style="display:inline;opacity:1;fill:#32b0a0;fill-opacity:1">
      <path
         d="m 0,0 c -8.534,8.695 -13.798,20.612 -13.798,33.758 0,26.617 21.577,48.194 48.194,48.194 26.617,0 48.195,-21.577 48.195,-48.194 C 82.591,20.601 77.319,8.697 68.772,0 L 34.396,-34.398 Z"
         style="fill:#32b0a0;fill-opacity:1;fill-rule:nonzero;stroke:none"
         id="path1209" />
    </g>
    <path
       style="display:inline;fill:#4d4d4d;fill-opacity:1;stroke-width:0.53660774"
       id="path1197"
       d="m 236.57914,-47.583151 c -0.37564,0 -0.69761,-0.107328 -0.9659,-0.375623 -0.2683,-0.268307 -0.37562,-0.590265 -0.37562,-0.965899 0,-0.375624 0.16098,-0.751247 0.42929,-1.073216 0.2683,-0.321961 0.64392,-0.482949 1.01953,-0.482949 0.37565,0 0.69762,0.160988 0.96591,0.429283 0.2683,0.268309 0.37563,0.590278 0.37563,0.965902 0,0.429286 -0.16098,0.751244 -0.4293,1.073216 -0.21462,0.268306 -0.59027,0.429286 -1.01954,0.429286"
       class="st0" />
    <path
       style="display:inline;fill:#4d4d4d;fill-opacity:1;stroke-width:0.53660774"
       id="path1199"
       d="m 249.67236,-56.598164 -1.18055,1.073216 c -0.32195,-0.321958 -0.69758,-0.590267 -1.12685,-0.697592 -0.4293,-0.160981 -0.91224,-0.214643 -1.39521,-0.214643 -1.01953,0 -1.87811,0.321968 -2.52204,1.01955 -0.64393,0.697595 -1.01954,1.556166 -1.01954,2.57573 0,1.287848 0.5366,2.253747 1.66347,2.951339 0.64391,0.429287 1.28785,0.590267 1.98546,0.590267 0.42927,0 0.91224,-0.107315 1.34152,-0.268306 0.42928,-0.214643 0.75124,-0.429286 1.01954,-0.80491 l 1.12689,1.180531 c -0.4293,0.482952 -0.96591,0.858573 -1.60983,1.126879 -0.69758,0.268309 -1.34153,0.429287 -1.98547,0.429287 -1.44882,0 -2.68301,-0.536602 -3.6489,-1.556166 -0.96591,-1.01955 -1.44885,-2.30741 -1.44885,-3.809912 0,-1.448838 0.48294,-2.736697 1.39517,-3.756248 0.91223,-1.019553 2.09277,-1.502502 3.54162,-1.502502 0.75125,0 1.39518,0.107315 2.03911,0.375621 0.64391,0.375623 1.2342,0.751258 1.82446,1.287859"
       class="st0" />
    <path
       style="display:inline;fill:#4d4d4d;fill-opacity:1;stroke-width:0.53660774"
       id="path1201"
       d="m 254.87746,-47.851459 h -1.77081 v -16.312878 h 1.77081 v 6.063671 0.321971 c 0.0537,0.16098 0.10732,0.214643 0.21464,0.214643 0.0537,0 0.21464,-0.05366 0.42929,-0.107328 0.21465,-0.05366 0.32198,-0.107315 0.32198,-0.107315 0.2683,-0.107328 0.64392,-0.214643 1.01953,-0.268306 0.37562,-0.05367 0.80491,-0.107328 1.18055,-0.107328 1.07321,0 1.98544,0.375634 2.7367,1.073216 0.75124,0.697592 1.12685,1.609828 1.12685,2.683044 v 6.600275 h -1.77078 v -5.795365 c 0,-0.80491 -0.16098,-1.502502 -0.53661,-2.039104 -0.42927,-0.643929 -1.01957,-0.965901 -1.7708,-0.965901 -0.75127,0 -1.39519,0.268306 -1.98544,0.858573 -0.59029,0.536615 -0.85859,1.180542 -0.85859,1.931789 v 5.956343 z"
       class="st0" />
    <g
       transform="matrix(0.391605,0,0,-0.391605,129.90771,-46.819124)"
       id="g1207"
       style="display:inline;fill:#4d4d4d;fill-opacity:1">
      <path
         id="path1205"
         style="fill:#4d4d4d;fill-opacity:1;fill-rule:nonzero;stroke:none"
         d="m 0,0 -9.85,13.945 c -0.138,0.209 -0.771,1.145 -1.899,2.809 -1.13,1.663 -1.9,2.704 -2.311,3.121 -0.274,0.208 -0.479,0.346 -0.615,0.417 -0.549,0.415 -0.994,0.623 -1.336,0.623 -0.821,0 -1.232,-0.553 -1.232,-1.657 V -0.008 h -9.641 v 73.951 h 9.641 V 33.419 c 0,-1.229 0.106,-2.254 0.321,-3.07 0.213,-0.82 0.746,-1.228 1.601,-1.228 0.712,0 1.423,0.328 2.135,0.987 0.142,0.131 0.641,0.757 1.495,1.875 L -0.931,46.658 11.89,46.66 -6.063,25.121 11.681,-0.008 Z" />
    </g>
    <path
       id="path1210"
       class="st0"
       d="m 153.40492,-54.398069 c -0.10732,-0.751255 -0.21464,-1.556165 -0.37562,-2.361073 -0.10732,-0.858573 -0.21464,-1.448839 -0.32197,-1.770811 -0.32196,-1.931786 -1.34152,-3.541604 -3.00499,-4.722148 -1.6635,-1.234195 -3.48797,-1.824461 -5.52706,-1.824461 -2.57573,0 -4.72217,0.912225 -6.49296,2.736696 -1.77082,1.824461 -2.62938,4.024556 -2.62938,6.546612 0,2.522064 0.85856,4.722149 2.62938,6.600272 1.77079,1.878137 3.91723,2.790362 6.38563,2.790362 1.23419,0 2.36107,-0.214643 3.32697,-0.643919 0.85857,-0.375634 1.66348,-0.858573 2.52206,-1.556165 l 0.2683,1.824461 h 4.40017 z m -12.77125,-4.990454 c 0.96588,-1.019553 2.14641,-1.502503 3.59526,-1.502503 1.44885,0 2.57571,0.48295 3.59527,1.556166 0.9659,1.01955 1.44884,2.30741 1.44884,3.702597 0,1.395175 -0.48294,2.629369 -1.44884,3.59527 -0.96589,1.019551 -2.09277,1.502502 -3.54162,1.502502 -1.44883,0 -2.62936,-0.482951 -3.64891,-1.502502 -0.96591,-1.019564 -1.44885,-2.253761 -1.44885,-3.702598 0,-1.395174 0.48294,-2.629381 1.44885,-3.648932 z"
       style="display:inline;fill:#4d4d4d;fill-opacity:1;stroke-width:0.53660774" />
    <path
       id="path1212"
       class="st0"
       d="m 165.69324,-64.969246 c -0.75124,0 -1.44883,0.107327 -2.0391,0.268307 -0.48294,0.160979 -1.2342,0.536602 -2.14643,1.180531 0,-0.107315 0,-0.214643 0,-0.321959 v -0.858572 l -4.13188,0.05366 v 17.922697 h 4.13188 v -9.766258 c 0,-0.858572 0.10732,-1.502502 0.32196,-2.039117 0.21465,-0.482949 0.59027,-1.019551 1.18054,-1.448837 0.59026,-0.429286 1.18053,-0.697593 1.71714,-0.697593 l 1.2342,0.160978 v -4.453841 z"
       style="display:inline;fill:#4d4d4d;fill-opacity:1;stroke-width:0.53660774" />
    <path
       style="display:inline;fill:#4d4d4d;fill-opacity:1;stroke-width:0.53660774"
       d="m 170.84467,-66.096125 c 0.69759,0 1.23421,-0.268296 1.6635,-0.804909 0.42927,-0.536602 0.64391,-1.126879 0.64391,-1.770809 0,-0.697582 -0.21464,-1.287859 -0.64391,-1.824461 -0.42929,-0.536613 -1.01956,-0.804909 -1.6635,-0.804909 -0.69759,0 -1.28785,0.268296 -1.71714,0.804909 -0.37562,0.536602 -0.59027,1.126879 -0.59027,1.824461 0,0.697593 0.21465,1.341523 0.64394,1.824473 0.42927,0.482949 0.96588,0.751245 1.66347,0.751245 z"
       class="st0"
       id="path1214" />
    <rect
       style="display:inline;fill:#4d4d4d;fill-opacity:1;stroke-width:0.53660774"
       height="18.191004"
       width="3.8099148"
       class="st0"
       y="-64.861923"
       x="168.96652"
       id="rect1216" />
    <path
       id="path1218"
       class="st0"
       d="m 192.36265,-62.447191 c -1.77081,-1.878125 -3.91723,-2.844014 -6.54661,-2.844014 -0.85858,0 -1.87814,0.16098 -2.8977,0.482939 -0.80491,0.268306 -1.44883,0.536613 -1.93177,0.912236 v -11.42975 h -4.29287 v 19.371546 c 0,2.629381 0.91223,4.883129 2.68305,6.7076 1.7708,1.824461 4.02455,2.790362 6.60027,2.790362 2.52205,0 4.66849,-0.912236 6.38563,-2.790362 1.71715,-1.824471 2.62938,-4.024556 2.62938,-6.54662 -0.0537,-2.522056 -0.91223,-4.775813 -2.62938,-6.653937 z m -1.39517,6.653937 c 0,1.395185 -0.48297,2.629382 -1.44885,3.648933 -0.96589,1.019564 -2.14644,1.556165 -3.48795,1.556165 -1.44884,0 -2.62938,-0.482949 -3.59528,-1.556165 -0.96589,-1.019551 -1.44883,-2.253748 -1.44883,-3.75625 0,-1.448837 0.48294,-2.683045 1.44883,-3.702595 0.9659,-1.019554 2.14644,-1.556166 3.59528,-1.556166 1.39518,0 2.57571,0.536612 3.54162,1.609828 0.91221,1.073217 1.39518,2.361076 1.39518,3.75625 z"
       style="display:inline;fill:#4d4d4d;fill-opacity:1;stroke-width:0.53660774" />
    <path
       id="path1220"
       class="st0"
       d="m 228.20804,-64.647275 v 10.46385 c 0,1.019553 -0.37562,1.878123 -1.07321,2.62937 -0.75124,0.697593 -1.55614,1.073217 -2.57571,1.073217 -0.9659,0 -1.82446,-0.321961 -2.57573,-0.965891 -0.75123,-0.64393 -1.12688,-1.395174 -1.12688,-2.361073 v -10.839473 h -4.29285 v 11.805372 c 0,2.039104 0.91224,3.702587 2.62938,4.936791 1.55616,1.073206 3.38062,1.663483 5.41973,1.663483 2.03912,0 3.80992,-0.590277 5.31242,-1.663483 1.71714,-1.28787 2.57573,-2.897687 2.57573,-4.883139 v -11.805372 h -4.29288 z"
       style="display:inline;fill:#4d4d4d;fill-opacity:1;stroke-width:0.53660774" />
    <path
       style="display:inline;fill:#4d4d4d;fill-opacity:1;stroke-width:0.53908229"
       d="m 214.67235,-55.918896 c -0.0147,-2.513074 -1.08195,-4.816719 -2.59459,-6.627617 -1.51266,-1.810897 -4.48886,-2.752834 -6.52798,-2.752834 -2.5757,0 -4.72215,0.920673 -6.49296,2.761996 -1.77079,1.841336 -2.62936,4.061767 -2.62936,6.607136 0,2.545371 0.85857,4.765799 2.62936,6.661287 1.77081,1.895497 3.91726,2.816159 6.38565,2.816159 3.15783,-0.05335 4.89053,-0.892106 6.67904,-2.81387 1.78851,-1.921761 2.5656,-4.139173 2.55084,-6.652257 z m -12.66417,-3.639828 c 0.9659,-1.028975 2.14643,-1.516394 3.59528,-1.516394 1.44882,0 2.57571,0.487419 3.59527,1.570557 0.96587,1.028977 1.44884,2.328743 1.44884,3.736811 0,1.40808 -0.48297,2.653696 -1.44884,3.628509 -0.96589,1.028977 -2.09277,1.516395 -3.54162,1.516395 -1.44885,0 -2.62938,-0.487418 -3.64893,-1.516395 -0.96589,-1.028976 -1.44884,-2.274592 -1.44884,-3.736811 0,-1.408081 0.48295,-2.653684 1.44884,-3.682672 z"
       class="st0"
       id="path1222" />
    <rect
       height="34.345345"
       width="11.358567"
       class="st0"
       y="-18.511581"
       x="136.8213"
       id="rect1185"
       style="display:inline;fill:#726658;stroke-width:0.337049"
       inkscape:export-filename="/home/evaleto/inspiration.png"
       inkscape:export-xdpi="32.439999"
       inkscape:export-ydpi="32.439999" />
    <rect
       height="34.345345"
       width="11.358567"
       class="st1"
       y="-18.511581"
       x="149.86528"
       id="rect1187"
       style="display:inline;fill:#b0d6c3;stroke-width:0.337049"
       inkscape:export-filename="/home/evaleto/inspiration.png"
       inkscape:export-xdpi="32.439999"
       inkscape:export-ydpi="32.439999" />
    <rect
       height="34.345345"
       width="11.358567"
       class="st2"
       y="-18.511581"
       x="162.87564"
       id="rect1189"
       style="display:inline;fill:#c4b19c;stroke-width:0.337049"
       inkscape:export-filename="/home/evaleto/inspiration.png"
       inkscape:export-xdpi="32.439999"
       inkscape:export-ydpi="32.439999" />
    <rect
       height="34.345345"
       width="11.358567"
       class="st3"
       y="-18.511581"
       x="175.91956"
       id="rect1191"
       style="display:inline;fill:#8dc63f;stroke-width:0.337049"
       inkscape:export-filename="/home/evaleto/inspiration.png"
       inkscape:export-xdpi="32.439999"
       inkscape:export-ydpi="32.439999" />
    <rect
       height="34.345345"
       width="11.358567"
       class="st4"
       y="-18.511581"
       x="188.96355"
       id="rect1193"
       style="display:inline;fill:#890822;stroke-width:0.337049"
       inkscape:export-filename="/home/evaleto/inspiration.png"
       inkscape:export-xdpi="32.439999"
       inkscape:export-ydpi="32.439999" />
    <rect
       height="34.345345"
       width="11.358567"
       class="st5"
       y="-18.511581"
       x="202.00751"
       id="rect1195"
       style="display:inline;fill:#00a79d;stroke-width:0.337049"
       inkscape:export-filename="/home/evaleto/inspiration.png"
       inkscape:export-xdpi="32.439999"
       inkscape:export-ydpi="32.439999" />
    <rect
       height="34.345345"
       width="11.358567"
       class="st6"
       y="-18.511581"
       x="215.05147"
       id="rect1197"
       style="display:inline;fill:#da1c5c;stroke-width:0.337049"
       inkscape:export-filename="/home/evaleto/inspiration.png"
       inkscape:export-xdpi="32.439999"
       inkscape:export-ydpi="32.439999" />
    <rect
       height="34.345345"
       width="11.358567"
       class="st7"
       y="-18.511581"
       x="228.06169"
       id="rect1199"
       style="display:inline;fill:#f7941e;stroke-width:0.337049"
       inkscape:export-filename="/home/evaleto/inspiration.png"
       inkscape:export-xdpi="32.439999"
       inkscape:export-ydpi="32.439999" />
    <rect
       height="34.345345"
       width="11.358567"
       class="st8"
       y="-18.511581"
       x="123.77733"
       id="rect1201"
       style="display:inline;fill:#452d16;stroke-width:0.337049"
       inkscape:export-filename="/home/evaleto/inspiration.png"
       inkscape:export-xdpi="32.439999"
       inkscape:export-ydpi="32.439999" />
    <rect
       style="display:inline;fill:#df3422;fill-opacity:1;stroke-width:0.337049"
       id="rect1203"
       x="242.01575"
       y="-18.511581"
       class="st6"
       width="11.358567"
       height="34.345345"
       inkscape:export-filename="/home/evaleto/inspiration.png"
       inkscape:export-xdpi="32.439999"
       inkscape:export-ydpi="32.439999" />
    <rect
       style="display:inline;fill:#1f5a35;fill-opacity:1;stroke-width:0.337049"
       id="rect1205"
       x="255.09059"
       y="-18.511581"
       class="st3"
       width="11.358567"
       height="34.345345"
       inkscape:export-filename="/home/evaleto/inspiration.png"
       inkscape:export-xdpi="32.439999"
       inkscape:export-ydpi="32.439999" />
    <rect
       style="display:inline;fill:#6600ad;fill-opacity:0.815686;stroke-width:0.337049"
       id="rect1331"
       x="109.84706"
       y="-18.511581"
       class="st8"
       width="11.358567"
       height="34.345345"
       inkscape:export-filename="/home/evaleto/inspiration.png"
       inkscape:export-xdpi="32.439999"
       inkscape:export-ydpi="32.439999" />
    <rect
       height="34.345345"
       width="11.358567"
       class="st8"
       y="-18.511581"
       x="93.595085"
       id="rect1303"
       style="display:inline;fill:#62dd2a;fill-opacity:1;stroke-width:0.337049"
       inkscape:export-filename="/home/evaleto/inspiration.png"
       inkscape:export-xdpi="32.439999"
       inkscape:export-ydpi="32.439999" />
  </g>
</svg>
