<?xml version="1.0" encoding="UTF-8" standalone="no"?>
<svg
   id="svg2117"
   version="1.1"
   viewBox="0 0 159.44495 56.870289"
   height="56.870289mm"
   width="159.44495mm"
   sodipodi:docname="k-puce.svg"
   inkscape:version="1.2.2 (732a01da63, 2022-12-09, custom)"
   xmlns:inkscape="http://www.inkscape.org/namespaces/inkscape"
   xmlns:sodipodi="http://sodipodi.sourceforge.net/DTD/sodipodi-0.dtd"
   xmlns="http://www.w3.org/2000/svg"
   xmlns:svg="http://www.w3.org/2000/svg"
   xmlns:rdf="http://www.w3.org/1999/02/22-rdf-syntax-ns#"
   xmlns:cc="http://creativecommons.org/ns#"
   xmlns:dc="http://purl.org/dc/elements/1.1/">
  <sodipodi:namedview
     id="namedview167"
     pagecolor="#ffffff"
     bordercolor="#000000"
     borderopacity="0.25"
     inkscape:showpageshadow="2"
     inkscape:pageopacity="0.0"
     inkscape:pagecheckerboard="0"
     inkscape:deskcolor="#d1d1d1"
     inkscape:document-units="mm"
     showgrid="false"
     inkscape:zoom="2.0158984"
     inkscape:cx="292.92151"
     inkscape:cy="198.67073"
     inkscape:window-width="1854"
     inkscape:window-height="1016"
     inkscape:window-x="0"
     inkscape:window-y="0"
     inkscape:window-maximized="1"
     inkscape:current-layer="layer1" />
  <defs
     id="defs2111" />
  <metadata
     id="metadata2114">
    <rdf:RDF>
      <cc:Work
         rdf:about="">
        <dc:format>image/svg+xml</dc:format>
        <dc:type
           rdf:resource="http://purl.org/dc/dcmitype/StillImage" />
        <dc:title />
      </cc:Work>
    </rdf:RDF>
  </metadata>
  <g
     transform="translate(-102.46205,89.000621)"
     id="layer1">
    <g
       id="g1211"
       transform="matrix(0.48878633,0,0,-0.48878633,109.20632,-48.943604)"
       style="display:inline;opacity:1;fill:#32b0a0;fill-opacity:1">
      <path
         d="m 0,0 c -8.534,8.695 -13.798,20.612 -13.798,33.758 0,26.617 21.577,48.194 48.194,48.194 26.617,0 48.195,-21.577 48.195,-48.194 C 82.591,20.601 77.319,8.697 68.772,0 L 34.396,-34.398 Z"
         style="fill:#32b0a0;fill-opacity:1;fill-rule:nonzero;stroke:none"
         id="path1209" />
    </g>
    <path
       style="display:inline;fill:#4d4d4d;fill-opacity:1;stroke-width:0.53660774"
       id="path1197"
       d="m 236.57914,-47.583151 c -0.37564,0 -0.69761,-0.107328 -0.9659,-0.375623 -0.2683,-0.268307 -0.37562,-0.590265 -0.37562,-0.965899 0,-0.375624 0.16098,-0.751247 0.42929,-1.073216 0.2683,-0.321961 0.64392,-0.482949 1.01953,-0.482949 0.37565,0 0.69762,0.160988 0.96591,0.429283 0.2683,0.268309 0.37563,0.590278 0.37563,0.965902 0,0.429286 -0.16098,0.751244 -0.4293,1.073216 -0.21462,0.268306 -0.59027,0.429286 -1.01954,0.429286"
       class="st0" />
    <path
       style="display:inline;fill:#4d4d4d;fill-opacity:1;stroke-width:0.53660774"
       id="path1199"
       d="m 249.67236,-56.598164 -1.18055,1.073216 c -0.32195,-0.321958 -0.69758,-0.590267 -1.12685,-0.697592 -0.4293,-0.160981 -0.91224,-0.214643 -1.39521,-0.214643 -1.01953,0 -1.87811,0.321968 -2.52204,1.01955 -0.64393,0.697595 -1.01954,1.556166 -1.01954,2.57573 0,1.287848 0.5366,2.253747 1.66347,2.951339 0.64391,0.429287 1.28785,0.590267 1.98546,0.590267 0.42927,0 0.91224,-0.107315 1.34152,-0.268306 0.42928,-0.214643 0.75124,-0.429286 1.01954,-0.80491 l 1.12689,1.180531 c -0.4293,0.482952 -0.96591,0.858573 -1.60983,1.126879 -0.69758,0.268309 -1.34153,0.429287 -1.98547,0.429287 -1.44882,0 -2.68301,-0.536602 -3.6489,-1.556166 -0.96591,-1.01955 -1.44885,-2.30741 -1.44885,-3.809912 0,-1.448838 0.48294,-2.736697 1.39517,-3.756248 0.91223,-1.019553 2.09277,-1.502502 3.54162,-1.502502 0.75125,0 1.39518,0.107315 2.03911,0.375621 0.64391,0.375623 1.2342,0.751258 1.82446,1.287859"
       class="st0" />
    <path
       style="display:inline;fill:#4d4d4d;fill-opacity:1;stroke-width:0.53660774"
       id="path1201"
       d="m 254.87746,-47.851459 h -1.77081 v -16.312878 h 1.77081 v 6.063671 0.321971 c 0.0537,0.16098 0.10732,0.214643 0.21464,0.214643 0.0537,0 0.21464,-0.05366 0.42929,-0.107328 0.21465,-0.05366 0.32198,-0.107315 0.32198,-0.107315 0.2683,-0.107328 0.64392,-0.214643 1.01953,-0.268306 0.37562,-0.05367 0.80491,-0.107328 1.18055,-0.107328 1.07321,0 1.98544,0.375634 2.7367,1.073216 0.75124,0.697592 1.12685,1.609828 1.12685,2.683044 v 6.600275 h -1.77078 v -5.795365 c 0,-0.80491 -0.16098,-1.502502 -0.53661,-2.039104 -0.42927,-0.643929 -1.01957,-0.965901 -1.7708,-0.965901 -0.75127,0 -1.39519,0.268306 -1.98544,0.858573 -0.59029,0.536615 -0.85859,1.180542 -0.85859,1.931789 v 5.956343 z"
       class="st0" />
    <g
       transform="matrix(0.391605,0,0,-0.391605,129.90771,-46.819124)"
       id="g1207"
       style="display:inline;fill:#4d4d4d;fill-opacity:1">
      <path
         id="path1205"
         style="fill:#4d4d4d;fill-opacity:1;fill-rule:nonzero;stroke:none"
         d="m 0,0 -9.85,13.945 c -0.138,0.209 -0.771,1.145 -1.899,2.809 -1.13,1.663 -1.9,2.704 -2.311,3.121 -0.274,0.208 -0.479,0.346 -0.615,0.417 -0.549,0.415 -0.994,0.623 -1.336,0.623 -0.821,0 -1.232,-0.553 -1.232,-1.657 V -0.008 h -9.641 v 73.951 h 9.641 V 33.419 c 0,-1.229 0.106,-2.254 0.321,-3.07 0.213,-0.82 0.746,-1.228 1.601,-1.228 0.712,0 1.423,0.328 2.135,0.987 0.142,0.131 0.641,0.757 1.495,1.875 L -0.931,46.658 11.89,46.66 -6.063,25.121 11.681,-0.008 Z" />
    </g>
    <path
       id="path1210"
       class="st0"
       d="m 153.40492,-54.398069 c -0.10732,-0.751255 -0.21464,-1.556165 -0.37562,-2.361073 -0.10732,-0.858573 -0.21464,-1.448839 -0.32197,-1.770811 -0.32196,-1.931786 -1.34152,-3.541604 -3.00499,-4.722148 -1.6635,-1.234195 -3.48797,-1.824461 -5.52706,-1.824461 -2.57573,0 -4.72217,0.912225 -6.49296,2.736696 -1.77082,1.824461 -2.62938,4.024556 -2.62938,6.546612 0,2.522064 0.85856,4.722149 2.62938,6.600272 1.77079,1.878137 3.91723,2.790362 6.38563,2.790362 1.23419,0 2.36107,-0.214643 3.32697,-0.643919 0.85857,-0.375634 1.66348,-0.858573 2.52206,-1.556165 l 0.2683,1.824461 h 4.40017 z m -12.77125,-4.990454 c 0.96588,-1.019553 2.14641,-1.502503 3.59526,-1.502503 1.44885,0 2.57571,0.48295 3.59527,1.556166 0.9659,1.01955 1.44884,2.30741 1.44884,3.702597 0,1.395175 -0.48294,2.629369 -1.44884,3.59527 -0.96589,1.019551 -2.09277,1.502502 -3.54162,1.502502 -1.44883,0 -2.62936,-0.482951 -3.64891,-1.502502 -0.96591,-1.019564 -1.44885,-2.253761 -1.44885,-3.702598 0,-1.395174 0.48294,-2.629381 1.44885,-3.648932 z"
       style="display:inline;fill:#4d4d4d;fill-opacity:1;stroke-width:0.53660774" />
    <path
       id="path1212"
       class="st0"
       d="m 165.69324,-64.969246 c -0.75124,0 -1.44883,0.107327 -2.0391,0.268307 -0.48294,0.160979 -1.2342,0.536602 -2.14643,1.180531 0,-0.107315 0,-0.214643 0,-0.321959 v -0.858572 l -4.13188,0.05366 v 17.922697 h 4.13188 v -9.766258 c 0,-0.858572 0.10732,-1.502502 0.32196,-2.039117 0.21465,-0.482949 0.59027,-1.019551 1.18054,-1.448837 0.59026,-0.429286 1.18053,-0.697593 1.71714,-0.697593 l 1.2342,0.160978 v -4.453841 z"
       style="display:inline;fill:#4d4d4d;fill-opacity:1;stroke-width:0.53660774" />
    <path
       style="display:inline;fill:#4d4d4d;fill-opacity:1;stroke-width:0.53660774"
       d="m 170.84467,-66.096125 c 0.69759,0 1.23421,-0.268296 1.6635,-0.804909 0.42927,-0.536602 0.64391,-1.126879 0.64391,-1.770809 0,-0.697582 -0.21464,-1.287859 -0.64391,-1.824461 -0.42929,-0.536613 -1.01956,-0.804909 -1.6635,-0.804909 -0.69759,0 -1.28785,0.268296 -1.71714,0.804909 -0.37562,0.536602 -0.59027,1.126879 -0.59027,1.824461 0,0.697593 0.21465,1.341523 0.64394,1.824473 0.42927,0.482949 0.96588,0.751245 1.66347,0.751245 z"
       class="st0"
       id="path1214" />
    <rect
       style="display:inline;fill:#4d4d4d;fill-opacity:1;stroke-width:0.53660774"
       height="18.191004"
       width="3.8099148"
       class="st0"
       y="-64.861923"
       x="168.96652"
       id="rect1216" />
    <path
       id="path1218"
       class="st0"
       d="m 192.36265,-62.447191 c -1.77081,-1.878125 -3.91723,-2.844014 -6.54661,-2.844014 -0.85858,0 -1.87814,0.16098 -2.8977,0.482939 -0.80491,0.268306 -1.44883,0.536613 -1.93177,0.912236 v -11.42975 h -4.29287 v 19.371546 c 0,2.629381 0.91223,4.883129 2.68305,6.7076 1.7708,1.824461 4.02455,2.790362 6.60027,2.790362 2.52205,0 4.66849,-0.912236 6.38563,-2.790362 1.71715,-1.824471 2.62938,-4.024556 2.62938,-6.54662 -0.0537,-2.522056 -0.91223,-4.775813 -2.62938,-6.653937 z m -1.39517,6.653937 c 0,1.395185 -0.48297,2.629382 -1.44885,3.648933 -0.96589,1.019564 -2.14644,1.556165 -3.48795,1.556165 -1.44884,0 -2.62938,-0.482949 -3.59528,-1.556165 -0.96589,-1.019551 -1.44883,-2.253748 -1.44883,-3.75625 0,-1.448837 0.48294,-2.683045 1.44883,-3.702595 0.9659,-1.019554 2.14644,-1.556166 3.59528,-1.556166 1.39518,0 2.57571,0.536612 3.54162,1.609828 0.91221,1.073217 1.39518,2.361076 1.39518,3.75625 z"
       style="display:inline;fill:#4d4d4d;fill-opacity:1;stroke-width:0.53660774" />
    <path
       id="path1220"
       class="st0"
       d="m 228.20804,-64.647275 v 10.46385 c 0,1.019553 -0.37562,1.878123 -1.07321,2.62937 -0.75124,0.697593 -1.55614,1.073217 -2.57571,1.073217 -0.9659,0 -1.82446,-0.321961 -2.57573,-0.965891 -0.75123,-0.64393 -1.12688,-1.395174 -1.12688,-2.361073 v -10.839473 h -4.29285 v 11.805372 c 0,2.039104 0.91224,3.702587 2.62938,4.936791 1.55616,1.073206 3.38062,1.663483 5.41973,1.663483 2.03912,0 3.80992,-0.590277 5.31242,-1.663483 1.71714,-1.28787 2.57573,-2.897687 2.57573,-4.883139 v -11.805372 h -4.29288 z"
       style="display:inline;fill:#4d4d4d;fill-opacity:1;stroke-width:0.53660774" />
    <path
       style="display:inline;fill:#4d4d4d;fill-opacity:1;stroke-width:0.53908229"
       d="m 214.67235,-55.918896 c -0.0147,-2.513074 -1.08195,-4.816719 -2.59459,-6.627617 -1.51266,-1.810897 -4.48886,-2.752834 -6.52798,-2.752834 -2.5757,0 -4.72215,0.920673 -6.49296,2.761996 -1.77079,1.841336 -2.62936,4.061767 -2.62936,6.607136 0,2.545371 0.85857,4.765799 2.62936,6.661287 1.77081,1.895497 3.91726,2.816159 6.38565,2.816159 3.15783,-0.05335 4.89053,-0.892106 6.67904,-2.81387 1.78851,-1.921761 2.5656,-4.139173 2.55084,-6.652257 z m -12.66417,-3.639828 c 0.9659,-1.028975 2.14643,-1.516394 3.59528,-1.516394 1.44882,0 2.57571,0.487419 3.59527,1.570557 0.96587,1.028977 1.44884,2.328743 1.44884,3.736811 0,1.40808 -0.48297,2.653696 -1.44884,3.628509 -0.96589,1.028977 -2.09277,1.516395 -3.54162,1.516395 -1.44885,0 -2.62938,-0.487418 -3.64893,-1.516395 -0.96589,-1.028976 -1.44884,-2.274592 -1.44884,-3.736811 0,-1.408081 0.48295,-2.653684 1.44884,-3.682672 z"
       class="st0"
       id="path1222" />
    <rect
       height="34.345345"
       width="11.358567"
       class="st0"
       y="-18.511581"
       x="136.8213"
       id="rect1185"
       style="display:inline;fill:#726658;stroke-width:0.337049"
       inkscape:export-filename="/home/evaleto/inspiration.png"
       inkscape:export-xdpi="32.439999"
       inkscape:export-ydpi="32.439999" />
    <rect
       height="34.345345"
       width="11.358567"
       class="st1"
       y="-18.511581"
       x="149.86528"
       id="rect1187"
       style="display:inline;fill:#b0d6c3;stroke-width:0.337049"
       inkscape:export-filename="/home/evaleto/inspiration.png"
       inkscape:export-xdpi="32.439999"
       inkscape:export-ydpi="32.439999" />
    <rect
       height="34.345345"
       width="11.358567"
       class="st2"
       y="-18.511581"
       x="162.87564"
       id="rect1189"
       style="display:inline;fill:#c4b19c;stroke-width:0.337049"
       inkscape:export-filename="/home/evaleto/inspiration.png"
       inkscape:export-xdpi="32.439999"
       inkscape:export-ydpi="32.439999" />
    <rect
       height="34.345345"
       width="11.358567"
       class="st3"
       y="-18.511581"
       x="175.91956"
       id="rect1191"
       style="display:inline;fill:#8dc63f;stroke-width:0.337049"
       inkscape:export-filename="/home/evaleto/inspiration.png"
       inkscape:export-xdpi="32.439999"
       inkscape:export-ydpi="32.439999" />
    <rect
       height="34.345345"
       width="11.358567"
       class="st4"
       y="-18.511581"
       x="188.96355"
       id="rect1193"
       style="display:inline;fill:#890822;stroke-width:0.337049"
       inkscape:export-filename="/home/evaleto/inspiration.png"
       inkscape:export-xdpi="32.439999"
       inkscape:export-ydpi="32.439999" />
    <rect
       height="34.345345"
       width="11.358567"
       class="st5"
       y="-18.511581"
       x="202.00751"
       id="rect1195"
       style="display:inline;fill:#00a79d;stroke-width:0.337049"
       inkscape:export-filename="/home/evaleto/inspiration.png"
       inkscape:export-xdpi="32.439999"
       inkscape:export-ydpi="32.439999" />
    <rect
       height="34.345345"
       width="11.358567"
       class="st6"
       y="-18.511581"
       x="215.05147"
       id="rect1197"
       style="display:inline;fill:#da1c5c;stroke-width:0.337049"
       inkscape:export-filename="/home/evaleto/inspiration.png"
       inkscape:export-xdpi="32.439999"
       inkscape:export-ydpi="32.439999" />
    <rect
       height="34.345345"
       width="11.358567"
       class="st7"
       y="-18.511581"
       x="228.06169"
       id="rect1199"
       style="display:inline;fill:#f7941e;stroke-width:0.337049"
       inkscape:export-filename="/home/evaleto/inspiration.png"
       inkscape:export-xdpi="32.439999"
       inkscape:export-ydpi="32.439999" />
    <rect
       height="34.345345"
       width="11.358567"
       class="st8"
       y="-18.511581"
       x="123.77733"
       id="rect1201"
       style="display:inline;fill:#452d16;stroke-width:0.337049"
       inkscape:export-filename="/home/evaleto/inspiration.png"
       inkscape:export-xdpi="32.439999"
       inkscape:export-ydpi="32.439999" />
    <rect
       style="display:inline;fill:#df3422;fill-opacity:1;stroke-width:0.337049"
       id="rect1203"
       x="242.01575"
       y="-18.511581"
       class="st6"
       width="11.358567"
       height="34.345345"
       inkscape:export-filename="/home/evaleto/inspiration.png"
       inkscape:export-xdpi="32.439999"
       inkscape:export-ydpi="32.439999" />
    <rect
       style="display:inline;fill:#1f5a35;fill-opacity:1;stroke-width:0.337049"
       id="rect1205"
       x="255.09059"
       y="-18.511581"
       class="st3"
       width="11.358567"
       height="34.345345"
       inkscape:export-filename="/home/evaleto/inspiration.png"
       inkscape:export-xdpi="32.439999"
       inkscape:export-ydpi="32.439999" />
    <rect
       style="display:inline;fill:#6600ad;fill-opacity:0.815686;stroke-width:0.337049"
       id="rect1331"
       x="109.84706"
       y="-18.511581"
       class="st8"
       width="11.358567"
       height="34.345345"
       inkscape:export-filename="/home/evaleto/inspiration.png"
       inkscape:export-xdpi="32.439999"
       inkscape:export-ydpi="32.439999" />
    <rect
       height="34.345345"
       width="11.358567"
       class="st8"
       y="-18.511581"
       x="93.595085"
       id="rect1303"
       style="display:inline;fill:#62dd2a;fill-opacity:1;stroke-width:0.337049"
       inkscape:export-filename="/home/evaleto/inspiration.png"
       inkscape:export-xdpi="32.439999"
       inkscape:export-ydpi="32.439999" />
  </g>
</svg>
