<?xml version="1.0" encoding="UTF-8" standalone="no"?>
<!-- Created with Inkscape (http://www.inkscape.org/) -->

<svg
   xmlns:dc="http://purl.org/dc/elements/1.1/"
   xmlns:cc="http://creativecommons.org/ns#"
   xmlns:rdf="http://www.w3.org/1999/02/22-rdf-syntax-ns#"
   xmlns:svg="http://www.w3.org/2000/svg"
   xmlns="http://www.w3.org/2000/svg"
   xmlns:sodipodi="http://sodipodi.sourceforge.net/DTD/sodipodi-0.dtd"
   xmlns:inkscape="http://www.inkscape.org/namespaces/inkscape"
   width="2.4924173mm"
   height="4.2703619mm"
   viewBox="0 0 8.8314 15.131204"
   id="svg2"
   version="1.1"
   inkscape:version="0.91 r13725"
   sodipodi:docname="k-wine-lg.svg">
  <defs
     id="defs4" />
  <sodipodi:namedview
     id="base"
     pagecolor="#ffffff"
     bordercolor="#666666"
     borderopacity="1.0"
     inkscape:pageopacity="0.0"
     inkscape:pageshadow="2"
     inkscape:zoom="22.4"
     inkscape:cx="5.4324338"
     inkscape:cy="7.6589475"
     inkscape:document-units="px"
     inkscape:current-layer="g16274"
     showgrid="false"
     fit-margin-top="0"
     fit-margin-left="0"
     fit-margin-right="0"
     fit-margin-bottom="0"
     inkscape:window-width="1871"
     inkscape:window-height="1176"
     inkscape:window-x="49"
     inkscape:window-y="24"
     inkscape:window-maximized="1"
     showguides="true"
     inkscape:guide-bbox="true">
    <sodipodi:guide
       position="6.2976698,1.3258252"
       orientation="1,0"
       id="guide4135" />
  </sodipodi:namedview>
  <metadata
     id="metadata7">
    <rdf:RDF>
      <cc:Work
         rdf:about="">
        <dc:format>image/svg+xml</dc:format>
        <dc:type
           rdf:resource="http://purl.org/dc/dcmitype/StillImage" />
        <dc:title></dc:title>
      </cc:Work>
    </rdf:RDF>
  </metadata>
  <g
     inkscape:label="Calque 1"
     inkscape:groupmode="layer"
     id="layer1"
     transform="translate(-95.584299,-139.08232)">
    <g
       transform="matrix(0.42192752,0,0,-0.42192749,100.64196,153.28018)"
       id="g16274"
       style="display:inline;fill:#b4b4b4;fill-opacity:1"
       inkscape:export-xdpi="815.28003"
       inkscape:export-ydpi="815.28003">
      <path
         inkscape:connector-curvature="0"
         id="path16276"
         style="fill:#b4b4b4;fill-opacity:1;fill-rule:nonzero;stroke:none"
         d="m 0,0 c 0,0 0.61024467,9.6310728 1.4610387,14.37 0.7317746,4.075989 3.1072174,5.928 3.1212174,12.025 0.006,2.405 -0.585,4.736 -1.723,6.742 l -0.267,0.475 -9.4179505,0.038 -0.274,-0.474 c -1.137,-1.997 -1.74,-4.327 -1.745,-6.734 -0.014,-6.14 2.6834524,-7.980935 3.6005988,-12.082 C -4.1880163,9.6376899 -3.069,0.007 -3.069,0.007 c -2.923,-0.11 -5.106,-0.549 -5.107,-1.078 -0.002,-0.622 2.972,-1.133 6.639,-1.141 3.666,-0.008 6.64,0.489 6.641,1.111 C 5.105,-0.572 2.928,-0.123 0,0"
         sodipodi:nodetypes="caccccccaccscc" />
    </g>
  </g>
</svg>
