<svg xmlns="http://www.w3.org/2000/svg" width="1269" height="65" fill="none" viewBox="0 0 1269 65"><path stroke="#003d29" stroke-linecap="round" stroke-linejoin="round" stroke-width="2" d="M423.33 16.043c-16.92-12.91-30.24 7.63-40.38 17.94-6.09 6.2-14.35 11.34-22.97 10.24-8.62-1.11-15.99-11.08-11.86-18.73 3.2 1.41 3.19 6.5.52 8.76-2.67 2.25-6.71 2.07-9.93.73-6.48-2.7-10.57-9.09-16.21-13.28-14.27-10.61-34.45-5.11-50.86 1.74-7.59 3.17-15.81 6.62-23.78 4.6-7.98-2.01-13.98-12.5-8.6-18.73 3.32-1.17 5.27 3.87 4.64 7.33-2.47 13.71-18.07 23.45-31.48 19.67-4.8-1.36-9.32-4.34-11.61-8.78s-1.89-10.38 1.66-13.89c3.5 1.31 3.94 6.55 1.65 9.5s-6.17 4.12-9.82 4.92a106.1 106.1 0 0 1-44.77.13c-11.09-2.37-22.13-6.56-33.42-5.45s-23.01 10.1-21.9 21.39c4.45-1.38 3.29-8.18.38-11.82-7.25-9.08-19.19-13.39-30.79-13.97s-23.09 2.11-34.4 4.78c-9.23 2.18-22.26.62-28.4-6.61"/><path fill="#003d29" d="M54.67 18.403c.25 2.4.43 4.82.52 7.23.02.42 0 .91-.31 1.19-.26.23-.64.25-.98.26-1.01.02-2.02.04-3.03.05-.62.01-1.31 0-1.75-.44-.33-.33-.43-.83-.51-1.29-.3-1.76-.54-3.53-.71-5.31 2.51-.69 4.17-1.49 6.76-1.69z"/><path fill="#aa7622" d="M47.59 26.723c-2.03.93-3.66 2.78-4.14 4.97-.69 3.13 1.13 6.5 3.94 8.04s6.35 1.4 9.26.06c1.38-.63 2.68-1.55 3.41-2.88 4.34-7.89-6.27-13.05-12.46-10.2z"/><path stroke="#724107" stroke-linecap="round" stroke-linejoin="round" stroke-width="1.5" d="M50.1 26.993c.66.96.77 5.87-.07 6.68.19-.18.21-1.07.46-1.39.39-.5.87-.72 1.48-.79 1.28-.16 2.63.74 2.83 2.04-.16.32-.66.29-.91.04-.25-.26-.3-.64-.33-.99-.19-1.95-.17-3.91.06-5.86"/><path stroke="#f7f2eb" stroke-linecap="round" stroke-linejoin="round" stroke-width="1.5" d="M45.5 35.743c.61.84 1.37 1.56 2.25 2.11"/><path fill="#003d29" d="M75.47 20.623c.66-2.33 1.39-4.63 2.2-6.91.14-.4.33-.84.73-.99.33-.12.68 0 1.01.13.94.36 1.89.72 2.83 1.07.58.22 1.21.49 1.46 1.06.19.43.09.93 0 1.39-.38 1.75-.81 3.48-1.31 5.19-2.58-.29-4.43-.16-6.91-.94z"/><path fill="#85c5b9" d="M85.13 15.523c2.23-.11 4.43-1.23 5.69-3.07 1.8-2.65 1.36-6.46-.67-8.93s-5.38-3.66-8.58-3.51c-1.51.07-3.06.45-4.23 1.41-6.96 5.72.99 14.44 7.79 14.09z"/><path stroke="#38846e" stroke-linecap="round" stroke-linejoin="round" stroke-width="2" d="M82.9 14.343c-.26-1.14 1.46-5.74 2.55-6.17-.24.1-.6.92-.95 1.12-.54.32-1.08.34-1.66.19-1.24-.33-2.17-1.67-1.87-2.95.26-.24.72-.03.86.3.13.33.04.7-.06 1.04-.55 1.88-1.3 3.7-2.23 5.41"/><path stroke="#f7f2eb" stroke-linecap="round" stroke-linejoin="round" stroke-width="1.5" d="M85.79 3.123a6.45 6.45 0 0 1 3.44 3.61M89.8 9.103v1.33"/><path fill="#003d29" d="M127.17 23.073c-.37 2.39-.82 4.77-1.34 7.12-.09.41-.23.88-.6 1.07-.31.16-.68.08-1.02 0l-2.94-.72c-.6-.15-1.26-.34-1.58-.87-.24-.41-.21-.91-.16-1.38.16-1.78.39-3.55.67-5.31 2.6-.02 4.42-.38 6.97.1z"/><path fill="#ff521e" d="M118.21 29.303c-2.2.38-4.25 1.75-5.28 3.74-1.47 2.84-.57 6.57 1.75 8.78s5.78 2.97 8.94 2.43c1.49-.26 2.99-.82 4.03-1.91 6.22-6.52-2.73-14.22-9.44-13.05z"/><path stroke="#aa250b" stroke-linecap="round" stroke-linejoin="round" stroke-width="2" d="M120.56 30.203c.39 1.1-.76 5.87-1.78 6.44.23-.12.48-.98.8-1.23.5-.38 1.03-.47 1.63-.39 1.27.18 2.35 1.39 2.22 2.7-.23.27-.72.11-.89-.2s-.13-.69-.07-1.04c.31-1.93.84-3.83 1.56-5.64"/><path stroke="#f7f2eb" stroke-linecap="round" stroke-linejoin="round" stroke-width="1.5" d="M114.47 37.763c.22.56.44 1.11.67 1.67"/><path fill="#003d29" d="M167.631 29.343c-.37-2.39-.82-4.76-1.34-7.12-.09-.41-.23-.88-.6-1.07-.31-.16-.68-.08-1.02 0l-2.94.72c-.6.15-1.26.34-1.58.87-.24.41-.21.91-.16 1.38.16 1.78.39 3.55.67 5.31 2.6.02 4.42.38 6.97-.1z"/><path fill="#e595c1" d="M158.66 23.103c-2.2-.38-4.25-1.75-5.28-3.74-1.47-2.84-.57-6.58 1.75-8.78 2.32-2.21 5.78-2.97 8.94-2.43 1.49.26 2.99.82 4.03 1.91 6.22 6.52-2.73 14.22-9.44 13.05z"/><path stroke="#bc4a7e" stroke-linecap="round" stroke-linejoin="round" stroke-width="2" d="M161.02 22.203c.39-1.1-.76-5.87-1.78-6.44.23.12.48.98.8 1.23.5.38 1.03.47 1.63.39 1.27-.18 2.35-1.39 2.22-2.7-.23-.27-.72-.11-.89.2s-.13.69-.07 1.04c.31 1.93.84 3.83 1.56 5.64"/><path stroke="#f7f2eb" stroke-linecap="round" stroke-linejoin="round" stroke-width="1.5" d="M162.51 10.323c1.5.53 2.94 1.26 4.25 2.17M167.8 14.103l1 1.33"/><path fill="#003d29" d="M210.76 35.033c-.38 2.39-.68 4.79-.91 7.19-.04.42-.05.9.25 1.2.25.24.62.28.97.31l3.02.21c.62.04 1.31.06 1.77-.35.35-.31.48-.8.58-1.26.39-1.74.72-3.5.99-5.26-2.47-.82-4.09-1.71-6.66-2.04z"/><path fill="#aa7622" d="M217.38 43.723c1.98 1.04 3.51 2.97 3.88 5.18.53 3.16-1.48 6.43-4.36 7.83-2.88 1.39-6.41 1.06-9.25-.43-1.34-.7-2.59-1.69-3.25-3.05-3.92-8.11 6.96-12.7 12.99-9.52z"/><path stroke="#724107" stroke-linecap="round" stroke-linejoin="round" stroke-width="1.5" d="M214.87 43.853c-.71.93-1.08 5.82-.28 6.67-.18-.19-.16-1.08-.39-1.41-.36-.52-.83-.76-1.43-.87-1.27-.22-2.67.6-2.94 1.89.14.33.65.33.9.08.26-.24.33-.62.39-.97.29-1.93.38-3.9.25-5.85"/><path stroke="#f7f2eb" stroke-linecap="round" stroke-linejoin="round" stroke-width="1.5" d="m205.8 51.763 1 1.33M209.14 54.763l1.33 1"/><path fill="#003d29" d="M262.42 26.643c-.37-2.39-.67-4.79-.88-7.2-.04-.42-.05-.9.25-1.2.25-.24.62-.28.97-.3 1.01-.07 2.01-.14 3.02-.2.62-.04 1.31-.06 1.77.35.35.32.47.8.57 1.26.39 1.74.71 3.5.97 5.26-2.47.81-4.09 1.7-6.67 2.02z"/><path fill="#85c5b9" d="M269.07 17.973c1.98-1.03 3.52-2.96 3.89-5.17.54-3.16-1.45-6.44-4.33-7.84s-6.41-1.08-9.25.4c-1.34.7-2.6 1.68-3.26 3.04-3.95 8.1 6.91 12.72 12.95 9.57"/><path stroke="#38846e" stroke-linecap="round" stroke-linejoin="round" stroke-width="2" d="M266.55 17.833c-.71-.93-1.06-5.83-.26-6.67-.18.19-.16 1.08-.39 1.41-.36.52-.84.76-1.43.86-1.27.22-2.66-.61-2.93-1.9.14-.33.65-.33.91-.08.26.24.33.62.38.97.29 1.93.36 3.9.23 5.85"/><path stroke="#f7f2eb" stroke-linecap="round" stroke-linejoin="round" stroke-width="1.5" d="M267.14 5.763c.74.46 1.41 1.03 1.97 1.69M270.79 9.613c.23.39.46.77.68 1.16"/><path fill="#003d29" d="M301.079 15.913c.04 2.42 0 4.83-.13 7.25-.02.42-.08.9-.42 1.16-.28.21-.66.19-1 .17-1.01-.07-2.01-.15-3.02-.22-.62-.04-1.3-.12-1.7-.6-.3-.36-.36-.86-.39-1.33-.14-1.78-.21-3.56-.23-5.35 2.56-.46 4.29-1.11 6.89-1.07z"/><path fill="#ff521e" d="M293.28 23.563c-2.11.75-3.9 2.44-4.58 4.57-.97 3.05.54 6.58 3.2 8.37 2.65 1.79 6.2 1.96 9.22.9 1.43-.5 2.81-1.3 3.65-2.56 5.04-7.47-5.07-13.56-11.49-11.28"/><path stroke="#aa250b" stroke-linecap="round" stroke-linejoin="round" stroke-width="2" d="M295.749 24.053c.57 1.02.24 5.92-.68 6.65.2-.16.31-1.05.59-1.34.43-.46.93-.63 1.54-.65 1.29-.04 2.55.98 2.64 2.29-.19.3-.69.23-.91-.05s-.24-.66-.24-1.02c-.01-1.96.19-3.91.59-5.83"/><path stroke="#f7f2eb" stroke-linecap="round" stroke-linejoin="round" stroke-width="1.5" d="M290.46 32.273a5.67 5.67 0 0 0 2.67 2.67M295.64 36.073c.38.13.77.25 1.15.38"/><path fill="#003d29" d="M326.75 24.833c1.19-2.1 2.31-4.25 3.35-6.43.18-.38.37-.83.19-1.21-.14-.31-.48-.48-.8-.62-.92-.42-1.84-.83-2.76-1.25-.56-.26-1.2-.51-1.78-.29-.44.17-.73.59-.98.98q-1.455 2.25-2.76 4.59c2.03 1.63 3.24 3.03 5.54 4.24z"/><path fill="#e595c1" d="M323.56 14.383c-1.49-1.66-2.25-4.01-1.83-6.2.61-3.14 3.62-5.52 6.81-5.82s6.38 1.24 8.52 3.62c1.01 1.12 1.84 2.49 1.99 4 .85 8.97-10.94 9.48-15.49 4.41z"/><path stroke="#bc4a7e" stroke-linecap="round" stroke-linejoin="round" stroke-width="2" d="M325.97 15.133c.99-.62 3.04-5.08 2.58-6.16.1.24-.23 1.07-.13 1.46.16.61.52 1 1.04 1.31 1.11.65 2.71.36 3.41-.75-.02-.35-.49-.53-.82-.39s-.53.47-.7.78c-.95 1.71-1.71 3.52-2.27 5.4"/><path stroke="#f7f2eb" stroke-linecap="round" stroke-linejoin="round" stroke-width="1.5" d="M334.41 6.493c.97 1 1.74 2.21 2.22 3.53M336.63 15.013c.17-.67.33-1.33.5-2"/><path fill="#003d29" d="M353.79 41.313c-.96 2.22-1.85 4.47-2.67 6.74-.14.4-.28.86-.06 1.23.18.3.53.43.86.54.96.32 1.91.64 2.87.96.59.2 1.25.39 1.8.1.42-.22.66-.66.88-1.08.81-1.59 1.57-3.21 2.27-4.85-2.18-1.41-3.53-2.68-5.95-3.64"/><path fill="#aa7622" d="M358.04 51.373c1.66 1.5 2.66 3.75 2.46 5.98-.28 3.19-3.03 5.86-6.17 6.49s-6.48-.57-8.85-2.72c-1.12-1.01-2.09-2.28-2.39-3.77-1.78-8.83 9.9-10.56 14.95-5.99z"/><path stroke="#724107" stroke-linecap="round" stroke-linejoin="round" stroke-width="1.5" d="M355.57 50.873c-.92.72-2.5 5.37-1.93 6.39-.12-.23.12-1.09-.02-1.47-.22-.59-.62-.95-1.17-1.2-1.17-.53-2.73-.08-3.32 1.1.05.35.54.48.86.31.31-.17.48-.52.62-.84.77-1.8 1.33-3.68 1.69-5.61"/><path stroke="#f7f2eb" stroke-linecap="round" stroke-linejoin="round" stroke-width="1.5" d="M345.12 55.523c.25.98.68 1.92 1.26 2.74M348.38 60.783c.33.17.67.34 1 .5"/><path fill="#003d29" d="M385.881 30.923c-1.92-1.46-3.8-2.99-5.62-4.58-.32-.28-.66-.62-.65-1.04 0-.35.26-.63.49-.89.68-.75 1.36-1.49 2.04-2.24.42-.46.9-.95 1.52-.97.47-.01.9.25 1.29.51q2.235 1.485 4.35 3.12c-1.22 2.29-1.78 4.06-3.41 6.08z"/><path fill="#85c5b9" d="M384.68 20.063c.71-2.12.49-4.57-.77-6.42-1.8-2.65-5.51-3.64-8.56-2.65-3.05.98-5.37 3.66-6.4 6.69-.49 1.43-.71 3.01-.24 4.45 2.76 8.57 13.8 4.39 15.97-2.07"/><path stroke="#38846e" stroke-linecap="round" stroke-linejoin="round" stroke-width="2" d="M382.77 21.703c-1.16-.18-4.8-3.47-4.81-4.64 0 .26.63.89.69 1.29.1.62-.08 1.13-.44 1.62-.76 1.04-2.35 1.4-3.43.66-.12-.33.24-.68.6-.69.36 0 .67.22.95.44 1.55 1.2 2.96 2.56 4.22 4.06"/><path stroke="#f7f2eb" stroke-linecap="round" stroke-linejoin="round" stroke-width="1.5" d="M373.48 14.463c.81-1.13 2.33-1.55 3.71-1.4s2.65.78 3.89 1.39"/><path stroke="#003d29" stroke-linecap="round" stroke-linejoin="round" stroke-width="2" d="M1267.99 16.043c-16.92-12.91-30.24 7.63-40.38 17.94-6.09 6.2-14.35 11.34-22.97 10.24-8.62-1.11-15.99-11.08-11.86-18.73 3.2 1.41 3.19 6.5.52 8.76-2.67 2.25-6.71 2.07-9.93.73-6.48-2.7-10.57-9.09-16.21-13.28-14.27-10.61-34.45-5.11-50.86 1.74-7.59 3.17-15.81 6.62-23.78 4.6-7.98-2.01-13.98-12.5-8.6-18.73 3.32-1.17 5.27 3.87 4.64 7.33-2.47 13.71-18.07 23.45-31.48 19.67-4.8-1.36-9.32-4.34-11.61-8.78s-1.89-10.38 1.66-13.89c3.5 1.31 3.94 6.55 1.65 9.5s-6.17 4.12-9.82 4.92a106.1 106.1 0 0 1-44.77.13c-11.09-2.37-22.13-6.56-33.42-5.45s-23.01 10.1-21.9 21.39c4.45-1.38 3.29-8.18.38-11.82-7.25-9.08-19.19-13.39-30.79-13.97s-23.09 2.11-34.4 4.78c-9.23 2.18-22.26.62-28.4-6.61"/><path fill="#003d29" d="M899.331 18.403c.25 2.4.43 4.82.52 7.23.02.42 0 .91-.31 1.19-.26.23-.64.25-.98.26-1.01.02-2.02.04-3.03.05-.62.01-1.31 0-1.75-.44-.33-.33-.43-.83-.51-1.29-.3-1.76-.54-3.53-.71-5.31 2.51-.69 4.17-1.49 6.76-1.69z"/><path fill="#aa7622" d="M892.25 26.723c-2.03.93-3.66 2.78-4.14 4.97-.69 3.13 1.13 6.5 3.94 8.04s6.35 1.4 9.26.06c1.38-.63 2.68-1.55 3.41-2.88 4.34-7.89-6.27-13.05-12.46-10.2z"/><path stroke="#724107" stroke-linecap="round" stroke-linejoin="round" stroke-width="1.5" d="M894.76 26.993c.66.96.77 5.87-.07 6.68.19-.18.21-1.07.46-1.39.39-.5.87-.72 1.48-.79 1.28-.16 2.63.74 2.83 2.04-.16.32-.66.29-.91.04-.25-.26-.3-.64-.33-.99-.19-1.95-.17-3.91.06-5.86"/><path stroke="#f7f2eb" stroke-linecap="round" stroke-linejoin="round" stroke-width="1.5" d="M890.16 35.743c.61.84 1.37 1.56 2.25 2.11"/><path fill="#003d29" d="M920.13 20.623c.66-2.33 1.39-4.63 2.2-6.91.14-.4.33-.84.73-.99.33-.12.68 0 1.01.13.94.36 1.89.72 2.83 1.07.58.22 1.21.49 1.46 1.06.19.43.09.93 0 1.39-.38 1.75-.81 3.48-1.31 5.19-2.58-.29-4.43-.16-6.91-.94z"/><path fill="#85c5b9" d="M929.79 15.523c2.23-.11 4.43-1.23 5.69-3.07 1.8-2.65 1.36-6.46-.67-8.93s-5.38-3.66-8.58-3.51c-1.51.07-3.06.45-4.23 1.41-6.96 5.72.99 14.44 7.79 14.09z"/><path stroke="#38846e" stroke-linecap="round" stroke-linejoin="round" stroke-width="2" d="M927.56 14.343c-.26-1.14 1.46-5.74 2.55-6.17-.24.1-.6.92-.95 1.12-.54.32-1.08.34-1.66.19-1.24-.33-2.17-1.67-1.87-2.95.26-.24.72-.03.86.3.13.33.04.7-.06 1.04-.55 1.88-1.3 3.7-2.23 5.41"/><path stroke="#f7f2eb" stroke-linecap="round" stroke-linejoin="round" stroke-width="1.5" d="M930.45 3.123a6.45 6.45 0 0 1 3.44 3.61M934.46 9.103v1.33"/><path fill="#003d29" d="M971.83 23.073c-.37 2.39-.82 4.77-1.34 7.12-.09.41-.23.88-.6 1.07-.31.16-.68.08-1.02 0l-2.94-.72c-.6-.15-1.26-.34-1.58-.87-.24-.41-.21-.91-.16-1.38.16-1.78.39-3.55.67-5.31 2.6-.02 4.42-.38 6.97.1z"/><path fill="#ff521e" d="M962.87 29.303c-2.2.38-4.25 1.75-5.28 3.74-1.47 2.84-.57 6.57 1.75 8.78s5.78 2.97 8.94 2.43c1.49-.26 2.99-.82 4.03-1.91 6.22-6.52-2.73-14.22-9.44-13.05z"/><path stroke="#aa250b" stroke-linecap="round" stroke-linejoin="round" stroke-width="2" d="M965.22 30.203c.39 1.1-.76 5.87-1.78 6.44.23-.12.48-.98.8-1.23.5-.38 1.03-.47 1.63-.39 1.27.18 2.35 1.39 2.22 2.7-.23.27-.72.11-.89-.2s-.13-.69-.07-1.04c.31-1.93.84-3.83 1.56-5.64"/><path stroke="#f7f2eb" stroke-linecap="round" stroke-linejoin="round" stroke-width="1.5" d="M959.13 37.763c.22.56.44 1.11.67 1.67"/><path fill="#003d29" d="M1012.29 29.343c-.37-2.39-.82-4.76-1.34-7.12-.09-.41-.23-.88-.6-1.07-.31-.16-.68-.08-1.02 0l-2.94.72c-.6.15-1.26.34-1.58.87-.24.41-.21.91-.16 1.38.16 1.78.39 3.55.67 5.31 2.6.02 4.42.38 6.97-.1z"/><path fill="#e595c1" d="M1003.32 23.103c-2.2-.38-4.25-1.75-5.28-3.74-1.47-2.84-.57-6.58 1.75-8.78 2.32-2.21 5.78-2.97 8.94-2.43 1.49.26 2.99.82 4.03 1.91 6.22 6.52-2.73 14.22-9.44 13.05z"/><path stroke="#bc4a7e" stroke-linecap="round" stroke-linejoin="round" stroke-width="2" d="M1005.68 22.203c.39-1.1-.76-5.87-1.78-6.44.23.12.48.98.8 1.23.5.38 1.03.47 1.63.39 1.27-.18 2.35-1.39 2.22-2.7-.23-.27-.72-.11-.89.2s-.13.69-.07 1.04c.31 1.93.84 3.83 1.56 5.64"/><path stroke="#f7f2eb" stroke-linecap="round" stroke-linejoin="round" stroke-width="1.5" d="M1007.17 10.323c1.5.53 2.94 1.26 4.25 2.17M1012.46 14.103l1 1.33"/><path fill="#003d29" d="M1055.42 35.033c-.38 2.39-.68 4.79-.91 7.19-.04.42-.05.9.25 1.2.25.24.62.28.97.31l3.02.21c.62.04 1.31.06 1.77-.35.35-.31.48-.8.58-1.26.39-1.74.72-3.5.99-5.26-2.47-.82-4.09-1.71-6.66-2.04z"/><path fill="#aa7622" d="M1062.04 43.723c1.98 1.04 3.51 2.97 3.88 5.18.53 3.16-1.48 6.43-4.36 7.83-2.88 1.39-6.41 1.06-9.25-.43-1.34-.7-2.59-1.69-3.25-3.05-3.92-8.11 6.96-12.7 12.99-9.52z"/><path stroke="#724107" stroke-linecap="round" stroke-linejoin="round" stroke-width="1.5" d="M1059.53 43.853c-.71.93-1.08 5.82-.28 6.67-.18-.19-.16-1.08-.39-1.41-.36-.52-.83-.76-1.43-.87-1.27-.22-2.67.6-2.94 1.89.14.33.65.33.9.08.26-.24.33-.62.39-.97.29-1.93.38-3.9.25-5.85"/><path stroke="#f7f2eb" stroke-linecap="round" stroke-linejoin="round" stroke-width="1.5" d="m1050.46 51.763 1 1.33M1053.8 54.763l1.33 1"/><path fill="#003d29" d="M1107.08 26.643c-.37-2.39-.67-4.79-.88-7.2-.04-.42-.05-.9.25-1.2.25-.24.62-.28.97-.3 1.01-.07 2.01-.14 3.02-.2.62-.04 1.31-.06 1.77.35.35.32.47.8.57 1.26.39 1.74.71 3.5.97 5.26-2.47.81-4.09 1.7-6.67 2.02z"/><path fill="#85c5b9" d="M1113.73 17.973c1.98-1.03 3.52-2.96 3.89-5.17.54-3.16-1.45-6.44-4.33-7.84s-6.41-1.08-9.25.4c-1.34.7-2.6 1.68-3.26 3.04-3.95 8.1 6.91 12.72 12.95 9.57"/><path stroke="#38846e" stroke-linecap="round" stroke-linejoin="round" stroke-width="2" d="M1111.21 17.833c-.71-.93-1.06-5.83-.26-6.67-.18.19-.16 1.08-.39 1.41-.36.52-.84.76-1.43.86-1.27.22-2.66-.61-2.93-1.9.14-.33.65-.33.91-.08.26.24.33.62.38.97.29 1.93.36 3.9.23 5.85"/><path stroke="#f7f2eb" stroke-linecap="round" stroke-linejoin="round" stroke-width="1.5" d="M1111.8 5.763c.74.46 1.41 1.03 1.97 1.69M1115.45 9.613c.23.39.46.77.68 1.16"/><path fill="#003d29" d="M1145.74 15.913c.04 2.42 0 4.83-.13 7.25-.02.42-.08.9-.42 1.16-.28.21-.66.19-1 .17-1.01-.07-2.01-.15-3.02-.22-.62-.04-1.3-.12-1.7-.6-.3-.36-.36-.86-.39-1.33-.14-1.78-.21-3.56-.23-5.35 2.56-.46 4.29-1.11 6.89-1.07z"/><path fill="#ff521e" d="M1137.94 23.563c-2.11.75-3.9 2.44-4.58 4.57-.97 3.05.54 6.58 3.2 8.37 2.65 1.79 6.2 1.96 9.22.9 1.43-.5 2.81-1.3 3.65-2.56 5.04-7.47-5.07-13.56-11.49-11.28"/><path stroke="#aa250b" stroke-linecap="round" stroke-linejoin="round" stroke-width="2" d="M1140.41 24.053c.57 1.02.24 5.92-.68 6.65.2-.16.31-1.05.59-1.34.43-.46.93-.63 1.54-.65 1.29-.04 2.55.98 2.64 2.29-.19.3-.69.23-.91-.05s-.24-.66-.24-1.02c-.01-1.96.19-3.91.59-5.83"/><path stroke="#f7f2eb" stroke-linecap="round" stroke-linejoin="round" stroke-width="1.5" d="M1135.12 32.273a5.67 5.67 0 0 0 2.67 2.67M1140.3 36.073c.38.13.77.25 1.15.38"/><path fill="#003d29" d="M1171.41 24.833c1.19-2.1 2.31-4.25 3.35-6.43.18-.38.37-.83.19-1.21-.14-.31-.48-.48-.8-.62-.92-.42-1.84-.83-2.76-1.25-.56-.26-1.2-.51-1.78-.29-.44.17-.73.59-.98.98q-1.455 2.25-2.76 4.59c2.03 1.63 3.24 3.03 5.54 4.24z"/><path fill="#e595c1" d="M1168.22 14.383c-1.49-1.66-2.25-4.01-1.83-6.2.61-3.14 3.62-5.52 6.81-5.82s6.38 1.24 8.52 3.62c1.01 1.12 1.84 2.49 1.99 4 .85 8.97-10.94 9.48-15.49 4.41z"/><path stroke="#bc4a7e" stroke-linecap="round" stroke-linejoin="round" stroke-width="2" d="M1170.63 15.133c.99-.62 3.04-5.08 2.58-6.16.1.24-.23 1.07-.13 1.46.16.61.52 1 1.04 1.31 1.11.65 2.71.36 3.41-.75-.02-.35-.49-.53-.82-.39s-.53.47-.7.78c-.95 1.71-1.71 3.52-2.27 5.4"/><path stroke="#f7f2eb" stroke-linecap="round" stroke-linejoin="round" stroke-width="1.5" d="M1179.07 6.493c.97 1 1.74 2.21 2.22 3.53M1181.29 15.013c.17-.67.33-1.33.5-2"/><path fill="#003d29" d="M1198.45 41.313c-.96 2.22-1.85 4.47-2.67 6.74-.14.4-.28.86-.06 1.23.18.3.53.43.86.54.96.32 1.91.64 2.87.96.59.2 1.25.39 1.8.1.42-.22.66-.66.88-1.08.81-1.59 1.57-3.21 2.27-4.85-2.18-1.41-3.53-2.68-5.95-3.64"/><path fill="#aa7622" d="M1202.7 51.373c1.66 1.5 2.66 3.75 2.46 5.98-.28 3.19-3.03 5.86-6.17 6.49s-6.48-.57-8.85-2.72c-1.12-1.01-2.09-2.28-2.39-3.77-1.78-8.83 9.9-10.56 14.95-5.99z"/><path stroke="#724107" stroke-linecap="round" stroke-linejoin="round" stroke-width="1.5" d="M1200.23 50.873c-.92.72-2.5 5.37-1.93 6.39-.12-.23.12-1.09-.02-1.47-.22-.59-.62-.95-1.17-1.2-1.17-.53-2.73-.08-3.32 1.1.05.35.54.48.86.31.31-.17.48-.52.62-.84.77-1.8 1.33-3.68 1.69-5.61"/><path stroke="#f7f2eb" stroke-linecap="round" stroke-linejoin="round" stroke-width="1.5" d="M1189.78 55.523c.25.98.68 1.92 1.26 2.74M1193.04 60.783c.33.17.67.34 1 .5"/><path fill="#003d29" d="M1230.54 30.923c-1.92-1.46-3.8-2.99-5.62-4.58-.32-.28-.66-.62-.65-1.04 0-.35.26-.63.49-.89.68-.75 1.36-1.49 2.04-2.24.42-.46.9-.95 1.52-.97.47-.01.9.25 1.29.51q2.235 1.485 4.35 3.12c-1.22 2.29-1.78 4.06-3.41 6.08z"/><path fill="#85c5b9" d="M1229.34 20.063c.71-2.12.49-4.57-.77-6.42-1.8-2.65-5.51-3.64-8.56-2.65-3.05.98-5.37 3.66-6.4 6.69-.49 1.43-.71 3.01-.24 4.45 2.76 8.57 13.8 4.39 15.97-2.07"/><path stroke="#38846e" stroke-linecap="round" stroke-linejoin="round" stroke-width="2" d="M1227.43 21.703c-1.16-.18-4.8-3.47-4.81-4.64 0 .26.63.89.69 1.29.1.62-.08 1.13-.44 1.62-.76 1.04-2.35 1.4-3.43.66-.12-.33.24-.68.6-.69.36 0 .67.22.95.44 1.55 1.2 2.96 2.56 4.22 4.06"/><path stroke="#f7f2eb" stroke-linecap="round" stroke-linejoin="round" stroke-width="1.5" d="M1218.14 14.463c.81-1.13 2.33-1.55 3.71-1.4s2.65.78 3.89 1.39"/><path stroke="#003d29" stroke-linecap="round" stroke-linejoin="round" stroke-width="2" d="M845.66 16.043c-16.92-12.91-30.24 7.63-40.38 17.94-6.09 6.2-14.35 11.34-22.97 10.24-8.62-1.11-15.99-11.08-11.86-18.73 3.2 1.41 3.19 6.5.52 8.76-2.67 2.25-6.71 2.07-9.93.73-6.48-2.7-10.57-9.09-16.21-13.28-14.27-10.61-34.45-5.11-50.86 1.74-7.59 3.17-15.81 6.62-23.78 4.6-7.98-2.01-13.98-12.5-8.6-18.73 3.32-1.17 5.27 3.87 4.64 7.33-2.47 13.71-18.07 23.45-31.48 19.67-4.8-1.36-9.32-4.34-11.61-8.78s-1.89-10.38 1.66-13.89c3.5 1.31 3.94 6.55 1.65 9.5s-6.17 4.12-9.82 4.92a106.1 106.1 0 0 1-44.77.13c-11.09-2.37-22.13-6.56-33.42-5.45s-23.01 10.1-21.9 21.39c4.45-1.38 3.29-8.18.38-11.82-7.25-9.08-19.19-13.39-30.79-13.97s-23.09 2.11-34.4 4.78c-9.23 2.18-22.26.62-28.4-6.61"/><path fill="#003d29" d="M477 18.403c.25 2.4.43 4.82.52 7.23.02.42 0 .91-.31 1.19-.26.23-.64.25-.98.26-1.01.02-2.02.04-3.03.05-.62.01-1.31 0-1.75-.44-.33-.33-.43-.83-.51-1.29-.3-1.76-.54-3.53-.71-5.31 2.51-.69 4.17-1.49 6.76-1.69z"/><path fill="#aa7622" d="M469.92 26.723c-2.03.93-3.66 2.78-4.14 4.97-.69 3.13 1.13 6.5 3.94 8.04s6.35 1.4 9.26.06c1.38-.63 2.68-1.55 3.41-2.88 4.34-7.89-6.27-13.05-12.46-10.2z"/><path stroke="#724107" stroke-linecap="round" stroke-linejoin="round" stroke-width="1.5" d="M472.43 26.993c.66.96.77 5.87-.07 6.68.19-.18.21-1.07.46-1.39.39-.5.87-.72 1.48-.79 1.28-.16 2.63.74 2.83 2.04-.16.32-.66.29-.91.04-.25-.26-.3-.64-.33-.99-.19-1.95-.17-3.91.06-5.86"/><path stroke="#f7f2eb" stroke-linecap="round" stroke-linejoin="round" stroke-width="1.5" d="M467.83 35.743c.61.84 1.37 1.56 2.25 2.11"/><path fill="#003d29" d="M497.8 20.623c.66-2.33 1.39-4.63 2.2-6.91.14-.4.33-.84.73-.99.33-.12.68 0 1.01.13.94.36 1.89.72 2.83 1.07.58.22 1.21.49 1.46 1.06.19.43.09.93 0 1.39-.38 1.75-.81 3.48-1.31 5.19-2.58-.29-4.43-.16-6.91-.94z"/><path fill="#85c5b9" d="M507.46 15.523c2.23-.11 4.43-1.23 5.69-3.07 1.8-2.65 1.36-6.46-.67-8.93s-5.38-3.66-8.58-3.51c-1.51.07-3.06.45-4.23 1.41-6.96 5.72.99 14.44 7.79 14.09z"/><path stroke="#38846e" stroke-linecap="round" stroke-linejoin="round" stroke-width="2" d="M505.23 14.343c-.26-1.14 1.46-5.74 2.55-6.17-.24.1-.6.92-.95 1.12-.54.32-1.08.34-1.66.19-1.24-.33-2.17-1.67-1.87-2.95.26-.24.72-.03.86.3.13.33.04.7-.06 1.04-.55 1.88-1.3 3.7-2.23 5.41"/><path stroke="#f7f2eb" stroke-linecap="round" stroke-linejoin="round" stroke-width="1.5" d="M508.12 3.123a6.45 6.45 0 0 1 3.44 3.61M512.13 9.103v1.33"/><path fill="#003d29" d="M549.5 23.073c-.37 2.39-.82 4.77-1.34 7.12-.09.41-.23.88-.6 1.07-.31.16-.68.08-1.02 0l-2.94-.72c-.6-.15-1.26-.34-1.58-.87-.24-.41-.21-.91-.16-1.38.16-1.78.39-3.55.67-5.31 2.6-.02 4.42-.38 6.97.1z"/><path fill="#ff521e" d="M540.54 29.303c-2.2.38-4.25 1.75-5.28 3.74-1.47 2.84-.57 6.57 1.75 8.78s5.78 2.97 8.94 2.43c1.49-.26 2.99-.82 4.03-1.91 6.22-6.52-2.73-14.22-9.44-13.05z"/><path stroke="#aa250b" stroke-linecap="round" stroke-linejoin="round" stroke-width="2" d="M542.89 30.203c.39 1.1-.76 5.87-1.78 6.44.23-.12.48-.98.8-1.23.5-.38 1.03-.47 1.63-.39 1.27.18 2.35 1.39 2.22 2.7-.23.27-.72.11-.89-.2s-.13-.69-.07-1.04c.31-1.93.84-3.83 1.56-5.64"/><path stroke="#f7f2eb" stroke-linecap="round" stroke-linejoin="round" stroke-width="1.5" d="M536.8 37.763c.22.56.44 1.11.67 1.67"/><path fill="#003d29" d="M589.961 29.343c-.37-2.39-.82-4.76-1.34-7.12-.09-.41-.23-.88-.6-1.07-.31-.16-.68-.08-1.02 0l-2.94.72c-.6.15-1.26.34-1.58.87-.24.41-.21.91-.16 1.38.16 1.78.39 3.55.67 5.31 2.6.02 4.42.38 6.97-.1z"/><path fill="#e595c1" d="M580.99 23.103c-2.2-.38-4.25-1.75-5.28-3.74-1.47-2.84-.57-6.58 1.75-8.78 2.32-2.21 5.78-2.97 8.94-2.43 1.49.26 2.99.82 4.03 1.91 6.22 6.52-2.73 14.22-9.44 13.05z"/><path stroke="#bc4a7e" stroke-linecap="round" stroke-linejoin="round" stroke-width="2" d="M583.35 22.203c.39-1.1-.76-5.87-1.78-6.44.23.12.48.98.8 1.23.5.38 1.03.47 1.63.39 1.27-.18 2.35-1.39 2.22-2.7-.23-.27-.72-.11-.89.2s-.13.69-.07 1.04c.31 1.93.84 3.83 1.56 5.64"/><path stroke="#f7f2eb" stroke-linecap="round" stroke-linejoin="round" stroke-width="1.5" d="M584.84 10.323c1.5.53 2.94 1.26 4.25 2.17M590.13 14.103l1 1.33"/><path fill="#003d29" d="M633.091 35.033c-.38 2.39-.68 4.79-.91 7.19-.04.42-.05.9.25 1.2.25.24.62.28.97.31l3.02.21c.62.04 1.31.06 1.77-.35.35-.31.48-.8.58-1.26.39-1.74.72-3.5.99-5.26-2.47-.82-4.09-1.71-6.66-2.04z"/><path fill="#aa7622" d="M639.71 43.723c1.98 1.04 3.51 2.97 3.88 5.18.53 3.16-1.48 6.43-4.36 7.83-2.88 1.39-6.41 1.06-9.25-.43-1.34-.7-2.59-1.69-3.25-3.05-3.92-8.11 6.96-12.7 12.99-9.52z"/><path stroke="#724107" stroke-linecap="round" stroke-linejoin="round" stroke-width="1.5" d="M637.2 43.853c-.71.93-1.08 5.82-.28 6.67-.18-.19-.16-1.08-.39-1.41-.36-.52-.83-.76-1.43-.87-1.27-.22-2.67.6-2.94 1.89.14.33.65.33.9.08.26-.24.33-.62.39-.97.29-1.93.38-3.9.25-5.85"/><path stroke="#f7f2eb" stroke-linecap="round" stroke-linejoin="round" stroke-width="1.5" d="m628.13 51.763 1 1.33M631.47 54.763l1.33 1"/><path fill="#003d29" d="M684.75 26.643c-.37-2.39-.67-4.79-.88-7.2-.04-.42-.05-.9.25-1.2.25-.24.62-.28.97-.3 1.01-.07 2.01-.14 3.02-.2.62-.04 1.31-.06 1.77.35.35.32.47.8.57 1.26.39 1.74.71 3.5.97 5.26-2.47.81-4.09 1.7-6.67 2.02z"/><path fill="#85c5b9" d="M691.4 17.973c1.98-1.03 3.52-2.96 3.89-5.17.54-3.16-1.45-6.44-4.33-7.84s-6.41-1.08-9.25.4c-1.34.7-2.6 1.68-3.26 3.04-3.95 8.1 6.91 12.72 12.95 9.57"/><path stroke="#38846e" stroke-linecap="round" stroke-linejoin="round" stroke-width="2" d="M688.88 17.833c-.71-.93-1.06-5.83-.26-6.67-.18.19-.16 1.08-.39 1.41-.36.52-.84.76-1.43.86-1.27.22-2.66-.61-2.93-1.9.14-.33.65-.33.91-.08.26.24.33.62.38.97.29 1.93.36 3.9.23 5.85"/><path stroke="#f7f2eb" stroke-linecap="round" stroke-linejoin="round" stroke-width="1.5" d="M689.47 5.763c.74.46 1.41 1.03 1.97 1.69M693.12 9.613c.23.39.46.77.68 1.16"/><path fill="#003d29" d="M723.41 15.913c.04 2.42 0 4.83-.13 7.25-.02.42-.08.9-.42 1.16-.28.21-.66.19-1 .17-1.01-.07-2.01-.15-3.02-.22-.62-.04-1.3-.12-1.7-.6-.3-.36-.36-.86-.39-1.33-.14-1.78-.21-3.56-.23-5.35 2.56-.46 4.29-1.11 6.89-1.07z"/><path fill="#ff521e" d="M715.61 23.563c-2.11.75-3.9 2.44-4.58 4.57-.97 3.05.54 6.58 3.2 8.37 2.65 1.79 6.2 1.96 9.22.9 1.43-.5 2.81-1.3 3.65-2.56 5.04-7.47-5.07-13.56-11.49-11.28"/><path stroke="#aa250b" stroke-linecap="round" stroke-linejoin="round" stroke-width="2" d="M718.079 24.053c.57 1.02.24 5.92-.68 6.65.2-.16.31-1.05.59-1.34.43-.46.93-.63 1.54-.65 1.29-.04 2.55.98 2.64 2.29-.19.3-.69.23-.91-.05s-.24-.66-.24-1.02c-.01-1.96.19-3.91.59-5.83"/><path stroke="#f7f2eb" stroke-linecap="round" stroke-linejoin="round" stroke-width="1.5" d="M712.79 32.273a5.67 5.67 0 0 0 2.67 2.67M717.97 36.073c.38.13.77.25 1.15.38"/><path fill="#003d29" d="M749.08 24.833c1.19-2.1 2.31-4.25 3.35-6.43.18-.38.37-.83.19-1.21-.14-.31-.48-.48-.8-.62-.92-.42-1.84-.83-2.76-1.25-.56-.26-1.2-.51-1.78-.29-.44.17-.73.59-.98.98q-1.455 2.25-2.76 4.59c2.03 1.63 3.24 3.03 5.54 4.24z"/><path fill="#e595c1" d="M745.89 14.383c-1.49-1.66-2.25-4.01-1.83-6.2.61-3.14 3.62-5.52 6.81-5.82s6.38 1.24 8.52 3.62c1.01 1.12 1.84 2.49 1.99 4 .85 8.97-10.94 9.48-15.49 4.41z"/><path stroke="#bc4a7e" stroke-linecap="round" stroke-linejoin="round" stroke-width="2" d="M748.3 15.133c.99-.62 3.04-5.08 2.58-6.16.1.24-.23 1.07-.13 1.46.16.61.52 1 1.04 1.31 1.11.65 2.71.36 3.41-.75-.02-.35-.49-.53-.82-.39s-.53.47-.7.78c-.95 1.71-1.71 3.52-2.27 5.4"/><path stroke="#f7f2eb" stroke-linecap="round" stroke-linejoin="round" stroke-width="1.5" d="M756.74 6.493c.97 1 1.74 2.21 2.22 3.53M758.96 15.013c.17-.67.33-1.33.5-2"/><path fill="#003d29" d="M776.12 41.313c-.96 2.22-1.85 4.47-2.67 6.74-.14.4-.28.86-.06 1.23.18.3.53.43.86.54.96.32 1.91.64 2.87.96.59.2 1.25.39 1.8.1.42-.22.66-.66.88-1.08.81-1.59 1.57-3.21 2.27-4.85-2.18-1.41-3.53-2.68-5.95-3.64"/><path fill="#aa7622" d="M780.37 51.373c1.66 1.5 2.66 3.75 2.46 5.98-.28 3.19-3.03 5.86-6.17 6.49s-6.48-.57-8.85-2.72c-1.12-1.01-2.09-2.28-2.39-3.77-1.78-8.83 9.9-10.56 14.95-5.99z"/><path stroke="#724107" stroke-linecap="round" stroke-linejoin="round" stroke-width="1.5" d="M777.9 50.873c-.92.72-2.5 5.37-1.93 6.39-.12-.23.12-1.09-.02-1.47-.22-.59-.62-.95-1.17-1.2-1.17-.53-2.73-.08-3.32 1.1.05.35.54.48.86.31.31-.17.48-.52.62-.84.77-1.8 1.33-3.68 1.69-5.61"/><path stroke="#f7f2eb" stroke-linecap="round" stroke-linejoin="round" stroke-width="1.5" d="M767.45 55.523c.25.98.68 1.92 1.26 2.74M770.71 60.783c.33.17.67.34 1 .5"/><path fill="#003d29" d="M808.211 30.923c-1.92-1.46-3.8-2.99-5.62-4.58-.32-.28-.66-.62-.65-1.04 0-.35.26-.63.49-.89.68-.75 1.36-1.49 2.04-2.24.42-.46.9-.95 1.52-.97.47-.01.9.25 1.29.51q2.235 1.485 4.35 3.12c-1.22 2.29-1.78 4.06-3.41 6.08z"/><path fill="#85c5b9" d="M807.01 20.063c.71-2.12.49-4.57-.77-6.42-1.8-2.65-5.51-3.64-8.56-2.65-3.05.98-5.37 3.66-6.4 6.69-.49 1.43-.71 3.01-.24 4.45 2.76 8.57 13.8 4.39 15.97-2.07"/><path stroke="#38846e" stroke-linecap="round" stroke-linejoin="round" stroke-width="2" d="M805.1 21.703c-1.16-.18-4.8-3.47-4.81-4.64 0 .26.63.89.69 1.29.1.62-.08 1.13-.44 1.62-.76 1.04-2.35 1.4-3.43.66-.12-.33.24-.68.6-.69.36 0 .67.22.95.44 1.55 1.2 2.96 2.56 4.22 4.06"/><path stroke="#f7f2eb" stroke-linecap="round" stroke-linejoin="round" stroke-width="1.5" d="M795.811 14.463c.81-1.13 2.33-1.55 3.71-1.4s2.65.78 3.89 1.39"/></svg>