<?xml version="1.0" encoding="UTF-8" standalone="no"?>
<!-- Generator: Adobe Illustrator 19.0.0, SVG Export Plug-In . SVG Version: 6.00 Build 0)  -->

<svg
   version="1.1"
   id="Calque_1"
   x="0px"
   y="0px"
   viewBox="0 0 281.74463 131.51305"
   xml:space="preserve"
   sodipodi:docname="logo-pixels-II.svg"
   inkscape:version="1.3.1 (9b9bdc1480, 2023-11-25, custom)"
   inkscape:export-filename="/home/evaleto/Dropbox/karibou/images/logo/Logo+couleurs KARIBOU.png"
   inkscape:export-xdpi="228.81757"
   inkscape:export-ydpi="228.81757"
   width="281.74463"
   height="131.51305"
   xmlns:inkscape="http://www.inkscape.org/namespaces/inkscape"
   xmlns:sodipodi="http://sodipodi.sourceforge.net/DTD/sodipodi-0.dtd"
   xmlns="http://www.w3.org/2000/svg"
   xmlns:svg="http://www.w3.org/2000/svg"
   xmlns:rdf="http://www.w3.org/1999/02/22-rdf-syntax-ns#"
   xmlns:cc="http://creativecommons.org/ns#"
   xmlns:dc="http://purl.org/dc/elements/1.1/"><metadata
   id="metadata2318"><rdf:RDF><cc:Work
       rdf:about=""><dc:format>image/svg+xml</dc:format><dc:type
         rdf:resource="http://purl.org/dc/dcmitype/StillImage" /></cc:Work></rdf:RDF></metadata><defs
   id="defs2316">
	
	
	
	
	
	
	
	
	
	
	
</defs><sodipodi:namedview
   pagecolor="#ffffff"
   bordercolor="#666666"
   borderopacity="1"
   objecttolerance="10"
   gridtolerance="10"
   guidetolerance="10"
   inkscape:pageopacity="0"
   inkscape:pageshadow="2"
   inkscape:window-width="1854"
   inkscape:window-height="1011"
   id="namedview2314"
   showgrid="false"
   inkscape:zoom="2.9977307"
   inkscape:cx="136.93692"
   inkscape:cy="109.4161"
   inkscape:window-x="0"
   inkscape:window-y="0"
   inkscape:window-maximized="1"
   inkscape:current-layer="Calque_1"
   inkscape:showpageshadow="2"
   inkscape:pagecheckerboard="0"
   inkscape:deskcolor="#d1d1d1" />
<style
   type="text/css"
   id="style2278">
	.st0{fill:#726658;}
	.st1{fill:#B0D6C3;}
	.st2{fill:#C4B19C;}
	.st3{fill:#8DC63F;}
	.st4{fill:#890822;}
	.st5{fill:#00A79D;}
	.st6{fill:#DA1C5C;}
	.st7{fill:#F7941E;}
	.st8{fill:#452D16;}
</style>
<g
   id="XMLID_70_"
   transform="matrix(1.0046865,0,0,-1.0046865,-436.35633,554.21091)"
   style="fill:#726658;fill-opacity:1">
		<path
   style="fill:#726658;fill-opacity:1"
   inkscape:connector-curvature="0"
   id="path2280"
   d="m 225.4,163.5 c -2.8,-2.9 -4.6,-6.8 -4.6,-11.2 0,-8.8 7.2,-16 16,-16 8.8,0 16,7.2 16,16 0,4.4 -1.8,8.3 -4.6,11.2 L 236.9,175 Z"
   class="st0" />
	</g><g
   id="XMLID_69_"
   transform="matrix(1.0046865,0,0,1.0046865,-436.35633,244.06418)"
   style="fill:#726658;fill-opacity:1">
		<path
   style="fill:#726658;fill-opacity:1"
   inkscape:connector-curvature="0"
   id="path2283"
   d="m 294.8,169.9 c -0.7,0 -1.3,-0.2 -1.8,-0.7 -0.5,-0.5 -0.7,-1.1 -0.7,-1.8 0,-0.7 0.3,-1.4 0.8,-2 0.5,-0.6 1.2,-0.9 1.9,-0.9 0.7,0 1.3,0.3 1.8,0.8 0.5,0.5 0.7,1.1 0.7,1.8 0,0.8 -0.3,1.4 -0.8,2 -0.4,0.5 -1.1,0.8 -1.9,0.8"
   class="st0" />
	</g><g
   id="XMLID_68_"
   transform="matrix(1.0046865,0,0,1.0046865,-436.35633,244.06418)"
   style="fill:#726658;fill-opacity:1">
		<path
   style="fill:#726658;fill-opacity:1"
   inkscape:connector-curvature="0"
   id="path2286"
   d="m 319.2,153.1 -2.2,2 c -0.6,-0.6 -1.3,-1.1 -2.1,-1.3 -0.8,-0.3 -1.7,-0.4 -2.6,-0.4 -1.9,0 -3.5,0.6 -4.7,1.9 -1.2,1.3 -1.9,2.9 -1.9,4.8 0,2.4 1,4.2 3.1,5.5 1.2,0.8 2.4,1.1 3.7,1.1 0.8,0 1.7,-0.2 2.5,-0.5 0.8,-0.4 1.4,-0.8 1.9,-1.5 l 2.1,2.2 c -0.8,0.9 -1.8,1.6 -3,2.1 -1.3,0.5 -2.5,0.8 -3.7,0.8 -2.7,0 -5,-1 -6.8,-2.9 -1.8,-1.9 -2.7,-4.3 -2.7,-7.1 0,-2.7 0.9,-5.1 2.6,-7 1.7,-1.9 3.9,-2.8 6.6,-2.8 1.4,0 2.6,0.2 3.8,0.7 1.2,0.7 2.3,1.4 3.4,2.4"
   class="st0" />
	</g><g
   id="XMLID_67_"
   transform="matrix(1.0046865,0,0,1.0046865,-436.35633,244.06418)"
   style="fill:#726658;fill-opacity:1">
		<path
   style="fill:#726658;fill-opacity:1"
   inkscape:connector-curvature="0"
   id="path2289"
   d="m 328.9,169.4 h -3.3 V 139 h 3.3 v 11.3 0.6 c 0.1,0.3 0.2,0.4 0.4,0.4 0.1,0 0.4,-0.1 0.8,-0.2 0.4,-0.1 0.6,-0.2 0.6,-0.2 0.5,-0.2 1.2,-0.4 1.9,-0.5 0.7,-0.1 1.5,-0.2 2.2,-0.2 2,0 3.7,0.7 5.1,2 1.4,1.3 2.1,3 2.1,5 v 12.3 h -3.3 v -10.8 c 0,-1.5 -0.3,-2.8 -1,-3.8 -0.8,-1.2 -1.9,-1.8 -3.3,-1.8 -1.4,0 -2.6,0.5 -3.7,1.6 -1.1,1 -1.6,2.2 -1.6,3.6 v 11.1 z"
   class="st0" />
	</g><path
   style="fill:#726658;fill-opacity:1;stroke-width:1.00469"
   inkscape:connector-curvature="0"
   d="m -330.46237,382.20858 h -10.54921 l -7.73608,10.64968 c -0.80375,1.00468 -1.00469,1.20562 -1.00469,1.30609 -0.40188,0.40187 -0.80375,0.60281 -1.10516,0.60281 -0.40187,0 -0.50234,-0.10047 -0.60281,-0.50234 -0.10047,-0.50234 -0.20094,-1.20563 -0.20094,-2.00938 v -29.23637 h -7.93702 v 53.54979 h 7.93702 v -14.16608 c 0,-0.60282 0.20094,-0.60282 0.30141,-0.60282 0,0 0.20094,0 0.70328,0.40188 0.10047,0 0.20094,0.10047 0.30141,0.20094 0.20093,0.20094 0.60281,0.70329 1.6075,2.10984 0.80375,1.20563 1.20562,1.80843 1.30609,2.00938 l 7.13327,10.14733 h 9.645 l -12.96046,-18.2853 z"
   class="st0"
   id="XMLID_92_" /><path
   style="fill:#726658;fill-opacity:1;stroke-width:1.00469"
   inkscape:connector-curvature="0"
   d="m -295.90115,402.00091 c -0.20093,-1.40657 -0.40188,-2.9136 -0.70328,-4.42062 -0.20094,-1.60751 -0.40188,-2.71265 -0.60281,-3.31547 -0.60281,-3.61687 -2.51172,-6.63093 -5.62624,-8.84124 -3.11453,-2.31078 -6.53047,-3.41593 -10.34828,-3.41593 -4.8225,0 -8.84124,1.70797 -12.15671,5.12389 -3.31547,3.41594 -4.92297,7.53515 -4.92297,12.25718 0,4.72202 1.6075,8.84124 4.92297,12.35764 3.31547,3.5164 7.33421,5.22438 11.95578,5.22438 2.31077,0 4.42062,-0.40188 6.22905,-1.20563 1.6075,-0.70329 3.11452,-1.6075 4.72202,-2.91359 l 0.50234,3.41593 h 8.23843 z m -23.91154,-9.34359 c 1.80843,-1.90891 4.01874,-2.81312 6.73139,-2.81312 2.71266,0 4.82251,0.90421 6.7314,2.9136 1.80845,1.90889 2.71265,4.32014 2.71265,6.93232 0,2.61219 -0.9042,4.92297 -2.71265,6.73139 -1.80843,1.90892 -3.91827,2.81314 -6.63093,2.81314 -2.71265,0 -4.92296,-0.90422 -6.83186,-2.81314 -1.80844,-1.90889 -2.71266,-4.21967 -2.71266,-6.93232 0,-2.61219 0.90422,-4.92297 2.71266,-6.83187 z"
   class="st0"
   id="XMLID_61_" /><path
   style="fill:#726658;fill-opacity:1;stroke-width:1.00469"
   inkscape:connector-curvature="0"
   d="m -272.89383,382.20858 c -1.40656,0 -2.71266,0.20094 -3.81781,0.50234 -0.90422,0.30141 -2.31078,1.0047 -4.01875,2.21032 0,-0.20095 0,-0.40188 0,-0.60282 v -1.6075 l -7.73608,0.10048 v 33.55651 h 7.73608 v -18.28529 c 0,-1.60748 0.20094,-2.81312 0.60282,-3.8178 0.40187,-0.90422 1.10515,-1.90891 2.21031,-2.71265 1.10515,-0.80376 2.21031,-1.30611 3.21499,-1.30611 l 2.31078,0.30142 v -8.3389 z"
   class="st0"
   id="XMLID_59_" /><g
   id="XMLID_3_"
   transform="matrix(1.0046865,0,0,1.0046865,-436.35633,244.06418)"
   style="fill:#726658;fill-opacity:1">
		<path
   style="fill:#726658;fill-opacity:1"
   inkscape:connector-curvature="0"
   d="m 172.3,135.4 c 1.3,0 2.3,-0.5 3.1,-1.5 0.8,-1 1.2,-2.1 1.2,-3.3 0,-1.3 -0.4,-2.4 -1.2,-3.4 -0.8,-1 -1.9,-1.5 -3.1,-1.5 -1.3,0 -2.4,0.5 -3.2,1.5 -0.7,1 -1.1,2.1 -1.1,3.4 0,1.3 0.4,2.5 1.2,3.4 0.8,0.9 1.8,1.4 3.1,1.4 z"
   class="st0"
   id="XMLID_46_" />
		<rect
   style="fill:#726658;fill-opacity:1"
   height="33.900002"
   width="7.0999999"
   class="st0"
   y="137.7"
   x="168.8"
   id="XMLID_47_" />
	</g><path
   style="fill:#726658;fill-opacity:1;stroke-width:1.00469"
   inkscape:connector-curvature="0"
   d="m -222.9609,386.9306 c -3.31547,-3.5164 -7.33423,-5.32483 -12.25719,-5.32483 -1.60749,0 -3.5164,0.3014 -5.4253,0.90421 -1.50703,0.50235 -2.71265,1.00468 -3.61687,1.70797 v -21.39982 h -8.0375 v 36.26918 c 0,4.92297 1.70797,9.14265 5.02343,12.55859 3.31547,3.41592 7.53514,5.22437 12.35765,5.22437 4.72203,0 8.74077,-1.70797 11.95578,-5.22437 3.21498,-3.41594 4.92295,-7.53516 4.92295,-12.25718 -0.10046,-4.72203 -1.70797,-8.9417 -4.92295,-12.45812 z m -2.61219,12.45812 c 0,2.61219 -0.90423,4.92297 -2.71266,6.83186 -1.80843,1.90892 -4.01875,2.91359 -6.53047,2.91359 -2.71265,0 -4.92297,-0.90421 -6.73139,-2.91359 -1.80843,-1.90889 -2.71265,-4.21967 -2.71265,-7.0328 0,-2.71264 0.90422,-5.02343 2.71265,-6.93234 1.80842,-1.90889 4.01874,-2.91358 6.73139,-2.91358 2.6122,0 4.8225,1.00469 6.63093,3.01405 1.70797,2.00938 2.6122,4.42062 2.6122,7.03281 z"
   class="st0"
   id="XMLID_55_" /><path
   style="fill:#726658;fill-opacity:1;stroke-width:1.00469"
   inkscape:connector-curvature="0"
   d="m -155.84786,382.8114 v 19.59138 c 0,1.90891 -0.70327,3.5164 -2.00936,4.92296 -1.40657,1.30609 -2.91359,2.00938 -4.8225,2.00938 -1.80844,0 -3.41593,-0.60281 -4.8225,-1.80845 -1.40656,-1.20562 -2.10984,-2.61217 -2.10984,-4.4206 V 382.8114 h -8.03749 v 22.1031 c 0,3.81781 1.70797,6.93234 4.92297,9.24311 2.91359,2.00937 6.32951,3.11453 10.14732,3.11453 3.81781,0 7.13328,-1.10516 9.9464,-3.11453 3.215,-2.41125 4.8225,-5.4253 4.8225,-9.14265 v -22.1031 h -8.0375 z"
   class="st0"
   id="XMLID_48_" /><g
   id="XMLID_4_"
   transform="matrix(1.2115703,0,0,1.2115703,-121.08776,199.94752)">
		<path
   style="fill:#726658"
   inkscape:connector-curvature="0"
   id="path2300"
   d="m 339.1,187.7 c 0.3,0.2 0.6,0.4 0.9,0.8 0.1,0.1 0.2,0.3 0.3,0.4 0.1,0.2 0.2,0.3 0.2,0.4 0,0.1 -0.1,0.2 -0.3,0.2 h -4.6 v -0.1 c 0,-0.1 0,-0.3 0.1,-0.4 0.1,-0.2 0.2,-0.3 0.3,-0.4 0.2,-0.3 0.5,-0.6 0.9,-0.8 0.4,-0.2 0.8,-0.3 1.1,-0.3 0.4,-0.1 0.7,0 1.1,0.2 m 3.5,2.9 c 0,-1.3 -0.5,-2.5 -1.4,-3.5 -0.9,-1 -2.1,-1.5 -3.4,-1.5 -1.3,0 -2.4,0.5 -3.3,1.4 -0.9,1 -1.3,2.1 -1.3,3.4 0,1.3 0.5,2.4 1.4,3.4 0.9,0.9 2,1.4 3.4,1.4 0.6,0 1.2,-0.1 1.8,-0.4 0.6,-0.3 1.1,-0.6 1.6,-1.1 l -1.2,-1.4 c -0.4,0.3 -0.7,0.6 -1,0.7 -0.4,0.2 -0.8,0.3 -1.2,0.3 -0.7,0 -1.2,-0.2 -1.7,-0.7 -0.2,-0.2 -0.3,-0.4 -0.5,-0.6 -0.2,-0.3 -0.3,-0.5 -0.3,-0.6 0,-0.1 0,-0.2 0.1,-0.2 0.1,0 0.2,-0.1 0.4,-0.1 h 6.8 v -0.5 z m -11.3,4.5 V 189 c 0,-1 -0.4,-1.8 -1.3,-2.5 -0.8,-0.6 -1.7,-0.9 -2.7,-0.9 -1.1,0 -2,0.3 -2.8,0.9 -0.8,0.6 -1.2,1.4 -1.2,2.4 v 6.1 h 2 v -5.6 c 0,-0.5 0.2,-1 0.6,-1.4 0.4,-0.4 0.9,-0.6 1.4,-0.6 0.6,0 1.1,0.2 1.4,0.6 0.4,0.4 0.6,0.9 0.6,1.5 v 5.3 h 2 z m -12.8,-6.6 c 0.5,0.6 0.8,1.3 0.8,2.1 0,0.8 -0.3,1.5 -0.8,2.1 -0.5,0.6 -1.2,0.9 -2,0.9 -0.8,0 -1.5,-0.3 -2,-0.9 -0.5,-0.6 -0.8,-1.3 -0.8,-2.1 0,-0.8 0.3,-1.5 0.8,-2.1 0.5,-0.6 1.2,-0.9 2,-0.9 0.8,0 1.5,0.3 2,0.9 m 0.6,6.9 c 0,0.3 0,0.6 -0.1,0.8 -0.2,0.8 -0.5,1.5 -1.2,1.9 -0.6,0.5 -1.4,0.7 -2.2,0.7 -0.6,0 -1.1,-0.1 -1.6,-0.4 -0.5,-0.3 -0.9,-0.7 -1.2,-1.2 l -1.5,1.1 c 1,1.6 2.5,2.4 4.4,2.4 1.5,0 2.8,-0.5 3.9,-1.5 1.1,-1 1.6,-2.3 1.6,-3.8 v -4.8 c 0,-1.3 -0.4,-2.5 -1.3,-3.5 -0.9,-1 -2,-1.4 -3.3,-1.4 -1.3,0 -2.4,0.5 -3.3,1.4 -0.9,0.9 -1.4,2.1 -1.4,3.4 0,1.4 0.5,2.5 1.4,3.5 0.9,0.9 2.1,1.4 3.5,1.4 0.9,0 1.8,-0.3 2.4,-0.8 -0.1,0.3 -0.1,0.5 -0.1,0.8 m -9.2,-9.7 h -1.7 v 9.3 h 1.7 z m -0.1,-1.3 c 0.2,-0.3 0.3,-0.5 0.3,-0.9 0,-0.3 -0.1,-0.6 -0.3,-0.9 -0.2,-0.3 -0.5,-0.4 -0.8,-0.4 -0.3,0 -0.6,0.1 -0.8,0.4 -0.2,0.2 -0.3,0.5 -0.3,0.9 0,0.3 0.1,0.6 0.3,0.9 0.2,0.2 0.5,0.4 0.8,0.4 0.4,0 0.6,-0.1 0.8,-0.4 m -3.8,-4.2 h -1.6 v 14.9 h 1.6 z m -10.2,14.9 V 189 c 0,-1 -0.4,-1.8 -1.3,-2.5 -0.8,-0.6 -1.7,-0.9 -2.7,-0.9 -1.1,0 -2,0.3 -2.8,0.9 -0.8,0.6 -1.2,1.4 -1.2,2.4 v 6.1 h 2 v -5.6 c 0,-0.5 0.2,-1 0.6,-1.4 0.4,-0.4 0.9,-0.6 1.4,-0.6 0.6,0 1.1,0.2 1.4,0.6 0.4,0.4 0.6,0.9 0.6,1.5 v 5.3 h 2 z m -13.3,-7.4 c 0.3,0.2 0.6,0.4 0.9,0.8 0.1,0.1 0.2,0.3 0.3,0.4 0.1,0.1 0.2,0.3 0.2,0.4 0,0.1 -0.1,0.2 -0.3,0.2 H 279 v -0.1 c 0,-0.1 0,-0.3 0.1,-0.4 0.1,-0.2 0.2,-0.3 0.3,-0.4 0.2,-0.3 0.5,-0.6 0.9,-0.8 0.4,-0.2 0.8,-0.3 1.1,-0.3 0.4,-0.1 0.7,0 1.1,0.2 m 3.5,2.9 c 0,-1.3 -0.5,-2.5 -1.4,-3.5 -0.9,-1 -2.1,-1.5 -3.4,-1.5 -1.3,0 -2.4,0.5 -3.3,1.4 -0.9,1 -1.3,2.1 -1.3,3.4 0,1.3 0.5,2.4 1.4,3.4 0.9,0.9 2,1.4 3.4,1.4 0.6,0 1.2,-0.1 1.8,-0.4 0.6,-0.3 1.1,-0.6 1.6,-1.1 l -1.2,-1.4 c -0.4,0.3 -0.7,0.6 -1,0.7 -0.4,0.2 -0.8,0.3 -1.2,0.3 -0.7,0 -1.2,-0.2 -1.7,-0.7 -0.2,-0.2 -0.4,-0.4 -0.5,-0.6 -0.2,-0.3 -0.3,-0.5 -0.3,-0.6 0,-0.1 0,-0.2 0.1,-0.2 0.1,0 0.2,-0.1 0.4,-0.1 h 6.8 v -0.5 z m -20.8,-3 c 0.3,0.2 0.6,0.4 0.9,0.8 0.1,0.2 0.2,0.3 0.3,0.4 0.1,0.2 0.2,0.4 0.2,0.5 0,0.1 -0.1,0.2 -0.3,0.2 h -4.6 v -0.1 c 0,-0.1 0,-0.2 0.1,-0.4 0.1,-0.2 0.2,-0.3 0.3,-0.5 0.2,-0.3 0.5,-0.6 0.9,-0.8 0.4,-0.2 0.8,-0.3 1.2,-0.3 0.3,-0.1 0.7,0 1,0.2 m 3.6,3 c 0,-1.4 -0.5,-2.5 -1.4,-3.5 -0.9,-1 -2.1,-1.5 -3.4,-1.5 -1.3,0 -2.4,0.5 -3.3,1.5 -0.9,1 -1.3,2.1 -1.3,3.5 0,1.3 0.5,2.5 1.4,3.4 0.9,0.9 2,1.4 3.4,1.4 0.6,0 1.2,-0.1 1.8,-0.4 0.6,-0.3 1.1,-0.6 1.6,-1.1 l -1.2,-1.4 c -0.4,0.3 -0.7,0.5 -1,0.7 -0.4,0.2 -0.8,0.3 -1.2,0.3 -0.7,0 -1.2,-0.2 -1.7,-0.7 -0.2,-0.2 -0.4,-0.4 -0.5,-0.6 -0.2,-0.3 -0.3,-0.5 -0.3,-0.6 0,-0.2 0.1,-0.3 0.3,-0.3 h 0.2 6.8 v -0.7 z m -1.8,-8.7 h -2.7 l -1.7,3.2 h 1.6 z m -15.6,4 v -5.7 h -2 v 14.9 h 2 v -5.5 c 0,-0.6 0.2,-1.1 0.7,-1.5 0.5,-0.4 1,-0.7 1.5,-0.7 0.6,0 1.1,0.3 1.4,0.8 0.3,0.4 0.4,1 0.4,1.6 v 5.3 h 2 v -6 c 0,-1 -0.3,-1.8 -1,-2.5 -0.7,-0.7 -1.5,-1 -2.5,-1 -0.7,0 -1.4,0.1 -2,0.4 l -0.5,0.2 z m -3.5,1.3 c -0.6,-0.5 -1.1,-0.9 -1.7,-1.1 -0.6,-0.3 -1.3,-0.4 -2,-0.4 -1.3,0 -2.4,0.5 -3.2,1.4 -0.8,0.9 -1.3,2.1 -1.3,3.4 0,1.3 0.4,2.5 1.3,3.4 0.9,0.9 2,1.4 3.3,1.4 0.6,0 1.2,-0.1 1.9,-0.4 0.6,-0.3 1.1,-0.7 1.5,-1.1 l -1.3,-1.3 c -0.3,0.3 -0.6,0.6 -0.9,0.7 -0.3,0.2 -0.7,0.3 -1.1,0.3 -0.6,0 -1.1,-0.2 -1.6,-0.5 -0.9,-0.6 -1.3,-1.4 -1.3,-2.4 0,-0.8 0.3,-1.5 0.8,-2.1 0.5,-0.6 1.2,-0.8 2,-0.8 0.8,0 1.6,0.3 2.2,0.9 z m -11.2,-1.1 v -0.3 h -1.9 v 9.2 h 1.9 v -5 c 0,-0.5 0.1,-0.8 0.2,-1.1 0.1,-0.3 0.4,-0.6 0.7,-0.8 0.3,-0.3 0.7,-0.4 1,-0.4 l 0.5,0.1 v -2 c -0.4,0 -0.7,0 -1,0.1 -0.3,0.1 -0.8,0.4 -1.4,0.8 0,-0.1 0,-0.3 0,-0.6 m -6.7,2.3 c 0.5,0.6 0.8,1.3 0.8,2.1 0,0.8 -0.3,1.5 -0.8,2 -0.5,0.6 -1.2,0.8 -2,0.8 -0.8,0 -1.5,-0.3 -2,-0.8 -0.5,-0.6 -0.8,-1.2 -0.8,-2.1 0,-0.8 0.3,-1.5 0.8,-2.1 0.5,-0.6 1.2,-0.9 2,-0.9 0.8,0 1.4,0.4 2,1 m 3.3,6.6 -0.6,-3.9 c -0.1,-0.4 -0.1,-0.8 -0.2,-1.3 -0.1,-0.5 -0.1,-0.7 -0.2,-0.9 -0.2,-1 -0.7,-1.8 -1.5,-2.4 -0.9,-0.6 -1.8,-0.9 -2.8,-0.9 -1.3,0 -2.4,0.5 -3.3,1.4 -0.9,0.9 -1.4,2.1 -1.4,3.4 0,1.3 0.4,2.4 1.3,3.4 0.9,1 2,1.4 3.3,1.4 0.6,0 1.2,-0.1 1.7,-0.3 0.5,-0.2 1,-0.5 1.5,-1 l 0.2,1.1 z m -12,0.1 v -6 c 0,-1 -0.4,-1.8 -1.2,-2.5 -0.8,-0.6 -1.7,-0.9 -2.7,-0.9 -0.5,0 -1,0.1 -1.5,0.3 -0.5,0.2 -0.9,0.5 -1.3,0.8 -0.3,-0.4 -0.7,-0.7 -1.2,-0.8 -0.5,-0.2 -1,-0.2 -1.6,-0.2 -1,0 -1.9,0.3 -2.7,0.9 -0.9,0.6 -1.3,1.5 -1.3,2.5 v 6 h 2 v -5.5 c 0,-0.6 0.2,-1.1 0.6,-1.4 0.4,-0.4 0.9,-0.5 1.5,-0.5 0.5,0 0.9,0.1 1.2,0.4 0.3,0.3 0.4,0.7 0.4,1.2 v 5.8 h 2 v -5.9 c 0,-0.4 0.2,-0.8 0.6,-1.1 0.4,-0.3 0.8,-0.5 1.2,-0.5 0.6,0 1,0.2 1.4,0.6 0.4,0.4 0.5,0.9 0.5,1.5 v 5.3 z M 198,194.4 c 0.9,-0.6 1.3,-1.5 1.3,-2.5 v -6.1 h -2 v 5.4 c 0,0.6 -0.2,1.1 -0.6,1.5 -0.4,0.4 -0.9,0.6 -1.5,0.6 -0.5,0 -1,-0.2 -1.5,-0.6 -0.4,-0.4 -0.6,-0.8 -0.6,-1.4 v -5.6 h -2 v 6.1 c 0,1 0.4,1.9 1.3,2.5 0.8,0.6 1.7,0.8 2.8,0.8 1.1,0.2 2,-0.1 2.8,-0.7 m -11.9,-6.1 c 0.5,0.6 0.8,1.3 0.8,2.1 0,0.8 -0.3,1.5 -0.8,2.1 -0.5,0.6 -1.2,0.9 -2,0.9 -0.8,0 -1.4,-0.3 -2,-0.9 -0.5,-0.6 -0.8,-1.3 -0.8,-2 0,-0.8 0.3,-1.5 0.8,-2.1 0.5,-0.6 1.2,-0.9 2,-0.9 0.8,-0.1 1.5,0.2 2,0.8 m -0.4,-2.5 c -0.6,-0.2 -1.1,-0.3 -1.5,-0.3 -1.3,0 -2.5,0.5 -3.4,1.4 -0.9,1 -1.3,2.1 -1.3,3.5 0,1.3 0.4,2.4 1.3,3.4 0.9,0.9 2,1.4 3.3,1.4 1.3,0 2.5,-0.5 3.4,-1.4 0.9,-1 1.4,-2.1 1.4,-3.4 v -10.1 h -2 v 6.3 c -0.2,-0.4 -0.6,-0.6 -1.2,-0.8 m -17.3,3.7 v 1.5 c 0,1.2 0.4,2.1 1.1,2.9 0.7,0.8 1.7,1.2 2.9,1.3 v -1.9 c -0.8,-0.2 -1.4,-0.5 -1.7,-0.9 -0.3,-0.5 -0.5,-1.1 -0.5,-2 v -2.6 c 0,-0.1 0,-0.2 0.1,-0.2 h 0.2 1.8 v -1.9 h -2 c -0.1,0 -0.1,-0.1 -0.1,-0.2 v -0.1 -2.3 h -1.9 v 1.9 0.5 c 0,0.1 0,0.2 -0.1,0.2 0,0 -0.2,0 -0.4,0 h -0.4 v 1.9 h 0.7 c 0.1,0 0.1,0.1 0.1,0.4 v 1.5 z m -3.5,4.9 c 0.9,-0.6 1.3,-1.5 1.3,-2.5 v -6.2 h -2 v 5.5 c 0,0.6 -0.2,1.1 -0.6,1.5 -0.4,0.4 -0.9,0.6 -1.5,0.6 -0.6,0 -1.1,-0.2 -1.5,-0.6 -0.4,-0.4 -0.6,-0.8 -0.6,-1.4 v -5.7 h -2 v 6.2 c 0,1 0.4,1.9 1.3,2.5 0.8,0.6 1.7,0.9 2.8,0.9 1.1,0.1 2,-0.2 2.8,-0.8 m 0.7,-9.3 -2.4,-3.2 h -2.1 l -2.4,3.2 h 2.2 l 1.3,-2 1.3,2 z m -12,3.3 c 0.5,0.6 0.8,1.2 0.8,2 0,0.8 -0.3,1.4 -0.8,2 -0.5,0.6 -1.2,0.8 -2,0.8 -0.8,0 -1.5,-0.3 -2,-0.8 -0.5,-0.6 -0.8,-1.2 -0.8,-2 0,-0.8 0.3,-1.5 0.8,-2 0.5,-0.6 1.2,-0.8 2,-0.8 0.8,0 1.4,0.3 2,0.8 m 1.2,5.4 c 0.9,-0.9 1.4,-2 1.4,-3.3 0,-1.3 -0.5,-2.4 -1.4,-3.4 -0.9,-0.9 -2,-1.4 -3.3,-1.4 -1.3,0 -2.4,0.5 -3.3,1.4 -0.9,0.9 -1.4,2 -1.4,3.3 0,1.3 0.5,2.4 1.4,3.4 0.9,0.9 2,1.4 3.3,1.4 1.3,0 2.4,-0.5 3.3,-1.4 m -12.4,-5.3 c 0.5,0.6 0.8,1.3 0.8,2.1 0,0.8 -0.3,1.5 -0.8,2.1 -0.5,0.6 -1.2,0.9 -2,0.9 -0.8,0 -1.5,-0.3 -2,-0.9 -0.5,-0.6 -0.8,-1.3 -0.8,-2.1 0,-0.8 0.3,-1.5 0.8,-2.1 0.5,-0.6 1.2,-0.9 2,-0.9 0.8,0 1.4,0.3 2,0.9 m 0.5,6.9 c 0,0.3 0,0.6 -0.1,0.8 -0.2,0.8 -0.5,1.5 -1.2,1.9 -0.6,0.5 -1.4,0.7 -2.2,0.7 -0.6,0 -1.1,-0.1 -1.6,-0.4 -0.5,-0.3 -0.9,-0.7 -1.2,-1.2 l -1.5,1.1 c 1,1.6 2.5,2.4 4.4,2.4 1.5,0 2.8,-0.5 3.9,-1.5 1.1,-1 1.6,-2.3 1.6,-3.8 v -4.8 c 0,-1.3 -0.4,-2.5 -1.3,-3.5 -0.9,-1 -2,-1.4 -3.3,-1.4 -1.3,0 -2.4,0.5 -3.3,1.4 -0.9,0.9 -1.4,2.1 -1.4,3.4 0,1.4 0.5,2.5 1.4,3.5 0.9,1 2.1,1.4 3.5,1.4 0.9,0 1.8,-0.3 2.4,-0.8 -0.1,0.3 -0.1,0.5 -0.1,0.8 m -15.5,-0.3 V 189 c 0,-1 -0.4,-1.8 -1.3,-2.5 -0.8,-0.6 -1.7,-0.9 -2.7,-0.9 -1.1,0 -2,0.3 -2.8,0.9 -0.8,0.6 -1.2,1.4 -1.2,2.4 v 6.1 h 2 v -5.6 c 0,-0.5 0.2,-1 0.6,-1.4 0.4,-0.4 0.9,-0.6 1.4,-0.6 0.6,0 1.1,0.2 1.4,0.6 0.4,0.4 0.6,0.9 0.6,1.5 v 5.3 h 2 z m -12.5,-6.7 c 0.5,0.6 0.8,1.2 0.8,2 0,0.8 -0.3,1.4 -0.8,2 -0.5,0.6 -1.2,0.8 -2,0.8 -0.8,0 -1.5,-0.3 -2,-0.8 -0.5,-0.6 -0.8,-1.2 -0.8,-2 0,-0.8 0.3,-1.5 0.8,-2 0.6,-0.6 1.2,-0.8 2,-0.8 0.8,0 1.4,0.3 2,0.8 m 1.2,5.4 c 0.9,-0.9 1.4,-2 1.4,-3.3 0,-1.3 -0.4,-2.4 -1.4,-3.4 -0.9,-0.9 -2,-1.4 -3.3,-1.4 -1.3,0 -2.4,0.5 -3.3,1.4 -0.9,0.9 -1.4,2 -1.4,3.3 0,1.3 0.5,2.4 1.4,3.4 0.9,0.9 2,1.4 3.3,1.4 1.3,0 2.4,-0.5 3.3,-1.4 m -12.2,-5.5 c 0.5,0.6 0.8,1.3 0.8,2.1 0,0.8 -0.3,1.5 -0.8,2 -0.5,0.5 -1.2,0.9 -2,0.9 -0.8,0 -1.5,-0.3 -2,-0.9 -0.5,-0.6 -0.8,-1.3 -0.8,-2.1 0,-0.8 0.3,-1.5 0.8,-2.1 0.5,-0.6 1.2,-0.9 2,-0.9 0.8,0.1 1.5,0.4 2,1 m -4.8,-8.1 h -2 v 10.1 c 0,1.3 0.5,2.5 1.4,3.5 0.9,1 2.1,1.4 3.4,1.4 1.3,0 2.4,-0.5 3.3,-1.4 0.9,-0.9 1.3,-2.1 1.3,-3.4 0,-1.3 -0.4,-2.5 -1.3,-3.5 -0.9,-1 -2,-1.5 -3.3,-1.5 -0.5,0 -1,0.1 -1.5,0.3 -0.6,0.2 -1,0.4 -1.2,0.7 v -6.2 z m -13.7,7.5 c 0.3,0.2 0.6,0.4 0.9,0.8 0.1,0.1 0.2,0.3 0.3,0.4 0.1,0.1 0.2,0.3 0.2,0.4 0,0.1 -0.1,0.2 -0.3,0.2 h -4.6 v -0.1 c 0,-0.1 0,-0.3 0.1,-0.4 0.1,-0.2 0.2,-0.3 0.3,-0.4 0.2,-0.3 0.5,-0.6 0.9,-0.8 0.4,-0.2 0.8,-0.3 1.1,-0.3 0.4,-0.1 0.8,0 1.1,0.2 m 3.6,2.9 c 0,-1.3 -0.5,-2.5 -1.4,-3.5 -0.9,-1 -2.1,-1.5 -3.4,-1.5 -1.3,0 -2.4,0.5 -3.3,1.4 -0.9,1 -1.3,2.1 -1.3,3.4 0,1.3 0.5,2.4 1.4,3.4 0.9,0.9 2,1.4 3.4,1.4 0.6,0 1.2,-0.1 1.8,-0.4 0.6,-0.3 1.1,-0.6 1.6,-1.1 l -1.2,-1.4 c -0.4,0.3 -0.7,0.6 -1,0.7 -0.4,0.2 -0.8,0.3 -1.2,0.3 -0.7,0 -1.2,-0.2 -1.7,-0.7 -0.2,-0.2 -0.4,-0.4 -0.5,-0.6 -0.2,-0.3 -0.3,-0.5 -0.3,-0.6 0,-0.1 0,-0.2 0.1,-0.2 0.1,0 0.2,-0.1 0.4,-0.1 H 89 Z M 77.6,180.2 H 76 v 14.9 h 1.6 z"
   class="st0" />
	</g>
<rect
   id="XMLID_78_"
   x="5.9022179"
   y="444.94638"
   class="st0"
   width="33.700001"
   height="101.9"
   style="fill:#726658" />
<rect
   id="XMLID_77_"
   x="44.602222"
   y="444.94638"
   class="st1"
   width="33.700001"
   height="101.9"
   style="fill:#b0d6c3" />
<rect
   id="XMLID_76_"
   x="83.202225"
   y="444.94638"
   class="st2"
   width="33.700001"
   height="101.9"
   style="fill:#c4b19c" />
<rect
   id="XMLID_75_"
   x="121.90222"
   y="444.94638"
   class="st3"
   width="33.700001"
   height="101.9"
   style="fill:#8dc63f" />
<rect
   id="XMLID_74_"
   x="160.60222"
   y="444.94638"
   class="st4"
   width="33.700001"
   height="101.9"
   style="fill:#890822" />
<rect
   id="XMLID_73_"
   x="199.30223"
   y="444.94638"
   class="st5"
   width="33.700001"
   height="101.9"
   style="fill:#00a79d" />
<rect
   id="XMLID_72_"
   x="238.00221"
   y="444.94638"
   class="st6"
   width="33.700001"
   height="101.9"
   style="fill:#da1c5c" />
<rect
   id="XMLID_71_"
   x="276.6022"
   y="444.94638"
   class="st7"
   width="33.700001"
   height="101.9"
   style="fill:#f7941e" />
<rect
   id="XMLID_1_"
   x="-32.797779"
   y="444.94638"
   class="st8"
   width="33.700001"
   height="101.9"
   style="fill:#452d16" />
<g
   transform="matrix(1.2013325,0,0,1.2013325,292.19875,432.09641)"
   style="fill:#ff0000;fill-opacity:1"
   id="g4334"><rect
     ry="0"
     y="-285.99399"
     x="-139.80077"
     height="9.5650644"
     width="9.4562101"
     id="rect4336"
     style="fill:#ff0000;fill-opacity:1;fill-rule:evenodd;stroke:none;stroke-width:1.02743" /><rect
     ry="0"
     y="-266.44217"
     x="-120.60822"
     height="9.5650644"
     width="9.4562101"
     id="rect4338"
     style="fill:#ff0000;fill-opacity:1;fill-rule:evenodd;stroke:none;stroke-width:1.02743" /><rect
     ry="0"
     y="-295.73734"
     x="-130.27676"
     height="9.5650644"
     width="9.4562101"
     id="rect4340"
     style="fill:#ff0000;fill-opacity:1;fill-rule:evenodd;stroke:none;stroke-width:1.02743" /><rect
     ry="0"
     y="-305.53409"
     x="-120.81097"
     height="9.5650644"
     width="9.4562101"
     id="rect4342"
     style="fill:#ff0000;fill-opacity:1;fill-rule:evenodd;stroke:none;stroke-width:1.02743" /><rect
     ry="0"
     y="-276.12848"
     x="-130.27676"
     height="9.5650644"
     width="9.4562101"
     id="rect4344"
     style="fill:#ff0000;fill-opacity:1;fill-rule:evenodd;stroke:none;stroke-width:1.02743" /><rect
     ry="0"
     y="-266.42792"
     x="-149.41496"
     height="9.5650644"
     width="9.4562101"
     id="rect4346"
     style="fill:#ff0000;fill-opacity:1;fill-rule:evenodd;stroke:none;stroke-width:1.02743" /><rect
     ry="0"
     y="-276.20447"
     x="-149.41496"
     height="9.5650644"
     width="9.4562101"
     id="rect4348"
     style="fill:#ff0000;fill-opacity:1;fill-rule:evenodd;stroke:none;stroke-width:1.02743" /><rect
     ry="0"
     y="-295.73734"
     x="-149.41496"
     height="9.5650644"
     width="9.4562101"
     id="rect4350"
     style="fill:#ff0000;fill-opacity:1;fill-rule:evenodd;stroke:none;stroke-width:1.02743" /><rect
     ry="0"
     y="-305.53409"
     x="-149.41496"
     height="9.5650644"
     width="9.4562101"
     id="rect4352"
     style="fill:#ff0000;fill-opacity:1;fill-rule:evenodd;stroke:none;stroke-width:1.02743" /><rect
     style="fill:#ff0000;fill-opacity:1;fill-rule:evenodd;stroke:none;stroke-width:1.02743"
     id="rect4354"
     width="9.4562101"
     height="9.5650644"
     x="-149.41496"
     y="-285.98099"
     ry="0" /></g><rect
   transform="rotate(90)"
   y="-82.56076"
   x="7.9943852"
   height="31.238226"
   width="31.238226"
   id="rect4358"
   style="display:inline;fill:#e5e7ea;fill-opacity:1;stroke:none;stroke-width:6.33984" /><rect
   transform="rotate(90)"
   y="-219.34473"
   x="7.9943852"
   height="31.238226"
   width="31.238226"
   id="rect4360"
   style="display:inline;fill:#e5e7ea;fill-opacity:1;stroke:none;stroke-width:6.33984" /><rect
   transform="rotate(90)"
   y="-150.95285"
   x="7.9943852"
   height="31.238226"
   width="31.238226"
   id="rect4362"
   style="display:inline;fill:#e5e7ea;fill-opacity:1;stroke:none;stroke-width:6.33984" /><rect
   transform="scale(-1)"
   y="-39.232555"
   x="-253.54074"
   height="31.238226"
   width="31.238226"
   id="rect4370"
   style="font-style:normal;font-variant:normal;font-weight:normal;font-stretch:condensed;font-size:13px;line-height:125%;font-family:Impact;-inkscape-font-specification:'Impact Condensed';text-align:start;writing-mode:lr-tb;text-anchor:start;display:inline;fill:#e5e7ea;fill-opacity:1;stroke:none;stroke-width:6.33984" /><rect
   y="0.78631973"
   x="-146.42741"
   height="35.561619"
   width="35.561619"
   id="rect4388"
   style="display:inline;fill:#e5e7ea;fill-opacity:1;stroke:none;stroke-width:7.21728" /><rect
   transform="rotate(90)"
   y="110.86586"
   x="-38.142452"
   height="35.561619"
   width="35.561619"
   id="rect4390"
   style="display:inline;fill:#e5e7ea;fill-opacity:1;stroke:none;stroke-width:7.21728" /><rect
   transform="rotate(90)"
   y="-116.7568"
   x="7.9943852"
   height="31.238226"
   width="31.238226"
   id="rect4392"
   style="display:inline;fill:#e5e7ea;fill-opacity:1;stroke:none;stroke-width:6.33984" /><rect
   transform="rotate(90)"
   y="110.86586"
   x="39.715107"
   height="35.561619"
   width="35.561619"
   id="rect4394"
   style="display:inline;fill:#e5e7ea;fill-opacity:1;stroke:none;stroke-width:7.21728" /><rect
   transform="rotate(90)"
   y="-253.54074"
   x="42.190323"
   height="31.238226"
   width="31.238226"
   id="rect4396"
   style="display:inline;fill:#e5e7ea;fill-opacity:1;stroke:none;stroke-width:6.33984" /><rect
   transform="scale(-1)"
   y="-36.347996"
   x="344.43839"
   height="35.561619"
   width="35.561619"
   id="rect4400"
   style="display:inline;fill:#e5e7ea;fill-opacity:1;stroke:none;stroke-width:7.21728" /><rect
   transform="rotate(90)"
   y="344.43839"
   x="-38.142361"
   height="35.561619"
   width="35.561619"
   id="rect4404"
   style="display:inline;fill:#e5e7ea;fill-opacity:1;stroke:none;stroke-width:7.21728" /><rect
   transform="scale(-1)"
   y="-73.428558"
   x="-48.364735"
   height="31.238226"
   width="31.238226"
   id="rect4406"
   style="display:inline;fill:#e5e7ea;fill-opacity:1;stroke:none;stroke-width:6.33984" /><rect
   transform="scale(-1)"
   y="-75.276749"
   x="344.43839"
   height="35.561619"
   width="35.561619"
   id="rect4408"
   style="display:inline;fill:#e5e7ea;fill-opacity:1;stroke:none;stroke-width:7.21728" /><rect
   transform="rotate(90)"
   y="-82.56076"
   x="7.9943852"
   height="31.238226"
   width="31.238226"
   id="rect4372"
   style="display:inline;fill:#e5e7ea;fill-opacity:1;stroke:none;stroke-width:6.33984" /><g
   style="display:inline;fill:#ffffff;fill-opacity:1"
   transform="matrix(1.403272,0,0,1.403272,-299.14243,-464.81756)"
   id="g23273"
   inkscape:export-filename="/home/evaleto/nodejs/karibou.ch/karibou-seed/src/assets/img/bretzel-spread-lg.jpg"
   inkscape:export-xdpi="552.70001"
   inkscape:export-ydpi="552.70001"><path
     inkscape:connector-curvature="0"
     sodipodi:nodetypes="csscccsssc"
     id="path22405-0"
     d="m 268.21983,343.12795 c -2.73821,-2.96647 -7.3624,-3.1484 -10.32887,-0.41017 -0.82252,0.75923 -1.43118,1.66288 -1.82301,2.63659 -3.4e-4,8.5e-4 -0.003,0.002 -0.003,0.003 l -4.6548,2.41616 4.15433,0.87175 c 0.0548,0.72161 0.20993,1.43655 0.47936,2.12111 0.32229,0.8188 0.80145,1.5916 1.43415,2.27709 2.73819,2.96646 7.36216,3.15459 10.32862,0.41644 2.96647,-2.7382 3.15162,-7.36538 0.41345,-10.33184 z"
     style="display:inline;fill:#ffffff;fill-opacity:1;stroke:none" /><g
     inkscape:export-ydpi="93.269997"
     inkscape:export-xdpi="93.269997"
     inkscape:export-filename="/home/evaleto/Documents/karibou/mailchimp/123.png"
     style="display:inline;opacity:1;fill:#ffffff;fill-opacity:1"
     id="g5349-4-1"
     inkscape:label="Camada 1"
     transform="matrix(0.0317705,0,0,0.02809442,252.80067,340.78848)"><path
       inkscape:connector-curvature="0"
       d="m 302.71,225.94 c -39.487,-51.144 -78.02,-26.379 -87.248,8.373 -21.683,81.658 87.182,124.84 87.182,124.84 0,0 117.98,-43.609 94.504,-125.51 -9.1125,-31.79 -55.313,-59.016 -94.438,-7.7015 z"
       style="fill:#ffffff;fill-opacity:1;stroke:none"
       sodipodi:nodetypes="cscsc"
       id="path5351-8-0" /></g></g><g
   inkscape:groupmode="layer"
   id="layer1"
   inkscape:label="v1"
   style="display:none"
   transform="translate(-72.797779,-209.85362)" /><g
   inkscape:label="v2"
   id="g3165"
   inkscape:groupmode="layer"
   transform="translate(-72.797779,-209.85362)" /><text
   xml:space="preserve"
   style="font-style:normal;font-variant:normal;font-weight:normal;font-stretch:normal;font-size:15.7517px;line-height:125%;font-family:Arial;-inkscape-font-specification:Arial;text-align:start;letter-spacing:0px;word-spacing:0px;text-anchor:start;fill:#726658;fill-opacity:1;stroke:none;stroke-width:0.98448px;stroke-linecap:butt;stroke-linejoin:miter;stroke-opacity:1"
   x="-365.18982"
   y="435.42361"
   id="text3169"
   transform="scale(0.9849356,1.0152948)"><tspan
     sodipodi:role="line"
     id="tspan3167"
     x="-365.18982"
     y="435.42361"
     style="fill:#726658;fill-opacity:1;stroke-width:0.98448px">retrouver le plaisir de faire son marché </tspan></text>
<rect
   transform="rotate(90)"
   y="-48.364735"
   x="77.077019"
   height="31.238226"
   width="31.238226"
   id="rect4382"
   style="display:inline;fill:#e5e7ea;fill-opacity:1;stroke:none;stroke-width:6.33984" /><g
   style="fill:#ffffff;fill-opacity:1"
   inkscape:label="Calque 1"
   id="g1703"
   transform="matrix(1.2722483,0,0,1.2622093,-93.291491,-87.750253)"><g
     inkscape:export-ydpi="512.03998"
     inkscape:export-xdpi="512.03998"
     id="g1701"
     transform="matrix(0.49160875,0,0,-0.49160872,38.14753,332.22864)"
     style="display:inline;fill:#ffffff;fill-opacity:1"><g
       id="g1695"
       transform="translate(118.4579,391.7334)"
       style="fill:#ffffff;fill-opacity:1"><path
         d="M 0,0 C 1.395,0.844 1.935,1.058 2.531,1.226 2.316,2.785 2.436,4.251 3.001,5.738 3.368,6.707 1.826,7.154 1.46,6.192 0.848,4.582 0.725,2.916 0.915,1.234 -0.239,4.263 -2.013,7.032 -4.122,9.488 -4.799,10.277 -5.963,9.17 -5.291,8.387 -4.347,7.288 -3.474,6.113 -2.695,4.879 -1.693,3.193 -1.252,2.23 -1.086,1.554 -3.052,3.411 -4.25,5.875 -5.407,8.326 -5.847,9.261 -7.21,8.408 -6.772,7.481 c 0.665,-1.41 1.349,-2.777 2.156,-4.045 -0.99,1.07 -1.899,2.219 -2.717,3.414 -0.582,0.852 -1.952,0.013 -1.366,-0.844 1.828,-2.673 4.043,-5.102 6.672,-7.001 -1.577,0.619 -3.218,0.931 -4.931,0.756 -1.024,-0.104 -0.991,-1.71 0.04,-1.605 1.582,0.161 3.08,-0.121 4.53,-0.733 C -2.032,-1.904 -1.395,-0.844 0,0"
         style="fill:#ffffff;fill-opacity:1;fill-rule:nonzero;stroke:none"
         id="path1693"
         inkscape:connector-curvature="0" /></g><g
       id="g1699"
       transform="translate(137.5089,373.1709)"
       style="fill:#ffffff;fill-opacity:1"><path
         d="m 0,0 -8.807,13.245 c -1.512,-0.492 -2.563,-1.326 -3.024,-1.991 -0.496,-0.735 -1.054,-0.57 -1.379,-0.273 -0.324,0.296 -0.439,0.628 0.251,1.436 0.362,0.424 0.839,0.903 1.571,1.362 0.454,0.286 1.011,0.563 1.673,0.831 l -2.679,4.029 c -0.527,0.606 -1.228,0.924 -2.068,0.924 -1.241,0 -2.948,-0.931 -3.918,-1.593 -0.596,-0.407 -1.068,-0.814 -1.321,-1.067 -0.319,-0.32 -0.684,-0.806 -1.012,-1.381 -0.53,-0.933 -0.96,-2.102 -0.929,-3.192 0.027,-0.938 0.387,-1.721 1.067,-2.326 l 0.789,-0.574 c 0.147,1.681 0.601,3.273 1.817,4.656 0.684,0.78 1.816,-0.36 1.136,-1.136 -1.16,-1.319 -1.405,-2.964 -1.42,-4.634 l 5.142,-3.736 c 0.264,1.098 0.737,2.14 1.567,3.083 0.684,0.78 1.816,-0.36 1.135,-1.135 -0.769,-0.876 -1.134,-1.895 -1.299,-2.969 l 8.817,-6.409 c 0.554,-0.49 1.14,-0.741 1.717,-0.741 0.745,0 1.4,0.419 1.709,1.092 C 0.892,-1.717 0.697,-0.806 0,0"
         style="fill:#ffffff;fill-opacity:1;fill-rule:nonzero;stroke:none"
         id="path1697"
         inkscape:connector-curvature="0" /></g></g></g><rect
   transform="rotate(90)"
   y="-253.54079"
   x="42.190338"
   height="31.238226"
   width="31.238226"
   id="rect4374"
   style="display:inline;fill:#e5e7ea;fill-opacity:1;stroke:none;stroke-width:6.33984" /><g
   style="fill:#ffffff;fill-opacity:1"
   inkscape:label="Calque 1"
   id="g1709"
   transform="matrix(1.2088433,0,0,1.1993047,104.79784,-103.63852)"><g
     inkscape:export-ydpi="443.94"
     inkscape:export-xdpi="443.94"
     transform="matrix(0.49160877,0,0,-0.49160877,118.10547,130.23228)"
     id="g1707"
     style="display:inline;fill:#ffffff;fill-opacity:1"><path
       inkscape:connector-curvature="0"
       id="path1705"
       style="fill:#ffffff;fill-opacity:1;fill-rule:nonzero;stroke:none"
       d="m 0,0 c -0.761,2.151 -3.053,0.771 -4.716,0.397 -0.711,-0.159 -1.44,-0.236 -2.592,-0.419 1.929,2.692 4,4.975 2.28,8.33 -4.045,-8.116 -18.056,-8.214 -22.549,-0.048 -1.441,-3.305 0.339,-5.645 2.716,-8.456 -1.653,0.379 -2.511,0.571 -3.366,0.772 -1.446,0.34 -3.279,1.22 -4.184,-0.23 -0.91,-1.457 0.239,-4.587 2.116,-4.963 5.528,-1.105 3.981,-2.132 4.161,-6.345 0.076,-1.762 2.192,-7.503 4.073,-8.34 0.166,-1.732 -0.364,-3.985 1.494,-4.727 3.207,-1.282 4.574,-1.149 7.88,-0.533 2.965,0.553 2.297,3.915 2.397,5.147 2.802,2.022 4.252,5.463 4.089,8.756 -0.122,2.46 -0.496,4.426 3.159,4.895 C -0.437,-5.429 0.854,-2.413 0,0 m -21.409,-10.126 c -1.97,1.608 -1.814,2.856 -0.674,4.558 1.399,-1.465 1.116,-2.719 0.674,-4.558 m 11.179,0.142 c -0.953,1.517 -0.645,2.675 -0.032,4.273 1.848,-1.695 1.366,-2.846 0.032,-4.273" /></g></g><rect
   transform="rotate(90)"
   y="-150.95285"
   x="7.9943852"
   height="31.238226"
   width="31.238226"
   id="rect4376"
   style="display:inline;fill:#e5e7ea;fill-opacity:1;stroke:none;stroke-width:6.33984" /><g
   style="fill:#ffffff;fill-opacity:1"
   inkscape:label="Calque 1"
   id="g1761"
   transform="matrix(1.0191689,0,0,1.011127,35.197255,-112.94931)"><g
     inkscape:export-ydpi="459.29001"
     inkscape:export-xdpi="459.29001"
     id="g1759"
     transform="matrix(0.49160878,0,0,-0.49160878,-10.638963,174.34432)"
     style="display:inline;fill:#ffffff;fill-opacity:1"><g
       id="g1753"
       transform="translate(235.6792,89.933)"
       style="fill:#ffffff;fill-opacity:1"><path
         d="M 0,0 C 0.139,0.023 0.278,0.035 0.417,0.035 0.559,0.035 0.702,0.023 0.837,0 L -13.686,6.27 C -14.134,6.463 -14.65,6.402 -15.04,6.105 L -29.455,-4.863 C -29.366,-4.836 0,0 0,0"
         style="fill:#ffffff;fill-opacity:1;fill-rule:nonzero;stroke:none"
         id="path1751"
         inkscape:connector-curvature="0" /></g><g
       id="g1757"
       transform="translate(234.8424,74.9896)"
       style="fill:#ffffff;fill-opacity:1"><path
         d="m 0,0 c 0.979,0 1.882,-0.355 2.603,-0.956 v 13.385 c 0,0.644 -0.443,1.168 -1.026,1.311 -0.104,0.027 -0.212,0.039 -0.32,0.039 -0.073,0 -0.146,-0.008 -0.223,-0.019 l -28.7,-4.717 -0.489,-0.081 c -0.652,-0.108 -1.13,-0.671 -1.13,-1.33 v -8.326 c 0.543,0.439 1.222,0.698 1.955,0.698 1.805,0 3.266,-1.57 3.266,-3.509 0,-1.94 -1.461,-3.51 -3.266,-3.51 -0.733,0 -1.408,0.259 -1.955,0.698 v -2.472 c 0,-0.755 0.617,-1.349 1.346,-1.349 0.073,0 0.146,0.007 0.223,0.019 l 23.755,3.906 C -4.146,-5.7 -4.246,-5.144 -4.246,-4.562 -4.25,-2.044 -2.349,0 0,0 m -13.505,-1.874 c -1.454,0 -2.63,1.265 -2.63,2.827 0,1.561 1.176,2.826 2.63,2.826 1.454,0 2.63,-1.265 2.63,-2.826 0,-1.562 -1.176,-2.827 -2.63,-2.827 m 8.438,6.494 c -0.455,0 -0.883,0.123 -1.257,0.343 -0.818,0.478 -1.373,1.411 -1.373,2.484 0,1.561 1.176,2.826 2.63,2.826 0.987,0 1.843,-0.582 2.294,-1.446 0.212,-0.408 0.336,-0.879 0.336,-1.38 0,-1.562 -1.176,-2.827 -2.63,-2.827"
         style="fill:#ffffff;fill-opacity:1;fill-rule:nonzero;stroke:none"
         id="path1755"
         inkscape:connector-curvature="0" /></g></g></g><rect
   transform="rotate(90)"
   y="-185.14868"
   x="7.9943852"
   height="31.238226"
   width="31.238226"
   id="rect4380"
   style="display:inline;fill:#e5e7ea;fill-opacity:1;stroke:none;stroke-width:6.33984" /><g
   style="fill:#ffffff;fill-opacity:1"
   inkscape:label="Calque 1"
   id="g1767"
   transform="matrix(1.2963104,0,0,1.2860815,36.119975,-152.2462)"><g
     inkscape:export-ydpi="364.75"
     inkscape:export-xdpi="364.75"
     transform="matrix(0.49160877,0,0,-0.49160874,109.57444,164.67803)"
     id="g1765"
     style="display:inline;fill:#ffffff;fill-opacity:1"><path
       inkscape:connector-curvature="0"
       id="path1763"
       style="fill:#ffffff;fill-opacity:1;fill-rule:nonzero;stroke:none"
       d="m 0,64 c -0.013,0.004 -0.021,0.013 -0.033,0.02 -0.245,0.162 -0.564,0.171 -0.816,0.021 -0.257,-0.149 -0.402,-0.43 -0.381,-0.725 0.178,-2.422 -0.004,-4.601 -0.191,-5.988 -0.017,-0.128 -0.124,-0.227 -0.252,-0.232 -0.132,-0.004 -0.245,0.087 -0.269,0.211 -0.737,3.745 -2.192,6.966 -3.102,8.742 -0.1,0.191 -0.269,0.332 -0.48,0.395 -2.398,0.67 -4.622,0.906 -6.005,0.98 -0.245,0.013 -0.476,-0.091 -0.634,-0.276 -0.157,-0.191 -0.215,-0.439 -0.157,-0.676 0.841,-3.516 0.617,-7.396 0.413,-9.367 -0.011,-0.129 -0.115,-0.228 -0.239,-0.237 -0.124,-0.011 -0.245,0.067 -0.278,0.187 -0.667,2.307 -2.174,7.206 -3.665,9.756 -0.149,0.257 -0.439,0.406 -0.737,0.378 -2.024,-0.187 -3.975,-0.48 -5.711,-1.264 -0.343,0 -0.547,-0.368 -0.493,-0.732 0.506,-3.193 0.274,-6.163 0.042,-7.923 -0.02,-0.128 -0.124,-0.198 -0.257,-0.202 -0.128,-0.005 -0.24,0.099 -0.269,0.228 -0.476,2.418 -1.254,4.629 -1.988,6.365 -0.107,0.252 -0.319,0.45 -0.58,0.537 -0.26,0.087 -0.546,0.059 -0.782,-0.078 -4.671,-2.712 -6.759,-5.885 -6.759,-9.123 0,-6.891 8.987,-7.707 20.078,-7.707 11.085,0 20.075,0.816 20.075,7.707 C 6.53,57.966 4.68,60.889 0,64" /></g></g><g
   style="opacity:1;fill:#ffffff;fill-opacity:1"
   transform="matrix(0.03912285,0,0,0.03881414,-96.980299,163.0331)"
   id="g1775"><path
     style="fill:#ffffff;fill-opacity:1"
     inkscape:connector-curvature="0"
     d="m 435.7,386.26 c -37.066,0.0547 -72.5,-15.242 -97.879,-42.262 -29.004,32.02 -71.727,47.992 -114.62,42.859 -4.3125,33.023 5.7109,66.309 27.543,91.457 21.828,25.148 53.379,39.754 86.68,40.125 67.32,0 128,-64.578 113.84,-133.16 -5.1641,0.62891 -10.359,0.95703 -15.562,0.98047 z"
     id="path1769" /><path
     style="fill:#ffffff;fill-opacity:1"
     inkscape:connector-curvature="0"
     d="m 238.34,368 c 33.316,0.082 65,-14.418 86.719,-39.68 -10.164,-13.648 -17.238,-29.344 -20.738,-46 -1,-3.168 -1.6055,-6.4453 -1.8008,-9.7617 -5.8906,-33.879 1.6992,-68.715 21.141,-97.078 v -0.19922 c 2,-2.8008 4.1797,-5.5781 6.3789,-8.1797 -10.133,-10.852 -22.121,-19.805 -35.398,-26.441 11.809,-8.2617 21.168,-19.562 27.086,-32.703 5.918,-13.141 8.1758,-27.637 6.5352,-41.957 -17.828,0.25781 -35.055,6.4766 -48.938,17.66 -13.883,11.188 -23.621,26.695 -27.664,44.059 h -1.3594 c -4.6875,-23.965 -17.461,-45.598 -36.184,-61.277 -18.723,-15.676 -42.262,-24.453 -66.676,-24.863 -2.375,20.207 1.1211,40.668 10.059,58.941 8.9414,18.277 22.953,33.594 40.359,44.121 -31.789,11.816 -56.754,37.039 -68.246,68.945 -11.488,31.91 -8.3359,67.258 8.6172,96.629 16.957,29.371 45.992,49.781 79.371,55.785 6.8125,1.4492 13.773,2.1172 20.738,2 z"
     id="path1771" /><path
     style="fill:#ffffff;fill-opacity:1"
     inkscape:connector-curvature="0"
     d="m 486.52,147.64 c 4.9414,-0.61719 9.8125,-1.6797 14.559,-3.1797 h 0.40234 c 3.8594,-1.1836 7.6523,-2.582 11.359,-4.1797 h 0.19922 c 18.492,-8.0625 34.32,-21.199 45.648,-37.891 11.328,-16.688 17.691,-36.25 18.352,-56.41 -26.293,-3.4141 -52.918,3.0977 -74.668,18.266 -21.75,15.168 -37.066,37.898 -42.949,63.754 -0.57812,-0.22656 -1.1836,-0.36328 -1.8008,-0.39844 -0.58594,-12.785 -3.6953,-25.324 -9.1406,-36.902 -6.3398,-10 -25.16,-9.6797 -19.359,5.3984 v 0.0039 c 6.3789,12.238 9.6016,25.879 9.3789,39.68 -30.32,-6 -67.762,15.66 -87.281,36.859 -25.762,28.004 -36.082,66.898 -27.594,104 8.4883,37.094 34.695,67.629 70.074,81.645 37.172,14.176 79.027,8.1797 110.72,-15.867 31.695,-24.047 48.746,-62.738 45.102,-102.36 -3.6406,-39.617 -27.457,-74.555 -63.004,-92.418 z"
     id="path1773" /></g><g
   id="g7"
   transform="matrix(0.87842531,0,0,0.87842531,-46.820903,-313.82118)"><rect
     transform="scale(-1)"
     y="-401.91669"
     x="-341.93192"
     height="35.561619"
     width="35.561619"
     id="rect4384"
     style="font-style:normal;font-variant:normal;font-weight:normal;font-stretch:condensed;font-size:13px;line-height:125%;font-family:Impact;-inkscape-font-specification:'Impact Condensed';text-align:start;writing-mode:lr-tb;text-anchor:start;display:inline;fill:#726658;fill-opacity:1;stroke:none;stroke-width:7.21728" /><g
     style="display:inline;fill:#ffffff;fill-opacity:1"
     transform="matrix(0.06269792,0,0,0.06269792,192.56637,384.54107)"
     id="g1823"><path
       inkscape:connector-curvature="0"
       d="m 2105.3251,106.46224 h -16.0987 c -2.7979,-23.79875 -15.4,-44.10125 -32.9,-58.1 l 15.4,-24.5025 -16.0988,-10.498 -15.4,25.2 c -11.2011,-4.902375 -23.1,-7.70025 -35.6987,-7.70025 -48.3013,-0.698237 -86.8013,37.8025 -86.8013,85.4 0,47.5975 38.5013,86.09875 86.0988,86.09875 44.1012,0 80.4975,-33.59875 85.4,-76.29875 h 19.6 c -2.0997,-4.90237 -2.7979,-9.79975 -2.7979,-14.7025 z m -101.4987,76.29875 c -36.4013,0 -66.4988,-30.0975 -66.4988,-66.49875 0,-37.1 30.0975,-66.49875 66.4988,-66.49875 9.1015,0 18.1987,2.099625 25.8987,4.902375 l -34.3012,56.698745 c -2.0997,2.79788 -2.0997,7.002 0,9.79975 1.4013,2.79788 4.9023,4.90238 8.3985,4.90238 h 65.8012 c -4.8926,32.1975 -32.1925,56.69375 -65.7962,56.69375 z m 16.8012,-76.29875 25.2,-42.0025 c 12.5975,10.498 21.0013,25.2 23.1,42.0025 z"
       id="path1817"
       style="fill:#ffffff;fill-opacity:1;stroke-width:1.25" /><path
       inkscape:connector-curvature="0"
       d="m 2204.0251,-188.93776 c 0,21.265 -17.2362,38.50125 -38.5012,38.50125 -21.26,0 -38.4963,-17.23625 -38.4963,-38.50125 0,-21.26 17.2363,-38.50125 38.4963,-38.50125 21.265,0 38.5012,17.24125 38.5012,38.50125"
       id="path1819"
       style="fill:#ffffff;fill-opacity:1;stroke-width:1.25" /><path
       inkscape:connector-curvature="0"
       d="m 2505.7251,48.36224 c -6.2989,0 -11.8994,0.698237 -17.5,2.099625 l -7.002,-18.19875 c 7.7003,-2.099625 16.0988,-3.501 24.5025,-3.501 9.7997,0 18.9013,1.401375 27.3,4.19925 l 4.1993,-50.4 c 0,-3.501 -0.6983,-7.70025 -3.501,-10.498 -2.7979,-2.797875 -6.2989,-4.19925 -9.7998,-4.902375 l -266.7,-9.794875 -5.6006,-20.2975 c -1.4014,-4.19925 -4.9024,-7.002 -9.1015,-7.002 l -27.3,-0.005 c -2.0996,-6.298875 -7.002,-11.201125 -13.3013,-13.30125 l -28.7012,-9.096625 -9.7998,-27.9975 c -3.501,-9.1015 -9.7997,-16.80125 -18.9012,-21.69875 l -7.002,-3.501 c -18.9013,-9.79975 -42.0025,-2.79787 -52.5,15.4 l -28.7013,50.4 -12.5975,21.69875 c -9.1015,15.4 -4.1992,35 10.498,44.10125 l 70.6988,46.20125 1.4014,48.99875 0.6982,27.9975 c 0.6982,11.20113 8.3985,21.69875 19.6,23.1 h 4.1992 1.4014 c 1.4014,0 2.7979,-0.69824 4.1993,-0.69824 h 0.6982 c 9.1015,-2.79787 16.0988,-11.89937 16.0988,-21.69875 V 10.567003 c 0,-3.5010005 -1.4014,-7.0020005 -2.7979,-9.7997505 -1.4014,-2.099625 -2.7979,-3.501 -4.1993,-4.902375 l -48.9987,-38.5012495 18.9012,-35 2.7979,7.70025 c 2.0996,5.600625 6.2989,10.498 12.5975,11.899375 l 38.5013,12.5975 c 2.0996,0.698237 4.9023,1.401375 7.002,0.698237 4.9023,0 10.498,-2.797875 13.9987,-6.298875 h 23.7988 l 9.7997,35.69875 -57.3875,0.005 c 4.1993,5.600625 7.002,11.899375 7.7003,19.6 h 23.7987 l -23.7987,32.2025 v 32.9 l 47.5975,-65.0975 7.7002,-0.005 27.9975,102.197505 h -83.2962 v 3.501 c 0,5.60062 -1.4014,11.20112 -2.7979,16.09875 h 217.7 v -0.69824 c 0,-37.797502 21.6987,-70.698752 53.9012,-86.098752 l 7.002,18.19875 c -24.5025,12.5975 -41.2987,38.50125 -41.2987,67.900002 0,42.7 34.3012,77.0025 77.0025,77.0025 42.7012,0 77.0025,-34.30125 77.0025,-77.0025 -0.015,-42.700002 -35.015,-77.002502 -77.715,-77.002502 z m 0,134.4 c -31.4987,0 -57.4025,-25.89875 -57.4025,-57.4025 0,-21.00125 11.2011,-39.9025 28.7013,-49.7025 l 19.6,53.19875 c 1.4013,4.19925 4.9023,6.29888 9.1015,6.29888 1.4013,0 2.0996,0 3.501,-0.69824 4.9023,-2.09963 7.7002,-7.70025 5.6006,-12.5975 l -19.6,-52.495002 c 3.501,-0.698238 7.002,-1.401375 10.498,-1.401375 31.4987,0 57.4025,25.89875 57.4025,57.402497 0,31.49875 -25.8988,57.3975 -57.4025,57.3975 z"
       id="path1821"
       style="fill:#ffffff;fill-opacity:1;stroke-width:1.25" /></g></g><path
   inkscape:connector-curvature="0"
   id="path4410"
   d="M 17.542671,23.197333 V 7.9943824 h 15.202944 15.20295 V 23.197333 38.400275 H 32.745615 17.542671 Z"
   style="display:inline;fill:#e5e7ea;fill-opacity:1;stroke:none;stroke-width:6.33984" /><g
   inkscape:export-ydpi="552.70001"
   inkscape:export-xdpi="552.70001"
   inkscape:export-filename="/home/evaleto/nodejs/karibou.ch/karibou-seed/src/assets/img/bretzel-spread-lg.jpg"
   transform="matrix(-1.3145499,0,0,1.3145499,154.14852,-81.50096)"
   id="g4456"
   style="display:inline;fill:#ffffff;fill-opacity:1"><path
     style="fill:#ffffff;fill-opacity:1"
     inkscape:connector-curvature="0"
     d="m 93.02135,72.419758 c -0.0759,0.04544 -0.1467,0.09778 -0.21253,0.156303 -0.004,0.0035 -0.007,0.008 -0.0109,0.01151 -0.37049,0.336811 -0.574,0.88038 -0.59414,1.576573 -5.3e-4,0.01687 -0.003,0.03256 -0.003,0.04959 -7.6e-4,0.04789 0.003,0.09906 0.004,0.148343 0.001,0.07851 0.002,0.156515 0.008,0.237841 2.6e-4,0.0031 8e-5,0.0058 2.8e-4,0.0089 8e-5,0.01288 8.2e-4,0.02571 0.002,0.03873 0.0747,0.611231 -0.21625,1.209156 -0.74126,1.523231 l -4.461259,2.668841 c -1.192809,0.71357 -1.582713,2.264575 -0.869143,3.457385 0.662893,1.108099 2.047712,1.521832 3.197332,1.003625 l 2.72974,3.167273 c 0.0924,0.107428 0.24869,0.132609 0.37024,0.05989 l 2.31581,-1.385378 c 0.0735,-0.04397 0.12385,-0.118171 0.13787,-0.202786 0.0138,-0.08446 -0.0101,-0.170928 -0.0657,-0.236119 l -1.75638,-2.060066 c -0.14879,-0.172818 -0.56035,-0.748881 -0.5007,-1.117317 0.0164,-0.102348 0.0707,-0.176425 0.17332,-0.239802 0.003,-0.0016 0.006,-0.0028 0.008,-0.0045 l 1.31061,-0.783699 c 0.17837,-0.106708 0.37317,-0.171809 0.57194,-0.200421 0.0152,-0.0022 0.0301,-0.0063 0.0454,-0.008 0.0458,-0.0052 0.0918,-0.0053 0.13785,-0.0064 0.0272,-5.98e-4 0.0544,-0.0033 0.0816,-0.0026 0.0386,0.0011 0.0769,0.0066 0.11539,0.01055 0.0346,0.0036 0.0693,0.0056 0.10359,0.0115 0.033,0.0057 0.0654,0.01507 0.0981,0.02286 0.0391,0.0094 0.0783,0.01774 0.11672,0.03014 0.0286,0.0092 0.0564,0.02167 0.0845,0.03259 0.0412,0.01599 0.0824,0.0316 0.1224,0.05121 0.0251,0.01229 0.0491,0.02734 0.0737,0.04103 0.0473,0.02643 0.0949,0.05235 0.13979,0.08403 0.0105,0.0076 0.0215,0.01432 0.0329,0.02009 0.002,0.0015 0.005,0.0026 0.007,0.0041 0.0718,0.04529 0.14301,0.08451 0.21434,0.124181 0.0401,0.02243 0.0807,0.04788 0.12046,0.06843 0.0206,0.01056 0.0408,0.01821 0.0613,0.02829 0.61696,0.305038 1.18664,0.380907 1.6547,0.215247 0.005,-0.0017 0.0105,-0.0023 0.0155,-0.0042 0.0827,-0.03032 0.16227,-0.0679 0.23823,-0.113333 1.22137,-0.730654 1.0629,-3.167296 -0.36074,-5.547056 -1.42363,-2.379761 -3.49553,-3.671411 -4.71689,-2.940757 z m 1.52821,7.30288 c -0.0508,0.0074 -0.1011,0.01628 -0.15134,0.02732 -0.0419,0.0092 -0.0834,0.01904 -0.12482,0.03078 -0.0485,0.01377 -0.0961,0.03052 -0.14371,0.04784 -0.0408,0.01481 -0.0818,0.02846 -0.12191,0.04586 -0.0519,0.02257 -0.10207,0.04981 -0.15245,0.07674 -0.0305,0.01631 -0.0626,0.02864 -0.0925,0.04655 l -1.32875,0.79489 c -0.91459,0.532901 -2.09404,0.232035 -2.63887,-0.678711 -0.54872,-0.917246 -0.24884,-2.110147 0.66841,-2.658867 l 1.31045,-0.783948 c 0.0858,-0.05134 0.16558,-0.109639 0.24203,-0.171363 0.011,-0.0089 0.0211,-0.01875 0.0319,-0.02789 0.0631,-0.05309 0.12272,-0.109297 0.17875,-0.168813 0.0141,-0.01498 0.0276,-0.03028 0.0412,-0.04563 0.0518,-0.05833 0.10001,-0.119087 0.14489,-0.182457 0.0107,-0.0151 0.0217,-0.02978 0.032,-0.04512 0.0123,-0.01837 0.0267,-0.03537 0.0384,-0.05411 0.002,0.0068 0.005,0.01366 0.007,0.02045 0.046,0.147834 0.0973,0.297198 0.15422,0.448239 0.006,0.01487 0.0109,0.02968 0.0166,0.04458 0.0582,0.151853 0.12156,0.304692 0.19069,0.45869 0.005,0.01077 0.009,0.0215 0.014,0.03228 0.0272,0.06008 0.0551,0.12006 0.084,0.180332 2.4e-4,4.94e-4 1.6e-4,0.0011 4.2e-4,0.0016 0.009,0.01843 0.0187,0.03612 0.0276,0.05447 0.0559,0.114646 0.11271,0.229304 0.17455,0.344333 0.0739,0.138354 0.15038,0.274154 0.22924,0.405987 0.0788,0.131711 0.16227,0.263294 0.24927,0.393887 0.0191,0.02886 0.0384,0.05724 0.0577,0.08571 8.7e-4,0.0013 0.002,0.0026 0.003,0.0039 0.0522,0.0769 0.10557,0.150884 0.15897,0.224976 0.0125,0.01735 0.024,0.03524 0.0366,0.05253 3.5e-4,4.86e-4 9.8e-4,7.07e-4 10e-4,0.0012 0.0385,0.05264 0.0772,0.104305 0.1162,0.155464 0.0122,0.01596 0.0247,0.03112 0.037,0.04695 0.0975,0.126021 0.19639,0.247308 0.29682,0.363798 0.0156,0.01808 0.0313,0.03557 0.047,0.05342 0.10044,0.114536 0.20181,0.224042 0.30434,0.328606 0.008,0.008 0.0154,0.01709 0.0232,0.02506 -0.014,9.25e-4 -0.0277,0.004 -0.0417,0.0052 -0.0408,0.0035 -0.0811,0.0094 -0.12163,0.01525 z M 94.23843,78.21366 c -0.11317,-0.161917 -0.2205,-0.325921 -0.32064,-0.490552 -0.0113,-0.01857 -0.0233,-0.03612 -0.0345,-0.0548 -0.0127,-0.02129 -0.0238,-0.04281 -0.0363,-0.06414 -0.0953,-0.162194 -0.18671,-0.3301 -0.27371,-0.501851 -0.0119,-0.02344 -0.0238,-0.04689 -0.0355,-0.07034 0.0701,-0.123069 0.16742,-0.223881 0.28671,-0.295245 0.39199,-0.234498 0.9017,-0.106572 1.13619,0.285417 0.2345,0.391989 0.10633,0.901839 -0.28566,1.136337 -0.11941,0.07144 -0.25436,0.109602 -0.39614,0.113089 -0.0136,-0.01915 -0.0269,-0.03858 -0.0404,-0.05791 z m -7.595488,3.784352 c -0.54872,-0.917246 -0.248937,-2.109756 0.668308,-2.658476 l 1.77164,-1.059841 c -0.24062,0.683237 -0.18766,1.464423 0.21245,2.133243 0.39939,0.66763 1.06121,1.083251 1.7757,1.19508 l -1.76948,1.058545 c -0.91724,0.54872 -2.109898,0.248693 -2.658618,-0.668551 z m 5.708548,3.904236 -2.49151,-2.89098 2.13152,-1.27513 c 0.0742,0.651844 0.63869,1.287316 0.63891,1.287188 l 1.53117,1.796085 z M 97.79994,80.4077 c -0.0503,0.03011 -0.10442,0.05443 -0.1618,0.07326 -0.0163,0.0054 -0.0347,0.007 -0.0515,0.0114 -0.0422,0.01114 -0.0844,0.02256 -0.12983,0.02803 -0.0306,0.0036 -0.0638,0.0022 -0.0958,0.0033 -0.0338,0.0012 -0.0665,0.0046 -0.10176,0.0029 -0.0547,-0.0027 -0.11196,-0.01095 -0.16979,-0.02049 -0.014,-0.0023 -0.027,-0.0026 -0.0412,-0.0052 -0.29183,-0.05584 -0.6199,-0.196521 -0.96449,-0.418131 -6.5e-4,-4.21e-4 -0.001,-0.0011 -0.002,-0.0016 -0.0119,-0.0078 -0.0237,-0.0153 -0.0357,-0.02307 -0.005,-0.0037 -0.011,-0.0073 -0.0167,-0.01124 -0.46761,-0.310368 -0.92942,-0.741902 -1.35708,-1.258892 0.10436,-0.03233 0.20624,-0.07269 0.3014,-0.12962 0.6678,-0.399493 0.88585,-1.267691 0.4865,-1.935245 -0.39935,-0.667554 -1.2673,-0.885747 -1.9351,-0.486253 -0.0952,0.05695 -0.17897,0.127673 -0.25685,0.204384 -0.2624,-0.643977 -0.42588,-1.276628 -0.47169,-1.851573 -2.4e-4,-0.0032 -0.002,-0.006 -0.002,-0.0091 -0.0317,-0.406297 -5.4e-4,-0.760329 0.0879,-1.042711 0.004,-0.0137 0.0102,-0.02537 0.0149,-0.03874 0.0189,-0.05548 0.0388,-0.109848 0.0622,-0.159299 0.015,-0.03141 0.0332,-0.0582 0.05,-0.08706 0.0163,-0.02811 0.031,-0.05849 0.049,-0.08412 0.0261,-0.03715 0.0559,-0.06856 0.0854,-0.100295 0.0121,-0.01295 0.0224,-0.02873 0.035,-0.04078 0.0437,-0.04165 0.0907,-0.07782 0.14107,-0.107923 0.81058,-0.484912 2.57831,0.500506 3.91799,2.739922 1.33982,2.23966 1.37215,4.263237 0.56157,4.748148 z"
     id="path4458" /></g></svg>
