<?xml version="1.0" encoding="UTF-8" standalone="no"?>
<!-- Created with Inkscape (http://www.inkscape.org/) -->

<svg
   width="154.29883mm"
   height="38.726925mm"
   viewBox="0 0 154.29882 38.726925"
   version="1.1"
   id="svg1"
   xml:space="preserve"
   inkscape:version="1.3.1 (9b9bdc1480, 2023-11-25, custom)"
   sodipodi:docname="totalenergies-logo.svg"
   xmlns:inkscape="http://www.inkscape.org/namespaces/inkscape"
   xmlns:sodipodi="http://sodipodi.sourceforge.net/DTD/sodipodi-0.dtd"
   xmlns="http://www.w3.org/2000/svg"
   xmlns:svg="http://www.w3.org/2000/svg"><sodipodi:namedview
     id="namedview1"
     pagecolor="#e9e9e9"
     bordercolor="#000000"
     borderopacity="0.25"
     inkscape:showpageshadow="2"
     inkscape:pageopacity="0.0"
     inkscape:pagecheckerboard="0"
     inkscape:deskcolor="#d1d1d1"
     inkscape:document-units="mm"
     inkscape:zoom="1.0697587"
     inkscape:cx="322.03524"
     inkscape:cy="122.45752"
     inkscape:window-width="1854"
     inkscape:window-height="1011"
     inkscape:window-x="0"
     inkscape:window-y="0"
     inkscape:window-maximized="1"
     inkscape:current-layer="g1"><inkscape:page
       x="0"
       y="0"
       width="154.29881"
       height="38.726925"
       id="page1"
       margin="0"
       bleed="0" /></sodipodi:namedview><defs
     id="defs1"><clipPath
       clipPathUnits="userSpaceOnUse"
       id="clipPath1"><path
         d="M 0,0 H 1753 V 1240 H 0 Z"
         id="path1" /></clipPath><clipPath
       clipPathUnits="userSpaceOnUse"
       id="clipPath2"><path
         d="M 0,0 H 1753 V 1240 H 0 Z"
         id="path2" /></clipPath><clipPath
       clipPathUnits="userSpaceOnUse"
       id="clipPath3"><path
         d="M 0,0 H 1753 V 1240 H 0 Z"
         id="path3" /></clipPath><clipPath
       clipPathUnits="userSpaceOnUse"
       id="clipPath4"><path
         d="M 0,0 H 1753 V 1240 H 0 Z"
         transform="scale(1,-1)"
         id="path4" /></clipPath><clipPath
       clipPathUnits="userSpaceOnUse"
       id="clipPath5"><path
         d="M 0,0 H 1753 V 1240 H 0 Z"
         id="path5" /></clipPath><clipPath
       clipPathUnits="userSpaceOnUse"
       id="clipPath6"><path
         d="m 0,7.383 v 886.32 h 1201.395 l 0.375,-25.594 h 552.168 V 7.383 Z"
         id="path6" /></clipPath><clipPath
       clipPathUnits="userSpaceOnUse"
       id="clipPath7"><path
         d="M 0,0 H 1753 V 1240 H 0 Z"
         transform="matrix(0.640084,0,0,0.64008133,0.21666667,0)"
         id="path7" /></clipPath><clipPath
       clipPathUnits="userSpaceOnUse"
       id="clipPath8"><path
         d="m 0,7.383 v 886.32 h 1201.395 l 0.375,-25.594 h 552.168 V 7.383 Z"
         id="path8" /></clipPath><clipPath
       clipPathUnits="userSpaceOnUse"
       id="clipPath9"><path
         d="M 0,0 H 1753 V 1240 H 0 Z"
         transform="matrix(0.640084,0,0,0.64008133,0.21666667,0)"
         id="path9" /></clipPath><clipPath
       clipPathUnits="userSpaceOnUse"
       id="clipPath10"><path
         d="m 0,7.383 v 886.32 h 1201.395 l 0.375,-25.594 h 552.168 V 7.383 Z"
         id="path10" /></clipPath><clipPath
       clipPathUnits="userSpaceOnUse"
       id="clipPath11"><path
         d="M 0,0 H 1753 V 1240 H 0 Z"
         transform="matrix(0.640084,0,0,0.64008133,0.21666667,0)"
         id="path11" /></clipPath><clipPath
       clipPathUnits="userSpaceOnUse"
       id="clipPath12"><path
         d="m 0,7.383 v 886.32 h 1201.395 l 0.375,-25.594 h 552.168 V 7.383 Z"
         id="path12" /></clipPath><clipPath
       clipPathUnits="userSpaceOnUse"
       id="clipPath13"><path
         d="M 0,0 H 1753 V 1240 H 0 Z"
         transform="matrix(0.640084,0,0,0.64008133,0.21666667,0)"
         id="path13" /></clipPath><clipPath
       clipPathUnits="userSpaceOnUse"
       id="clipPath14"><path
         d="m 0,7.383 v 886.32 h 1201.395 l 0.375,-25.594 h 552.168 V 7.383 Z"
         id="path14" /></clipPath><clipPath
       clipPathUnits="userSpaceOnUse"
       id="clipPath15"><path
         d="M 0,0 H 1753 V 1240 H 0 Z"
         transform="matrix(0.640084,0,0,0.64008133,0.21666667,0)"
         id="path15" /></clipPath><clipPath
       clipPathUnits="userSpaceOnUse"
       id="clipPath16"><path
         d="m 0,7.383 v 886.32 h 1201.395 l 0.375,-25.594 h 552.168 V 7.383 Z"
         id="path16" /></clipPath><clipPath
       clipPathUnits="userSpaceOnUse"
       id="clipPath17"><path
         d="M 0,0 H 1753 V 1240 H 0 Z"
         transform="matrix(0.640084,0,0,0.64008133,0.21666667,0)"
         id="path17" /></clipPath><clipPath
       clipPathUnits="userSpaceOnUse"
       id="clipPath18"><path
         d="m 0,7.383 v 886.32 h 1201.395 l 0.375,-25.594 h 552.168 V 7.383 Z"
         id="path18" /></clipPath><clipPath
       clipPathUnits="userSpaceOnUse"
       id="clipPath19"><path
         d="M 0,0 H 1753 V 1240 H 0 Z"
         transform="matrix(0.640084,0,0,0.64008133,0.21666667,0)"
         id="path19" /></clipPath><clipPath
       clipPathUnits="userSpaceOnUse"
       id="clipPath20"><path
         d="m 0,7.383 v 886.32 h 1201.395 l 0.375,-25.594 h 552.168 V 7.383 Z"
         id="path20" /></clipPath><clipPath
       clipPathUnits="userSpaceOnUse"
       id="clipPath21"><path
         d="M 0,0 H 1753 V 1240 H 0 Z"
         transform="matrix(0.640084,0,0,0.64008133,0.21666667,0)"
         id="path21" /></clipPath><clipPath
       clipPathUnits="userSpaceOnUse"
       id="clipPath22"><path
         d="m 0,7.383 v 886.32 h 1201.395 l 0.375,-25.594 h 552.168 V 7.383 Z"
         id="path22" /></clipPath><clipPath
       clipPathUnits="userSpaceOnUse"
       id="clipPath23"><path
         d="M 0,0 H 1753 V 1240 H 0 Z"
         transform="matrix(0.640084,0,0,0.64008133,0.21666667,0)"
         id="path23" /></clipPath><clipPath
       clipPathUnits="userSpaceOnUse"
       id="clipPath24"><path
         d="m 0,7.383 v 886.32 h 1201.395 l 0.375,-25.594 h 552.168 V 7.383 Z"
         id="path24" /></clipPath><clipPath
       clipPathUnits="userSpaceOnUse"
       id="clipPath25"><path
         d="M 0,0 H 1753 V 1240 H 0 Z"
         transform="matrix(0.640084,0,0,0.64008133,0.21666667,0)"
         id="path25" /></clipPath><clipPath
       clipPathUnits="userSpaceOnUse"
       id="clipPath26"><path
         d="M 0,0 H 1753 V 1240 H 0 Z"
         transform="translate(-104.67624,-439.96234)"
         id="path26" /></clipPath><clipPath
       clipPathUnits="userSpaceOnUse"
       id="clipPath27"><path
         d="M 0,0 H 1753 V 1240 H 0 Z"
         transform="translate(-88.582704,-212.68811)"
         id="path27" /></clipPath><clipPath
       clipPathUnits="userSpaceOnUse"
       id="clipPath28"><path
         d="M 0,0 H 1753 V 1240 H 0 Z"
         transform="translate(-88.582704,-105.56958)"
         id="path28" /></clipPath><clipPath
       clipPathUnits="userSpaceOnUse"
       id="clipPath29"><path
         d="M 0,0 H 1753 V 1240 H 0 Z"
         transform="translate(-373.24936,-105.56958)"
         id="path29" /></clipPath><clipPath
       clipPathUnits="userSpaceOnUse"
       id="clipPath30"><path
         d="m 124.016,893.703 v 79.231 h 1191.07 l -2.293,-67.028 441.145,-7.48 v -4.723 z"
         id="path30" /></clipPath><clipPath
       clipPathUnits="userSpaceOnUse"
       id="clipPath31"><path
         d="M 0,0 H 1753 V 1240 H 0 Z"
         transform="matrix(0.640084,0,0,0.64008133,0.21666667,0)"
         id="path31" /></clipPath><clipPath
       clipPathUnits="userSpaceOnUse"
       id="clipPath32"><path
         d="m 124.016,893.703 v 79.231 h 1191.07 l -2.293,-67.028 441.145,-7.48 v -4.723 z"
         id="path32" /></clipPath><clipPath
       clipPathUnits="userSpaceOnUse"
       id="clipPath33"><path
         d="M 0,0 H 1753 V 1240 H 0 Z"
         transform="matrix(0.640084,0,0,0.64008133,0.21666667,0)"
         id="path33" /></clipPath><clipPath
       clipPathUnits="userSpaceOnUse"
       id="clipPath34"><path
         d="m 124.016,893.703 v 79.231 h 1191.07 l -2.293,-67.028 441.145,-7.48 v -4.723 z"
         id="path34" /></clipPath><clipPath
       clipPathUnits="userSpaceOnUse"
       id="clipPath35"><path
         d="M 0,0 H 1753 V 1240 H 0 Z"
         transform="matrix(0.640084,0,0,0.64008133,0.21666667,0)"
         id="path35" /></clipPath><clipPath
       clipPathUnits="userSpaceOnUse"
       id="clipPath36"><path
         d="m 124.016,893.703 v 79.231 h 1191.07 l -2.293,-67.028 441.145,-7.48 v -4.723 z"
         id="path36" /></clipPath><clipPath
       clipPathUnits="userSpaceOnUse"
       id="clipPath37"><path
         d="M 0,0 H 1753 V 1240 H 0 Z"
         transform="matrix(0.640084,0,0,0.64008133,0.21666667,0)"
         id="path37" /></clipPath><clipPath
       clipPathUnits="userSpaceOnUse"
       id="clipPath38"><path
         d="m 124.016,893.703 v 79.231 h 1191.07 l -2.293,-67.028 441.145,-7.48 v -4.723 z"
         id="path38" /></clipPath><clipPath
       clipPathUnits="userSpaceOnUse"
       id="clipPath39"><path
         d="M 0,0 H 1753 V 1240 H 0 Z"
         transform="matrix(0.640084,0,0,0.64008133,0.21666667,0)"
         id="path39" /></clipPath><clipPath
       clipPathUnits="userSpaceOnUse"
       id="clipPath40"><path
         d="M 0,0 H 1753 V 1240 H 0 Z"
         transform="translate(-1158.1124,-1010.8292)"
         id="path40" /></clipPath><clipPath
       clipPathUnits="userSpaceOnUse"
       id="clipPath41"><path
         d="M 0,0 H 1753 V 1240 H 0 Z"
         transform="translate(-1351.4042,-1191.7332)"
         id="path41" /></clipPath><clipPath
       clipPathUnits="userSpaceOnUse"
       id="clipPath42"><path
         d="M 0,0 H 1753 V 1240 H 0 Z"
         transform="translate(-1663.8957,-1191.7332)"
         id="path42" /></clipPath><clipPath
       clipPathUnits="userSpaceOnUse"
       id="clipPath83"><path
         d="M 0.164,0 H 841.715 V 595.273 H 0.164 Z"
         transform="scale(1.3333333)"
         id="path83" /></clipPath><clipPath
       clipPathUnits="userSpaceOnUse"
       id="clipPath19-2"><path
         d="M 0,0 H 1753 V 1240 H 0 Z"
         transform="matrix(0.640084,0,0,0.64008133,0.21666667,0)"
         id="path19-9" /></clipPath><clipPath
       clipPathUnits="userSpaceOnUse"
       id="clipPath18-3"><path
         d="m 0,7.383 v 886.32 h 1201.395 l 0.375,-25.594 h 552.168 V 7.383 Z"
         id="path18-1" /></clipPath><clipPath
       clipPathUnits="userSpaceOnUse"
       id="clipPath17-9"><path
         d="M 0,0 H 1753 V 1240 H 0 Z"
         transform="matrix(0.640084,0,0,0.64008133,0.21666667,0)"
         id="path17-4" /></clipPath><clipPath
       clipPathUnits="userSpaceOnUse"
       id="clipPath16-7"><path
         d="m 0,7.383 v 886.32 h 1201.395 l 0.375,-25.594 h 552.168 V 7.383 Z"
         id="path16-8" /></clipPath><clipPath
       clipPathUnits="userSpaceOnUse"
       id="clipPath21-4"><path
         d="M 0,0 H 1753 V 1240 H 0 Z"
         transform="matrix(0.640084,0,0,0.64008133,0.21666667,0)"
         id="path21-5" /></clipPath><clipPath
       clipPathUnits="userSpaceOnUse"
       id="clipPath20-0"><path
         d="m 0,7.383 v 886.32 h 1201.395 l 0.375,-25.594 h 552.168 V 7.383 Z"
         id="path20-3" /></clipPath><clipPath
       clipPathUnits="userSpaceOnUse"
       id="clipPath23-6"><path
         d="M 0,0 H 1753 V 1240 H 0 Z"
         transform="matrix(0.640084,0,0,0.64008133,0.21666667,0)"
         id="path23-1" /></clipPath><clipPath
       clipPathUnits="userSpaceOnUse"
       id="clipPath22-0"><path
         d="m 0,7.383 v 886.32 h 1201.395 l 0.375,-25.594 h 552.168 V 7.383 Z"
         id="path22-6" /></clipPath><clipPath
       clipPathUnits="userSpaceOnUse"
       id="clipPath25-3"><path
         d="M 0,0 H 1753 V 1240 H 0 Z"
         transform="matrix(0.640084,0,0,0.64008133,0.21666667,0)"
         id="path25-2" /></clipPath><clipPath
       clipPathUnits="userSpaceOnUse"
       id="clipPath24-0"><path
         d="m 0,7.383 v 886.32 h 1201.395 l 0.375,-25.594 h 552.168 V 7.383 Z"
         id="path24-6" /></clipPath></defs><g
     inkscape:label="Layer 1"
     inkscape:groupmode="layer"
     id="layer1"
     transform="translate(-295.67713,-97.694799)" /><g
     id="g1"
     inkscape:groupmode="layer"
     inkscape:label="1"
     transform="matrix(0.26458334,0,0,0.26458334,-75.677121,-97.694799)"><g
       id="g82"
       clip-path="url(#clipPath83)"
       transform="matrix(0.87965419,0,0,0.87965419,69.489452,56.003832)"><g
         id="g59"><g
           clip-path="url(#clipPath7)"
           id="g48"><path
             d="m 902.301,738.258 c -23.301,0 -35.067,-8.922 -35.067,-26.699 0,-17.969 11.766,-26.969 35.067,-26.969 23.25,0 35.129,9 35.129,26.969 0,17.777 -11.879,26.699 -35.129,26.699 m 0,-76.91 c -42.598,0 -67,18.297 -67,50.211 0,31.582 24.402,49.871 67,49.871 42.551,0 66.906,-18.289 66.906,-49.871 0,-31.914 -24.355,-50.211 -66.906,-50.211"
             style="fill:#e20030;fill-opacity:1;fill-rule:nonzero;stroke:none"
             transform="matrix(0.640084,0,0,0.64008133,0.21666667,0)"
             clip-path="url(#clipPath6)"
             id="path48" /></g><g
           clip-path="url(#clipPath9)"
           id="g49"><path
             d="M 1094.137,663.793 H 977.922 v 21.34 h 40.34 v 66.269 c 0,6.325 9.652,8.606 17.808,8.606 8.141,0 17.789,-2.168 17.789,-8.606 v -66.269 h 40.278 z"
             style="fill:#e20030;fill-opacity:1;fill-rule:nonzero;stroke:none"
             transform="matrix(0.640084,0,0,0.64008133,0.21666667,0)"
             clip-path="url(#clipPath8)"
             id="path49" /></g><g
           clip-path="url(#clipPath11)"
           id="g50"><path
             d="m 1308.801,736.941 c -9.856,0 -16.633,-1.652 -20.332,-4.714 -4.809,-4.086 -5.364,-10.153 -5.492,-14.758 v -46.774 c 0,-6.238 -9.157,-8.273 -16.961,-8.273 -7.93,0 -17.137,2.035 -17.137,8.168 v 45.305 c 0,17.281 5.547,29.406 16.605,36.054 13.641,7.914 38.454,7.629 62.305,7.332 h 29.82 v -22.34 z"
             style="fill:#e20030;fill-opacity:1;fill-rule:nonzero;stroke:none"
             transform="matrix(0.640084,0,0,0.64008133,0.21666667,0)"
             clip-path="url(#clipPath10)"
             id="path50" /></g><g
           clip-path="url(#clipPath13)"
           id="g51"><path
             d="M 850.059,634.855 H 709.16 v 23.532 h 48.586 v 71.461 c 0,16.882 14.203,28.367 38.281,30.359 v -101.82 h 54.032 z"
             style="fill:#e20030;fill-opacity:1;fill-rule:nonzero;stroke:none"
             transform="matrix(0.640084,0,0,0.64008133,0.21666667,0)"
             clip-path="url(#clipPath12)"
             id="path51" /></g><g
           clip-path="url(#clipPath15)"
           id="g52"><path
             d="m 1138.781,718.645 c 6.629,-10.055 14.641,-19.856 23.59,-28.594 8.789,8.738 16.766,18.539 23.418,28.594 z m 33.86,-53.696 c -3.004,-2.058 -6.157,-2.527 -10.27,-2.652 -4.219,0.125 -7.5,0.594 -10.414,2.652 -9.203,6.625 -53.703,51.356 -61.547,90.481 l -0.894,3.867 H 1121 l 0.574,-2.801 c 1.317,-5.523 3.34,-11.539 6.106,-17.726 h 69.215 c 2.753,6.187 4.843,12.203 6.003,17.726 l 0.668,2.801 h 31.532 l -0.836,-3.867 c -7.946,-39.125 -52.407,-83.856 -61.621,-90.481"
             style="fill:#e20030;fill-opacity:1;fill-rule:nonzero;stroke:none"
             transform="matrix(0.640084,0,0,0.64008133,0.21666667,0)"
             clip-path="url(#clipPath14)"
             id="path52" /></g></g><g
         clip-path="url(#clipPath17)"
         id="g53"><path
           d="m 655.602,704.336 c -0.145,-0.492 -0.332,-0.953 -0.516,-1.418 -16.348,18.652 -56.477,30.73 -92.578,28.051 -21.27,-1.582 -60.656,-12.582 -80.531,-24.77 21.007,20.121 45.558,35.414 73.402,43.66 33.051,9.836 68.297,9.164 88.164,-1.183 14.586,-9.828 17.887,-27.395 12.059,-44.34"
           style="fill:#f39800;fill-opacity:1;fill-rule:nonzero;stroke:none"
           transform="matrix(0.640084,0,0,0.64008133,0.21666667,0)"
           clip-path="url(#clipPath16)"
           id="path53" /></g><g
         clip-path="url(#clipPath19)"
         id="g54"><path
           d="m 610.152,586.949 c 65.082,38.434 26.344,159.387 -25.445,198.25 -48.187,36.141 -99.469,19.481 -110.578,-13.855 9.715,14.441 28.98,19.718 46.094,13.957 47.578,-19.071 72.078,-105.289 75.242,-135.227 2.117,-25.765 -1.235,-43.078 -10.184,-53.976 -10.258,-10.832 -25.941,-16.09 -48.929,-8.875 15.808,-12.977 49.66,-14.524 73.8,-0.274"
           style="fill:#004494;fill-opacity:1;fill-rule:nonzero;stroke:none"
           transform="matrix(0.640084,0,0,0.64008133,0.21666667,0)"
           clip-path="url(#clipPath18)"
           id="path54" /></g><g
         clip-path="url(#clipPath21)"
         id="g55"><path
           d="m 646.562,746.969 c 0.227,-0.16 0.516,-0.336 0.778,-0.492 0.035,-0.055 0.101,-0.071 0.125,-0.098 1.336,-0.879 2.664,-1.856 3.898,-2.988 0.567,-0.516 1.157,-1.071 1.723,-1.668 25.32,-25.7 30.695,-97.164 -31.711,-131.016 -22.199,-12.066 -73.84,-28.941 -125.32,-2.906 -17.047,8.594 -34.614,26.472 -44.09,50.754 6.996,-11.528 19.074,-19.348 42.883,-22.703 23.742,-3 56.496,0.687 88.511,12 20.653,7.621 37.356,17.027 50.426,27.683 10.77,9.231 17.695,18.031 21.301,27.379 0.184,0.469 0.371,0.93 0.516,1.422 5.828,16.945 2.527,34.508 -12.059,44.344 -0.016,0.019 0.035,-0.004 0,0 0.691,-0.36 1.336,-0.711 2.078,-1.157 0.117,-0.054 0.199,-0.101 0.317,-0.175 0.171,-0.125 0.402,-0.262 0.624,-0.379"
           style="fill:#e20030;fill-opacity:1;fill-rule:nonzero;stroke:none"
           transform="matrix(0.640084,0,0,0.64008133,0.21666667,0)"
           clip-path="url(#clipPath20)"
           id="path55" /></g><g
         clip-path="url(#clipPath23)"
         id="g56"><path
           d="m 460.023,699.672 c 1.2,1.902 3.903,5.14 5.653,7.176 12.531,-29.426 81.051,-48.536 101.254,-48.293 -45.403,-14.629 -89.907,-7.649 -107.782,7.867 -6.5,7.246 -8.523,18.109 0.875,33.25"
           style="fill:#f39800;fill-opacity:1;fill-rule:nonzero;stroke:none"
           transform="matrix(0.640084,0,0,0.64008133,0.21666667,0)"
           clip-path="url(#clipPath22)"
           id="path56" /></g><g
         clip-path="url(#clipPath25)"
         id="g57"><path
           d="m 593.652,766.398 c -36.488,-2.027 -89.621,-16.101 -127.261,-58.742 -0.196,-0.273 -0.438,-0.519 -0.715,-0.816 -1.75,-2.028 -4.453,-5.27 -5.649,-7.168 -9.402,-15.137 -7.379,-26.008 -0.882,-33.234 h -0.012 c -1.172,1.05 -2.617,2.41 -4.242,4.519 -9.657,12.457 -10.813,32.68 -4.246,54.117 14.343,46.551 77.085,74.559 128,66.871 32.531,-4.906 52.917,-23.226 61.402,-30.707 -18.426,5.254 -32.043,5.981 -46.395,5.16"
           style="fill:#4a96cd;fill-opacity:1;fill-rule:nonzero;stroke:none"
           transform="matrix(0.640084,0,0,0.64008133,0.21666667,0)"
           clip-path="url(#clipPath24)"
           id="path57" /></g><g
         id="g58"><g
           clip-path="url(#clipPath17)"
           id="g43"><path
             d="m 655.602,704.336 c -0.145,-0.492 -0.332,-0.953 -0.516,-1.418 -16.348,18.652 -56.477,30.73 -92.578,28.051 -21.27,-1.582 -60.656,-12.582 -80.531,-24.77 21.007,20.121 45.558,35.414 73.402,43.66 33.051,9.836 68.297,9.164 88.164,-1.183 14.586,-9.828 17.887,-27.395 12.059,-44.34"
             style="fill:#f39800;fill-opacity:1;fill-rule:nonzero;stroke:none"
             transform="matrix(0.640084,0,0,0.64008133,0.21666667,0)"
             clip-path="url(#clipPath16)"
             id="path43" /></g><g
           clip-path="url(#clipPath19)"
           id="g44"><path
             d="m 610.152,586.949 c 65.082,38.434 26.344,159.387 -25.445,198.25 -48.187,36.141 -99.469,19.481 -110.578,-13.855 9.715,14.441 28.98,19.718 46.094,13.957 47.578,-19.071 72.078,-105.289 75.242,-135.227 2.117,-25.765 -1.235,-43.078 -10.184,-53.976 -10.258,-10.832 -25.941,-16.09 -48.929,-8.875 15.808,-12.977 49.66,-14.524 73.8,-0.274"
             style="fill:#004494;fill-opacity:1;fill-rule:nonzero;stroke:none"
             transform="matrix(0.640084,0,0,0.64008133,0.21666667,0)"
             clip-path="url(#clipPath18)"
             id="path44" /></g><g
           clip-path="url(#clipPath21)"
           id="g45"><path
             d="m 646.562,746.969 c 0.227,-0.16 0.516,-0.336 0.778,-0.492 0.035,-0.055 0.101,-0.071 0.125,-0.098 1.336,-0.879 2.664,-1.856 3.898,-2.988 0.567,-0.516 1.157,-1.071 1.723,-1.668 25.32,-25.7 30.695,-97.164 -31.711,-131.016 -22.199,-12.066 -73.84,-28.941 -125.32,-2.906 -17.047,8.594 -34.614,26.472 -44.09,50.754 6.996,-11.528 19.074,-19.348 42.883,-22.703 23.742,-3 56.496,0.687 88.511,12 20.653,7.621 37.356,17.027 50.426,27.683 10.77,9.231 17.695,18.031 21.301,27.379 0.184,0.469 0.371,0.93 0.516,1.422 5.828,16.945 2.527,34.508 -12.059,44.344 -0.016,0.019 0.035,-0.004 0,0 0.691,-0.36 1.336,-0.711 2.078,-1.157 0.117,-0.054 0.199,-0.101 0.317,-0.175 0.171,-0.125 0.402,-0.262 0.624,-0.379"
             style="fill:#e20030;fill-opacity:1;fill-rule:nonzero;stroke:none"
             transform="matrix(0.640084,0,0,0.64008133,0.21666667,0)"
             clip-path="url(#clipPath20)"
             id="path45" /></g><g
           clip-path="url(#clipPath23)"
           id="g46"><path
             d="m 460.023,699.672 c 1.2,1.902 3.903,5.14 5.653,7.176 12.531,-29.426 81.051,-48.536 101.254,-48.293 -45.403,-14.629 -89.907,-7.649 -107.782,7.867 -6.5,7.246 -8.523,18.109 0.875,33.25"
             style="fill:#f39800;fill-opacity:1;fill-rule:nonzero;stroke:none"
             transform="matrix(0.640084,0,0,0.64008133,0.21666667,0)"
             clip-path="url(#clipPath22)"
             id="path46" /></g><g
           clip-path="url(#clipPath25)"
           id="g47"><path
             d="m 593.652,766.398 c -36.488,-2.027 -89.621,-16.101 -127.261,-58.742 -0.196,-0.273 -0.438,-0.519 -0.715,-0.816 -1.75,-2.028 -4.453,-5.27 -5.649,-7.168 -9.402,-15.137 -7.379,-26.008 -0.882,-33.234 h -0.012 c -1.172,1.05 -2.617,2.41 -4.242,4.519 -9.657,12.457 -10.813,32.68 -4.246,54.117 14.343,46.551 77.085,74.559 128,66.871 32.531,-4.906 52.917,-23.226 61.402,-30.707 -18.426,5.254 -32.043,5.981 -46.395,5.16"
             style="fill:#4a96cd;fill-opacity:1;fill-rule:nonzero;stroke:none"
             transform="matrix(0.640084,0,0,0.64008133,0.21666667,0)"
             clip-path="url(#clipPath24)"
             id="path47" /></g></g><g
         id="g65"><g
           clip-path="url(#clipPath7)"
           id="g60"><path
             d="m 902.301,738.258 c -23.301,0 -35.067,-8.922 -35.067,-26.699 0,-17.969 11.766,-26.969 35.067,-26.969 23.25,0 35.129,9 35.129,26.969 0,17.777 -11.879,26.699 -35.129,26.699 m 0,-76.91 c -42.598,0 -67,18.297 -67,50.211 0,31.582 24.402,49.871 67,49.871 42.551,0 66.906,-18.289 66.906,-49.871 0,-31.914 -24.355,-50.211 -66.906,-50.211"
             style="fill:#e20030;fill-opacity:1;fill-rule:nonzero;stroke:none"
             transform="matrix(0.640084,0,0,0.64008133,0.21666667,0)"
             clip-path="url(#clipPath6)"
             id="path59" /></g><g
           clip-path="url(#clipPath9)"
           id="g61"><path
             d="M 1094.137,663.793 H 977.922 v 21.34 h 40.34 v 66.269 c 0,6.325 9.652,8.606 17.808,8.606 8.141,0 17.789,-2.168 17.789,-8.606 v -66.269 h 40.278 z"
             style="fill:#e20030;fill-opacity:1;fill-rule:nonzero;stroke:none"
             transform="matrix(0.640084,0,0,0.64008133,0.21666667,0)"
             clip-path="url(#clipPath8)"
             id="path60" /></g><g
           clip-path="url(#clipPath11)"
           id="g62"><path
             d="m 1308.801,736.941 c -9.856,0 -16.633,-1.652 -20.332,-4.714 -4.809,-4.086 -5.364,-10.153 -5.492,-14.758 v -46.774 c 0,-6.238 -9.157,-8.273 -16.961,-8.273 -7.93,0 -17.137,2.035 -17.137,8.168 v 45.305 c 0,17.281 5.547,29.406 16.605,36.054 13.641,7.914 38.454,7.629 62.305,7.332 h 29.82 v -22.34 z"
             style="fill:#e20030;fill-opacity:1;fill-rule:nonzero;stroke:none"
             transform="matrix(0.640084,0,0,0.64008133,0.21666667,0)"
             clip-path="url(#clipPath10)"
             id="path61" /></g><g
           clip-path="url(#clipPath13)"
           id="g63"><path
             d="M 850.059,634.855 H 709.16 v 23.532 h 48.586 v 71.461 c 0,16.882 14.203,28.367 38.281,30.359 v -101.82 h 54.032 z"
             style="fill:#e20030;fill-opacity:1;fill-rule:nonzero;stroke:none"
             transform="matrix(0.640084,0,0,0.64008133,0.21666667,0)"
             clip-path="url(#clipPath12)"
             id="path62" /></g><g
           clip-path="url(#clipPath15)"
           id="g64"><path
             d="m 1138.781,718.645 c 6.629,-10.055 14.641,-19.856 23.59,-28.594 8.789,8.738 16.766,18.539 23.418,28.594 z m 33.86,-53.696 c -3.004,-2.058 -6.157,-2.527 -10.27,-2.652 -4.219,0.125 -7.5,0.594 -10.414,2.652 -9.203,6.625 -53.703,51.356 -61.547,90.481 l -0.894,3.867 H 1121 l 0.574,-2.801 c 1.317,-5.523 3.34,-11.539 6.106,-17.726 h 69.215 c 2.753,6.187 4.843,12.203 6.003,17.726 l 0.668,2.801 h 31.532 l -0.836,-3.867 c -7.946,-39.125 -52.407,-83.856 -61.621,-90.481"
             style="fill:#e20030;fill-opacity:1;fill-rule:nonzero;stroke:none"
             transform="matrix(0.640084,0,0,0.64008133,0.21666667,0)"
             clip-path="url(#clipPath14)"
             id="path63" /></g></g><g
         id="g71"><g
           clip-path="url(#clipPath17)"
           id="g66"><path
             d="m 655.602,704.336 c -0.145,-0.492 -0.332,-0.953 -0.516,-1.418 -16.348,18.652 -56.477,30.73 -92.578,28.051 -21.27,-1.582 -60.656,-12.582 -80.531,-24.77 21.007,20.121 45.558,35.414 73.402,43.66 33.051,9.836 68.297,9.164 88.164,-1.183 14.586,-9.828 17.887,-27.395 12.059,-44.34"
             style="fill:#f39800;fill-opacity:1;fill-rule:nonzero;stroke:none"
             transform="matrix(0.640084,0,0,0.64008133,0.21666667,0)"
             clip-path="url(#clipPath16)"
             id="path65" /></g><g
           clip-path="url(#clipPath19)"
           id="g67"><path
             d="m 610.152,586.949 c 65.082,38.434 26.344,159.387 -25.445,198.25 -48.187,36.141 -99.469,19.481 -110.578,-13.855 9.715,14.441 28.98,19.718 46.094,13.957 47.578,-19.071 72.078,-105.289 75.242,-135.227 2.117,-25.765 -1.235,-43.078 -10.184,-53.976 -10.258,-10.832 -25.941,-16.09 -48.929,-8.875 15.808,-12.977 49.66,-14.524 73.8,-0.274"
             style="fill:#004494;fill-opacity:1;fill-rule:nonzero;stroke:none"
             transform="matrix(0.640084,0,0,0.64008133,0.21666667,0)"
             clip-path="url(#clipPath18)"
             id="path66" /></g><g
           clip-path="url(#clipPath21)"
           id="g68"><path
             d="m 646.562,746.969 c 0.227,-0.16 0.516,-0.336 0.778,-0.492 0.035,-0.055 0.101,-0.071 0.125,-0.098 1.336,-0.879 2.664,-1.856 3.898,-2.988 0.567,-0.516 1.157,-1.071 1.723,-1.668 25.32,-25.7 30.695,-97.164 -31.711,-131.016 -22.199,-12.066 -73.84,-28.941 -125.32,-2.906 -17.047,8.594 -34.614,26.472 -44.09,50.754 6.996,-11.528 19.074,-19.348 42.883,-22.703 23.742,-3 56.496,0.687 88.511,12 20.653,7.621 37.356,17.027 50.426,27.683 10.77,9.231 17.695,18.031 21.301,27.379 0.184,0.469 0.371,0.93 0.516,1.422 5.828,16.945 2.527,34.508 -12.059,44.344 -0.016,0.019 0.035,-0.004 0,0 0.691,-0.36 1.336,-0.711 2.078,-1.157 0.117,-0.054 0.199,-0.101 0.317,-0.175 0.171,-0.125 0.402,-0.262 0.624,-0.379"
             style="fill:#e20030;fill-opacity:1;fill-rule:nonzero;stroke:none"
             transform="matrix(0.640084,0,0,0.64008133,0.21666667,0)"
             clip-path="url(#clipPath20)"
             id="path67" /></g><g
           clip-path="url(#clipPath23)"
           id="g69"><path
             d="m 460.023,699.672 c 1.2,1.902 3.903,5.14 5.653,7.176 12.531,-29.426 81.051,-48.536 101.254,-48.293 -45.403,-14.629 -89.907,-7.649 -107.782,7.867 -6.5,7.246 -8.523,18.109 0.875,33.25"
             style="fill:#f39800;fill-opacity:1;fill-rule:nonzero;stroke:none"
             transform="matrix(0.640084,0,0,0.64008133,0.21666667,0)"
             clip-path="url(#clipPath22)"
             id="path68" /></g><g
           clip-path="url(#clipPath25)"
           id="g70"><path
             d="m 593.652,766.398 c -36.488,-2.027 -89.621,-16.101 -127.261,-58.742 -0.196,-0.273 -0.438,-0.519 -0.715,-0.816 -1.75,-2.028 -4.453,-5.27 -5.649,-7.168 -9.402,-15.137 -7.379,-26.008 -0.882,-33.234 h -0.012 c -1.172,1.05 -2.617,2.41 -4.242,4.519 -9.657,12.457 -10.813,32.68 -4.246,54.117 14.343,46.551 77.085,74.559 128,66.871 32.531,-4.906 52.917,-23.226 61.402,-30.707 -18.426,5.254 -32.043,5.981 -46.395,5.16"
             style="fill:#4a96cd;fill-opacity:1;fill-rule:nonzero;stroke:none"
             transform="matrix(0.640084,0,0,0.64008133,0.21666667,0)"
             clip-path="url(#clipPath24)"
             id="path69" /></g></g></g></g></svg>
